{"glyphs":{"0":{"ha":1288,"x_min":34,"x_max":1254,"o":"m 643 258 q 870 336 802 267 q 955 543 955 420 q 870 751 955 666 q 643 827 802 819 q 418 751 495 827 q 333 543 333 666 q 418 335 333 420 q 643 258 495 258 m 193 167 q 35 496 35 324 l 34 496 q 193 920 34 762 q 644 1086 359 1086 q 1096 919 930 1086 q 1254 543 1254 762 q 1097 167 1254 325 q 644 0 930 0 q 193 167 359 0 z "},"1":{"ha":716,"x_min":7,"x_max":581,"o":"m 7 827 l 7 1086 l 581 1086 l 581 0 l 281 0 l 281 827 l 7 827 z "},"2":{"ha":1049,"x_min":68,"x_max":973,"o":"m 68 -191 l 68 968 l 973 968 l 973 -191 l 68 -191 m 92 -164 l 949 -164 l 949 948 l 92 948 l 92 -164 m 492 319 l 494 319 l 501 319 l 501 307 q 503 221 503 259 l 498 220 l 494 220 q 492 313 492 268 l 492 315 l 492 319 m 830 319 l 831 319 l 840 319 q 840 310 840 313 q 842 221 840 273 l 834 220 l 831 220 q 829 307 830 259 q 830 319 830 315 m 536 316 l 538 316 q 543 308 538 315 q 541 288 541 296 l 541 275 q 551 236 541 245 l 551 236 q 575 315 566 236 l 576 315 q 585 313 585 313 q 581 254 581 273 q 589 233 581 233 q 591 220 591 222 l 585 220 q 572 241 576 220 l 571 241 q 553 222 564 222 l 549 222 q 531 264 536 222 q 530 279 530 267 l 530 286 q 536 316 530 303 m 742 316 l 746 316 q 765 297 754 316 q 773 267 773 282 l 773 261 q 746 222 773 236 q 736 220 741 220 l 732 220 q 708 249 711 220 l 708 255 q 735 315 708 289 q 742 316 741 316 m 169 313 l 175 313 q 194 286 194 310 q 172 253 194 263 q 153 248 163 250 l 153 223 l 153 223 q 143 225 149 223 l 143 248 l 140 248 l 136 249 q 140 262 136 256 l 143 262 l 143 262 q 139 290 143 290 q 135 297 135 294 q 169 313 147 313 m 718 255 l 718 250 q 735 233 718 235 q 760 252 750 233 q 764 264 764 257 l 764 266 q 746 302 764 284 q 744 303 744 302 q 720 269 732 303 q 718 255 718 262 m 152 295 q 153 263 153 271 q 153 262 153 263 q 178 273 173 266 q 184 286 184 280 q 174 300 184 298 l 170 300 q 152 295 152 298 m 274 297 q 293 264 287 297 q 283 261 292 264 q 274 283 279 283 q 260 233 262 277 q 261 222 261 223 q 251 221 254 221 q 242 280 242 268 q 252 281 250 281 l 252 281 q 254 268 252 278 l 255 268 q 274 297 262 297 m 364 293 q 387 271 378 293 q 388 260 388 265 l 388 258 q 364 222 388 233 q 358 221 361 221 q 340 247 340 224 q 357 291 340 281 q 364 293 358 292 m 416 293 q 441 233 429 293 q 441 228 441 233 q 433 223 436 223 q 418 277 423 265 q 406 230 412 269 q 402 223 405 230 l 397 223 q 391 262 393 223 q 390 277 390 271 q 399 279 395 279 q 401 265 401 267 l 402 265 q 416 293 407 293 m 804 293 q 827 228 814 293 q 819 223 821 223 q 802 277 808 268 q 789 227 798 269 q 787 223 787 223 l 783 223 q 776 277 778 223 q 786 279 780 279 q 787 264 787 266 l 787 264 q 804 293 792 293 m 320 292 q 332 280 332 288 l 332 279 q 326 274 332 278 l 325 274 q 316 279 322 279 q 305 271 307 279 q 325 267 305 268 q 338 244 338 260 q 325 221 338 227 l 319 220 l 316 220 q 293 235 300 220 l 293 236 q 299 243 294 238 l 300 243 q 319 233 308 233 q 328 244 328 236 q 314 254 326 254 q 295 269 295 254 l 295 271 q 320 292 295 292 m 618 292 q 632 279 627 292 l 632 279 q 623 274 625 274 q 615 279 623 278 q 604 272 607 279 l 604 271 q 623 267 604 268 q 636 243 636 261 q 620 220 636 225 l 614 220 q 591 235 599 220 l 591 236 q 597 243 596 243 l 598 243 q 616 233 606 233 q 626 244 626 236 q 615 254 626 252 q 595 262 598 254 q 593 271 593 269 q 618 292 593 292 m 847 291 l 847 291 q 857 290 856 290 q 856 272 856 277 l 856 266 q 865 242 857 242 l 865 242 q 878 288 878 251 l 878 288 l 888 288 l 888 286 q 892 226 892 233 q 872 188 892 195 q 869 188 871 188 l 865 188 q 850 201 853 188 q 849 208 849 204 l 849 208 q 851 218 849 218 l 852 218 q 860 214 858 214 l 859 208 q 865 201 859 202 l 867 201 q 882 230 882 201 q 882 244 882 233 l 881 244 q 863 228 876 228 l 863 228 q 846 260 850 228 l 846 271 q 847 291 846 278 m 224 290 q 240 275 240 288 l 240 271 q 214 247 240 258 l 207 247 q 218 236 207 239 q 233 248 226 236 l 235 248 q 241 238 241 240 q 220 223 229 223 l 216 223 q 195 254 198 223 q 217 290 195 281 l 224 290 m 462 290 l 469 290 q 488 260 488 284 q 487 236 487 245 q 488 225 487 236 q 479 220 482 220 l 479 220 l 477 227 q 462 222 469 222 l 457 222 q 442 236 442 224 l 442 241 q 464 265 442 262 q 477 261 471 264 l 477 262 q 466 279 475 279 q 454 272 460 279 l 452 272 q 446 279 450 273 l 446 281 q 462 290 454 290 m 667 290 q 683 275 683 288 q 654 247 683 255 l 650 247 l 650 245 q 661 236 654 236 q 676 248 667 236 l 677 248 q 683 240 677 248 q 669 225 683 234 q 663 223 666 223 l 658 223 q 638 253 642 223 q 659 290 638 280 l 667 290 m 350 248 q 358 235 351 235 l 360 235 q 378 259 376 240 l 378 261 q 364 279 374 279 l 363 279 q 351 257 354 279 q 350 248 350 252 m 207 261 q 229 273 220 261 l 229 275 q 223 276 224 276 q 207 263 212 276 l 207 261 m 650 261 l 652 261 q 673 274 663 261 q 667 276 669 276 l 665 276 q 650 262 654 276 l 650 261 m 452 240 l 452 238 q 459 234 452 236 q 476 245 471 234 q 463 250 471 250 q 452 240 452 248 m 419 172 q 429 149 428 172 l 429 147 l 425 146 l 424 146 q 418 161 422 161 q 413 148 414 161 q 414 145 414 146 q 415 119 414 138 q 421 121 418 121 l 423 121 l 423 111 l 416 109 q 419 62 419 70 l 412 62 q 409 106 409 98 l 408 106 q 401 104 405 104 l 401 116 q 408 117 406 116 q 406 153 406 132 q 418 172 408 172 l 419 172 m 553 172 q 564 147 562 172 l 559 146 l 557 146 l 557 147 q 553 161 557 157 q 547 151 547 157 q 549 119 547 145 q 549 119 549 119 q 556 121 553 121 l 557 121 l 557 115 l 557 111 q 549 109 557 111 l 551 106 q 553 62 551 98 l 546 62 q 543 106 546 66 q 535 104 537 104 l 535 116 l 543 117 q 541 152 541 148 q 553 172 541 172 m 481 161 l 484 161 l 488 161 l 488 155 q 490 65 488 113 l 482 65 q 481 134 481 109 l 481 161 m 498 161 l 499 161 l 505 161 l 505 140 q 507 65 505 119 l 499 65 q 497 157 497 110 l 497 159 q 498 161 497 161 m 359 159 q 366 157 364 157 q 364 129 364 138 l 366 129 l 374 130 l 374 119 q 364 117 373 119 l 367 67 l 366 66 l 360 66 q 357 117 358 85 l 348 117 l 348 127 l 355 128 l 357 128 l 357 140 q 359 159 357 159 m 674 159 q 682 157 676 159 q 680 138 680 149 l 680 129 l 682 129 l 690 130 l 690 119 l 688 119 l 680 117 l 684 67 l 680 66 l 676 66 q 674 117 674 108 l 664 117 l 665 122 l 665 127 l 672 128 l 673 128 l 673 129 q 674 159 673 143 m 773 159 q 781 157 775 159 q 780 134 780 145 l 780 129 l 781 129 l 789 130 l 789 125 l 789 119 q 780 117 789 119 l 780 113 q 783 67 780 103 l 781 66 l 775 66 l 772 117 l 764 117 l 764 127 l 771 128 l 772 128 l 773 159 m 274 157 l 281 157 q 296 141 290 157 q 292 135 292 137 l 290 135 q 276 145 284 145 q 252 127 264 145 q 246 104 246 115 l 246 101 q 262 77 246 81 q 268 77 264 77 q 289 90 289 79 l 289 97 q 281 99 286 99 l 274 99 l 274 111 q 296 104 293 111 q 298 98 298 100 q 296 79 296 81 q 299 61 296 71 q 294 58 298 61 l 293 58 q 289 73 290 58 q 269 64 285 67 l 268 64 q 239 99 242 64 l 239 102 q 269 155 239 141 l 274 157 m 587 135 q 610 109 603 135 l 610 100 q 587 66 610 77 l 583 65 q 566 79 572 65 q 565 90 565 86 l 565 93 q 578 132 565 121 q 587 135 583 135 m 640 135 q 663 71 650 135 l 662 71 q 656 68 659 68 q 640 122 646 114 q 624 68 635 117 l 623 68 l 620 68 q 614 119 616 68 l 619 121 l 621 121 q 623 98 623 110 l 623 98 q 640 135 629 135 m 330 132 q 344 119 344 130 q 345 117 345 119 q 321 93 345 102 q 311 91 317 91 l 311 90 q 322 79 311 83 l 323 79 q 338 90 330 79 l 340 90 q 345 83 340 88 l 345 83 q 325 68 335 68 l 321 68 q 302 90 308 68 l 302 100 q 320 131 302 122 q 330 132 323 132 m 734 132 l 742 132 q 758 113 753 132 q 760 101 760 102 q 758 83 760 97 q 760 68 760 81 l 755 65 l 753 65 l 751 73 q 734 66 745 66 l 732 66 q 718 79 718 68 l 718 85 q 738 106 720 106 q 752 101 746 106 l 752 103 q 740 123 752 120 l 738 123 q 726 117 734 123 l 726 117 q 722 122 725 117 l 722 123 q 734 132 728 132 m 430 131 q 437 129 431 131 q 447 79 437 79 q 466 123 460 87 q 467 131 467 127 l 467 131 q 474 129 469 131 q 472 98 472 113 l 472 90 q 475 77 472 84 q 472 70 472 73 l 471 70 q 465 87 466 73 l 464 87 q 451 68 461 77 l 445 68 q 431 119 431 68 l 431 125 l 430 131 m 572 93 q 582 77 573 77 l 583 77 q 601 94 593 77 q 603 102 603 100 q 588 123 599 123 l 585 123 q 572 93 575 123 m 310 102 q 336 117 326 102 q 329 121 335 121 l 327 121 q 310 102 314 121 m 724 83 q 732 77 726 77 l 736 77 q 751 90 745 77 q 739 95 745 95 l 738 95 q 724 83 724 93 m 344 31 q 355 28 345 31 q 352 -35 353 2 q 359 -81 352 -58 q 351 -88 351 -88 l 350 -88 q 346 -79 348 -88 l 345 -79 q 330 -90 345 -85 q 298 -62 308 -90 q 296 -43 296 -54 q 319 -3 296 -10 l 322 -3 q 342 -14 332 -3 l 342 -14 q 344 31 342 -8 m 214 26 l 224 23 q 223 -1 223 7 l 223 -11 q 233 -9 232 -9 q 235 -25 235 -22 l 233 -25 q 223 -26 227 -26 q 227 -87 225 -68 q 215 -89 218 -89 l 215 -88 q 212 -28 212 -47 l 210 -27 l 201 -27 l 201 -11 l 211 -11 l 211 -5 q 214 26 211 26 m 457 26 l 458 26 l 468 23 q 467 -7 467 4 l 467 -11 q 477 -9 476 -9 l 478 -18 l 478 -25 q 467 -26 467 -26 q 471 -87 467 -42 q 459 -89 462 -89 l 459 -88 q 456 -27 456 -37 l 444 -27 l 444 -11 l 455 -11 q 457 26 455 12 m 370 24 q 378 15 376 24 l 378 14 q 372 3 378 7 l 368 3 q 362 15 362 7 q 370 24 363 24 m 412 -3 q 439 -29 429 -3 q 441 -41 441 -37 l 441 -47 q 414 -87 441 -74 q 406 -89 412 -89 q 384 -61 387 -89 l 384 -52 q 404 -5 384 -17 q 412 -3 411 -3 m 543 -3 l 546 -3 q 553 -5 553 -3 l 553 -7 q 566 -3 559 -3 q 589 -33 583 -3 q 589 -43 589 -41 q 568 -86 587 -78 l 563 -87 l 556 -87 l 557 -92 q 557 -119 557 -96 l 546 -119 q 543 -3 543 -30 m 621 -3 q 647 -27 636 -3 q 650 -43 650 -36 q 624 -87 650 -73 q 614 -89 618 -89 q 593 -71 600 -89 q 592 -55 592 -62 q 612 -5 592 -18 q 621 -3 620 -3 m 758 -3 q 784 -27 774 -3 q 787 -40 787 -33 l 787 -45 q 760 -87 787 -75 q 751 -89 758 -89 q 730 -61 732 -89 l 730 -52 q 750 -5 730 -17 q 758 -3 757 -3 m 821 -3 q 840 -43 833 -3 l 840 -43 q 859 -3 846 -3 l 859 -3 q 886 -83 876 -3 l 885 -83 q 876 -87 878 -87 l 876 -87 q 859 -20 863 -20 q 847 -76 852 -35 q 840 -83 845 -83 q 833 -73 835 -83 q 820 -21 824 -21 q 809 -84 809 -60 q 798 -87 802 -87 l 798 -86 l 789 -16 q 801 -12 798 -12 q 804 -33 802 -17 l 805 -33 q 821 -3 811 -3 m 175 -4 q 191 -18 191 -7 l 191 -19 q 183 -25 191 -20 l 181 -25 q 172 -20 181 -20 l 172 -20 q 158 -26 163 -20 l 158 -29 q 179 -33 158 -33 q 197 -59 197 -41 l 197 -62 q 182 -88 197 -81 q 176 -90 179 -90 l 170 -90 q 143 -73 154 -90 q 151 -62 143 -70 l 153 -62 q 173 -75 158 -75 q 185 -61 185 -75 q 171 -49 185 -51 q 149 -41 153 -49 q 146 -33 146 -35 l 146 -27 q 175 -4 146 -4 m 484 -5 q 494 -7 492 -7 q 493 -31 493 -23 l 493 -35 q 501 -64 493 -57 l 505 -64 q 519 -16 519 -52 l 519 -9 l 531 -9 l 531 -9 q 536 -79 536 -70 l 536 -86 q 517 -127 536 -116 q 507 -130 511 -130 q 487 -116 492 -130 q 486 -110 486 -113 l 486 -104 q 488 -94 486 -94 l 498 -98 l 497 -104 l 497 -106 q 505 -113 497 -112 l 507 -113 q 524 -91 521 -113 q 525 -83 525 -88 l 525 -69 l 524 -60 l 524 -60 q 504 -81 517 -81 l 503 -81 q 482 -47 487 -81 q 481 -33 481 -41 l 481 -27 q 484 -5 481 -5 m 701 -5 l 706 -5 q 716 -12 710 -5 q 724 -24 724 -20 q 715 -33 716 -33 l 715 -33 q 703 -22 708 -22 l 702 -22 q 690 -41 694 -26 l 687 -56 q 696 -72 687 -71 l 699 -72 q 722 -61 706 -72 l 722 -61 q 726 -76 726 -75 q 694 -88 709 -88 q 675 -57 679 -88 q 688 -14 675 -34 q 701 -5 696 -5 m 364 -7 l 372 -7 l 376 -7 q 376 -13 376 -9 q 378 -87 376 -58 l 366 -87 l 366 -81 q 364 -7 364 -35 m 237 -7 q 249 -12 249 -11 l 249 -25 q 257 -71 249 -71 l 260 -71 q 277 -33 272 -58 q 281 -7 280 -26 l 282 -7 q 292 -12 292 -9 q 290 -52 290 -40 l 290 -58 q 294 -72 290 -65 q 287 -84 294 -76 l 287 -84 q 279 -67 279 -76 l 278 -67 q 259 -87 271 -87 l 257 -87 q 237 -24 237 -87 l 237 -7 m 308 -45 q 328 -73 308 -68 l 330 -73 q 340 -55 338 -73 l 340 -53 q 326 -20 340 -28 l 322 -20 l 321 -20 q 308 -43 309 -20 l 308 -45 m 395 -56 q 406 -73 395 -71 l 408 -73 q 428 -53 418 -73 q 429 -47 429 -50 l 429 -41 q 413 -20 425 -20 l 412 -20 q 395 -56 397 -20 m 553 -25 q 555 -71 553 -27 l 560 -71 q 578 -43 575 -71 q 566 -20 576 -20 l 566 -20 q 553 -25 559 -20 m 604 -56 l 604 -59 q 614 -73 604 -71 l 615 -73 q 635 -55 626 -73 q 638 -43 638 -50 q 619 -20 634 -20 q 604 -56 606 -20 m 741 -56 q 752 -73 741 -73 l 754 -73 q 774 -52 764 -73 q 775 -45 775 -48 l 775 -41 q 758 -20 770 -20 l 758 -20 q 741 -56 744 -20 m 663 -65 q 671 -75 669 -65 l 671 -78 q 663 -87 669 -87 q 655 -77 656 -87 q 663 -65 656 -65 m 486 928 l 486 764 l 309 764 q 239 738 273 764 l 239 745 q 486 928 339 928 m 543 928 l 549 928 q 739 827 639 928 q 777 764 777 781 l 543 764 l 543 928 m 290 707 l 486 707 l 486 643 q 435 656 463 656 l 290 656 q 277 669 277 656 l 277 694 q 290 707 279 707 m 543 707 l 802 707 l 808 643 l 808 631 q 720 429 808 505 l 606 429 q 543 492 543 437 l 543 707 m 220 656 l 227 656 q 321 599 227 607 l 441 599 q 486 555 486 599 l 486 485 q 416 429 486 429 l 309 429 q 220 618 220 510 l 220 656 m 511 410 l 517 410 q 644 372 559 372 l 644 365 q 517 340 571 340 l 511 340 q 385 365 457 340 l 385 372 q 511 410 474 372 z "},"3":{"ha":1208,"x_min":68,"x_max":1154,"o":"m 123 672 q 798 672 795 672 q 831 688 814 672 q 854 750 854 712 q 831 812 854 787 q 798 827 814 827 q 68 827 795 827 l 68 1086 l 798 1086 q 1056 980 951 1086 q 1154 750 1154 883 q 1082 541 1154 616 q 1154 336 1154 469 q 1056 106 1154 203 q 798 0 951 0 l 68 0 l 68 258 q 798 258 795 258 q 831 274 814 258 q 854 336 854 298 q 831 398 854 374 q 798 414 814 414 q 123 414 795 414 l 123 672 z "},"4":{"ha":1075,"x_min":20,"x_max":1000,"o":"m 471 258 l 636 258 l 636 0 l 20 0 l 20 151 l 772 1086 l 1000 1086 l 1000 0 l 701 0 l 701 544 l 471 258 z "},"5":{"ha":1193,"x_min":68,"x_max":1139,"o":"m 68 258 q 783 258 779 258 q 812 275 797 258 q 840 350 840 304 q 812 425 840 395 q 783 441 797 441 q 94 441 779 441 l 94 1086 l 1056 1086 l 1056 827 l 393 827 l 393 701 l 783 701 q 1044 587 939 701 q 1139 350 1139 487 q 1044 113 1139 214 q 783 0 939 0 l 68 0 l 68 258 z "},"6":{"ha":1154,"x_min":34,"x_max":1120,"o":"m 34 749 q 132 979 34 882 q 391 1085 237 1085 l 982 1085 l 982 827 l 391 827 q 357 811 373 827 q 333 749 333 787 l 333 372 q 368 285 333 319 q 427 258 395 258 l 727 258 q 787 285 760 258 q 821 372 821 319 q 787 460 821 426 q 727 487 760 487 l 414 487 l 414 745 l 727 745 q 1012 629 896 745 q 1120 372 1120 521 q 1012 116 1120 224 q 727 -1 896 -1 l 427 -1 q 142 116 258 -1 q 34 372 34 224 l 34 749 z "},"7":{"ha":996,"x_min":7,"x_max":928,"o":"m 7 827 l 7 1086 l 928 1086 l 928 0 l 629 0 l 629 827 l 7 827 z "},"8":{"ha":1185,"x_min":34,"x_max":1151,"o":"m 782 827 q 402 827 404 827 q 369 812 385 827 q 345 749 345 787 q 369 688 345 712 q 402 672 385 672 q 782 672 404 672 q 816 688 800 672 q 840 749 840 712 q 816 812 840 787 q 782 827 800 827 m 782 258 q 816 274 800 258 q 840 336 840 298 q 816 398 840 374 q 782 414 800 414 q 402 414 404 414 q 369 398 385 414 q 345 336 345 374 q 369 274 345 298 q 402 258 385 258 q 782 258 404 258 m 1112 431 q 1124 236 1151 336 q 1011 69 1097 134 q 782 0 918 0 l 402 0 q 173 69 267 0 q 60 236 87 134 q 72 431 34 335 q 134 543 113 531 q 72 655 113 555 q 60 850 34 751 q 173 1017 87 952 q 402 1086 267 1086 l 782 1086 q 1011 1017 918 1086 q 1124 850 1097 952 q 1112 655 1151 750 q 1050 543 1072 555 q 1112 431 1072 531 z "},"9":{"ha":1154,"x_min":34,"x_max":1120,"o":"m 741 597 l 741 339 l 427 339 q 142 456 258 339 q 34 712 34 564 q 142 968 34 861 q 427 1085 258 1085 l 727 1085 q 1012 968 896 1085 q 1120 712 1120 861 l 1120 335 q 1023 105 1120 202 q 764 -1 918 -1 l 104 -1 l 104 258 l 764 258 q 798 273 781 258 q 821 335 821 298 l 821 712 q 787 800 821 766 q 727 827 760 827 l 427 827 q 368 800 395 827 q 333 712 333 766 q 368 624 333 659 q 427 597 395 597 l 741 597 z "},"\u0000":{"ha":109,"x_min":0,"x_max":0,"o":""}," ":{"ha":340,"x_min":0,"x_max":0,"o":""},"!":{"ha":435,"x_min":68,"x_max":367,"o":"m 317 413 l 117 413 l 68 646 l 68 1086 l 367 1086 l 367 646 l 317 413 m 68 299 l 367 299 l 367 0 l 68 0 l 68 299 z "},"\"":{"ha":679,"x_min":34,"x_max":645,"o":"m 250 544 l 83 544 l 34 777 l 34 1086 l 299 1086 l 299 777 l 250 544 m 595 544 l 429 544 l 380 777 l 380 1086 l 645 1086 l 645 777 l 595 544 z "},"#":{"ha":1039,"x_min":68,"x_max":971,"o":"m 482 597 l 455 479 l 568 479 l 595 597 l 482 597 m 907 998 l 852 774 l 970 774 l 970 597 l 816 597 l 789 479 l 971 479 l 971 302 l 751 302 l 701 90 l 480 90 l 531 302 l 418 302 l 367 90 l 146 90 l 197 302 l 68 302 l 68 479 l 235 479 l 262 597 l 68 597 l 68 774 l 298 774 l 352 998 l 573 998 l 519 774 l 632 774 l 686 998 l 907 998 z "},"$":{"ha":1064,"x_min":34,"x_max":1030,"o":"m 763 83 l 763 -1 l 563 -1 l 563 1086 l 763 1086 l 763 1003 l 962 1003 l 962 745 l 763 745 l 763 670 q 949 583 872 661 q 1030 373 1030 503 q 949 170 1030 250 q 763 83 872 92 m 307 1002 l 307 1086 l 507 1086 l 507 -1 l 307 -1 l 307 81 l 64 81 l 64 340 l 307 340 l 307 414 q 115 502 194 422 q 34 705 34 582 q 115 914 34 834 q 307 1002 194 994 z "},"%":{"ha":1406,"x_min":34,"x_max":1372,"o":"m 307 1101 q 502 1029 421 1101 q 579 863 579 960 l 579 756 q 501 589 579 658 q 307 517 421 517 q 112 590 193 517 q 34 756 34 658 l 34 863 q 113 1030 34 960 q 307 1101 193 1101 m 1099 568 q 1294 496 1213 568 q 1372 330 1372 427 l 1372 223 q 1293 56 1372 125 q 1099 -16 1213 -16 q 904 56 985 -16 q 826 223 826 125 l 826 330 q 905 497 826 427 q 1099 568 985 568 m 307 877 q 274 865 287 877 q 266 850 266 859 l 266 762 q 274 747 266 753 q 307 735 287 735 q 338 746 326 735 q 347 762 347 753 l 347 850 q 338 865 347 858 q 307 877 326 877 m 1099 351 q 1066 339 1079 351 q 1058 323 1058 332 l 1058 230 q 1066 214 1058 221 q 1099 202 1080 202 q 1132 214 1119 202 q 1140 230 1140 220 l 1140 323 q 1132 339 1140 332 q 1099 351 1119 351 m 995 1086 l 663 0 l 395 0 l 726 1086 l 995 1086 z "},"&":{"ha":1198,"x_min":41,"x_max":1158,"o":"m 1010 544 q 1120 456 1084 528 q 1132 237 1158 349 q 1019 69 1104 134 q 789 0 926 0 l 410 0 q 180 69 274 0 q 68 237 94 134 q 79 456 42 349 q 142 570 120 558 q 80 681 121 582 q 68 850 41 764 q 180 1017 94 952 q 410 1086 274 1086 l 904 1086 l 904 827 l 414 827 q 366 812 387 827 q 353 763 353 800 q 376 715 353 739 q 410 699 393 699 l 738 699 l 631 441 l 410 441 q 376 425 393 441 q 353 350 353 401 q 376 274 353 298 q 410 258 393 258 l 789 258 q 823 274 807 258 q 847 350 847 298 q 823 425 847 401 q 794 441 808 439 l 711 441 l 818 699 l 1103 699 l 1103 544 l 1010 544 z "},"'":{"ha":435,"x_min":68,"x_max":367,"o":"m 317 544 l 117 544 l 68 777 l 68 1086 l 367 1086 l 367 777 l 317 544 z "},"(":{"ha":608,"x_min":68,"x_max":553,"o":"m 553 258 l 553 0 l 404 0 q 159 100 258 0 q 68 315 68 191 l 68 770 q 159 986 68 895 q 404 1086 258 1086 l 553 1086 l 553 827 l 404 827 q 385 818 395 827 q 367 770 367 800 l 367 315 q 385 268 367 286 q 404 258 395 258 l 553 258 z "},")":{"ha":608,"x_min":68,"x_max":553,"o":"m 218 258 q 237 268 227 258 q 254 315 254 286 l 254 770 q 237 818 254 800 q 218 827 227 827 l 68 827 l 68 1086 l 218 1086 q 462 986 363 1086 q 553 770 553 895 l 553 315 q 462 100 553 191 q 218 0 363 0 l 68 0 l 68 258 l 218 258 z "},"*":{"ha":733,"x_min":34,"x_max":699,"o":"m 489 951 l 606 1000 l 699 751 l 550 716 l 654 598 l 425 454 l 366 572 l 309 454 l 79 597 l 184 716 l 34 751 l 127 1000 l 243 952 l 230 1086 l 503 1086 l 489 951 z "},"+":{"ha":886,"x_min":41,"x_max":846,"o":"m 294 918 l 593 918 l 593 646 l 846 646 l 846 387 l 593 387 l 593 115 l 294 115 l 294 387 l 41 387 l 41 646 l 294 646 l 294 918 z "},",":{"ha":421,"x_min":7,"x_max":380,"o":"m 73 299 l 380 299 l 254 -136 l 7 -136 l 73 299 z "},"-":{"ha":758,"x_min":68,"x_max":690,"o":"m 690 646 l 690 387 l 68 387 l 68 646 l 690 646 z "},".":{"ha":1049,"x_min":68,"x_max":973,"o":"m 68 -191 l 68 968 l 973 968 l 973 -191 l 68 -191 m 92 -164 l 949 -164 l 949 948 l 92 948 l 92 -164 m 492 319 l 494 319 l 501 319 l 501 307 q 503 221 503 259 l 498 220 l 494 220 q 492 313 492 268 l 492 315 l 492 319 m 830 319 l 831 319 l 840 319 q 840 310 840 313 q 842 221 840 273 l 834 220 l 831 220 q 829 307 830 259 q 830 319 830 315 m 536 316 l 538 316 q 543 308 538 315 q 541 288 541 296 l 541 275 q 551 236 541 245 l 551 236 q 575 315 566 236 l 576 315 q 585 313 585 313 q 581 254 581 273 q 589 233 581 233 q 591 220 591 222 l 585 220 q 572 241 576 220 l 571 241 q 553 222 564 222 l 549 222 q 531 264 536 222 q 530 279 530 267 l 530 286 q 536 316 530 303 m 742 316 l 746 316 q 765 297 754 316 q 773 267 773 282 l 773 261 q 746 222 773 236 q 736 220 741 220 l 732 220 q 708 249 711 220 l 708 255 q 735 315 708 289 q 742 316 741 316 m 169 313 l 175 313 q 194 286 194 310 q 172 253 194 263 q 153 248 163 250 l 153 223 l 153 223 q 143 225 149 223 l 143 248 l 140 248 l 136 249 q 140 262 136 256 l 143 262 l 143 262 q 139 290 143 290 q 135 297 135 294 q 169 313 147 313 m 718 255 l 718 250 q 735 233 718 235 q 760 252 750 233 q 764 264 764 257 l 764 266 q 746 302 764 284 q 744 303 744 302 q 720 269 732 303 q 718 255 718 262 m 152 295 q 153 263 153 271 q 153 262 153 263 q 178 273 173 266 q 184 286 184 280 q 174 300 184 298 l 170 300 q 152 295 152 298 m 274 297 q 293 264 287 297 q 283 261 292 264 q 274 283 279 283 q 260 233 262 277 q 261 222 261 223 q 251 221 254 221 q 242 280 242 268 q 252 281 250 281 l 252 281 q 254 268 252 278 l 255 268 q 274 297 262 297 m 364 293 q 387 271 378 293 q 388 260 388 265 l 388 258 q 364 222 388 233 q 358 221 361 221 q 340 247 340 224 q 357 291 340 281 q 364 293 358 292 m 416 293 q 441 233 429 293 q 441 228 441 233 q 433 223 436 223 q 418 277 423 265 q 406 230 412 269 q 402 223 405 230 l 397 223 q 391 262 393 223 q 390 277 390 271 q 399 279 395 279 q 401 265 401 267 l 402 265 q 416 293 407 293 m 804 293 q 827 228 814 293 q 819 223 821 223 q 802 277 808 268 q 789 227 798 269 q 787 223 787 223 l 783 223 q 776 277 778 223 q 786 279 780 279 q 787 264 787 266 l 787 264 q 804 293 792 293 m 320 292 q 332 280 332 288 l 332 279 q 326 274 332 278 l 325 274 q 316 279 322 279 q 305 271 307 279 q 325 267 305 268 q 338 244 338 260 q 325 221 338 227 l 319 220 l 316 220 q 293 235 300 220 l 293 236 q 299 243 294 238 l 300 243 q 319 233 308 233 q 328 244 328 236 q 314 254 326 254 q 295 269 295 254 l 295 271 q 320 292 295 292 m 618 292 q 632 279 627 292 l 632 279 q 623 274 625 274 q 615 279 623 278 q 604 272 607 279 l 604 271 q 623 267 604 268 q 636 243 636 261 q 620 220 636 225 l 614 220 q 591 235 599 220 l 591 236 q 597 243 596 243 l 598 243 q 616 233 606 233 q 626 244 626 236 q 615 254 626 252 q 595 262 598 254 q 593 271 593 269 q 618 292 593 292 m 847 291 l 847 291 q 857 290 856 290 q 856 272 856 277 l 856 266 q 865 242 857 242 l 865 242 q 878 288 878 251 l 878 288 l 888 288 l 888 286 q 892 226 892 233 q 872 188 892 195 q 869 188 871 188 l 865 188 q 850 201 853 188 q 849 208 849 204 l 849 208 q 851 218 849 218 l 852 218 q 860 214 858 214 l 859 208 q 865 201 859 202 l 867 201 q 882 230 882 201 q 882 244 882 233 l 881 244 q 863 228 876 228 l 863 228 q 846 260 850 228 l 846 271 q 847 291 846 278 m 224 290 q 240 275 240 288 l 240 271 q 214 247 240 258 l 207 247 q 218 236 207 239 q 233 248 226 236 l 235 248 q 241 238 241 240 q 220 223 229 223 l 216 223 q 195 254 198 223 q 217 290 195 281 l 224 290 m 462 290 l 469 290 q 488 260 488 284 q 487 236 487 245 q 488 225 487 236 q 479 220 482 220 l 479 220 l 477 227 q 462 222 469 222 l 457 222 q 442 236 442 224 l 442 241 q 464 265 442 262 q 477 261 471 264 l 477 262 q 466 279 475 279 q 454 272 460 279 l 452 272 q 446 279 450 273 l 446 281 q 462 290 454 290 m 667 290 q 683 275 683 288 q 654 247 683 255 l 650 247 l 650 245 q 661 236 654 236 q 676 248 667 236 l 677 248 q 683 240 677 248 q 669 225 683 234 q 663 223 666 223 l 658 223 q 638 253 642 223 q 659 290 638 280 l 667 290 m 350 248 q 358 235 351 235 l 360 235 q 378 259 376 240 l 378 261 q 364 279 374 279 l 363 279 q 351 257 354 279 q 350 248 350 252 m 207 261 q 229 273 220 261 l 229 275 q 223 276 224 276 q 207 263 212 276 l 207 261 m 650 261 l 652 261 q 673 274 663 261 q 667 276 669 276 l 665 276 q 650 262 654 276 l 650 261 m 452 240 l 452 238 q 459 234 452 236 q 476 245 471 234 q 463 250 471 250 q 452 240 452 248 m 419 172 q 429 149 428 172 l 429 147 l 425 146 l 424 146 q 418 161 422 161 q 413 148 414 161 q 414 145 414 146 q 415 119 414 138 q 421 121 418 121 l 423 121 l 423 111 l 416 109 q 419 62 419 70 l 412 62 q 409 106 409 98 l 408 106 q 401 104 405 104 l 401 116 q 408 117 406 116 q 406 153 406 132 q 418 172 408 172 l 419 172 m 553 172 q 564 147 562 172 l 559 146 l 557 146 l 557 147 q 553 161 557 157 q 547 151 547 157 q 549 119 547 145 q 549 119 549 119 q 556 121 553 121 l 557 121 l 557 115 l 557 111 q 549 109 557 111 l 551 106 q 553 62 551 98 l 546 62 q 543 106 546 66 q 535 104 537 104 l 535 116 l 543 117 q 541 152 541 148 q 553 172 541 172 m 481 161 l 484 161 l 488 161 l 488 155 q 490 65 488 113 l 482 65 q 481 134 481 109 l 481 161 m 498 161 l 499 161 l 505 161 l 505 140 q 507 65 505 119 l 499 65 q 497 157 497 110 l 497 159 q 498 161 497 161 m 359 159 q 366 157 364 157 q 364 129 364 138 l 366 129 l 374 130 l 374 119 q 364 117 373 119 l 367 67 l 366 66 l 360 66 q 357 117 358 85 l 348 117 l 348 127 l 355 128 l 357 128 l 357 140 q 359 159 357 159 m 674 159 q 682 157 676 159 q 680 138 680 149 l 680 129 l 682 129 l 690 130 l 690 119 l 688 119 l 680 117 l 684 67 l 680 66 l 676 66 q 674 117 674 108 l 664 117 l 665 122 l 665 127 l 672 128 l 673 128 l 673 129 q 674 159 673 143 m 773 159 q 781 157 775 159 q 780 134 780 145 l 780 129 l 781 129 l 789 130 l 789 125 l 789 119 q 780 117 789 119 l 780 113 q 783 67 780 103 l 781 66 l 775 66 l 772 117 l 764 117 l 764 127 l 771 128 l 772 128 l 773 159 m 274 157 l 281 157 q 296 141 290 157 q 292 135 292 137 l 290 135 q 276 145 284 145 q 252 127 264 145 q 246 104 246 115 l 246 101 q 262 77 246 81 q 268 77 264 77 q 289 90 289 79 l 289 97 q 281 99 286 99 l 274 99 l 274 111 q 296 104 293 111 q 298 98 298 100 q 296 79 296 81 q 299 61 296 71 q 294 58 298 61 l 293 58 q 289 73 290 58 q 269 64 285 67 l 268 64 q 239 99 242 64 l 239 102 q 269 155 239 141 l 274 157 m 587 135 q 610 109 603 135 l 610 100 q 587 66 610 77 l 583 65 q 566 79 572 65 q 565 90 565 86 l 565 93 q 578 132 565 121 q 587 135 583 135 m 640 135 q 663 71 650 135 l 662 71 q 656 68 659 68 q 640 122 646 114 q 624 68 635 117 l 623 68 l 620 68 q 614 119 616 68 l 619 121 l 621 121 q 623 98 623 110 l 623 98 q 640 135 629 135 m 330 132 q 344 119 344 130 q 345 117 345 119 q 321 93 345 102 q 311 91 317 91 l 311 90 q 322 79 311 83 l 323 79 q 338 90 330 79 l 340 90 q 345 83 340 88 l 345 83 q 325 68 335 68 l 321 68 q 302 90 308 68 l 302 100 q 320 131 302 122 q 330 132 323 132 m 734 132 l 742 132 q 758 113 753 132 q 760 101 760 102 q 758 83 760 97 q 760 68 760 81 l 755 65 l 753 65 l 751 73 q 734 66 745 66 l 732 66 q 718 79 718 68 l 718 85 q 738 106 720 106 q 752 101 746 106 l 752 103 q 740 123 752 120 l 738 123 q 726 117 734 123 l 726 117 q 722 122 725 117 l 722 123 q 734 132 728 132 m 430 131 q 437 129 431 131 q 447 79 437 79 q 466 123 460 87 q 467 131 467 127 l 467 131 q 474 129 469 131 q 472 98 472 113 l 472 90 q 475 77 472 84 q 472 70 472 73 l 471 70 q 465 87 466 73 l 464 87 q 451 68 461 77 l 445 68 q 431 119 431 68 l 431 125 l 430 131 m 572 93 q 582 77 573 77 l 583 77 q 601 94 593 77 q 603 102 603 100 q 588 123 599 123 l 585 123 q 572 93 575 123 m 310 102 q 336 117 326 102 q 329 121 335 121 l 327 121 q 310 102 314 121 m 724 83 q 732 77 726 77 l 736 77 q 751 90 745 77 q 739 95 745 95 l 738 95 q 724 83 724 93 m 344 31 q 355 28 345 31 q 352 -35 353 2 q 359 -81 352 -58 q 351 -88 351 -88 l 350 -88 q 346 -79 348 -88 l 345 -79 q 330 -90 345 -85 q 298 -62 308 -90 q 296 -43 296 -54 q 319 -3 296 -10 l 322 -3 q 342 -14 332 -3 l 342 -14 q 344 31 342 -8 m 214 26 l 224 23 q 223 -1 223 7 l 223 -11 q 233 -9 232 -9 q 235 -25 235 -22 l 233 -25 q 223 -26 227 -26 q 227 -87 225 -68 q 215 -89 218 -89 l 215 -88 q 212 -28 212 -47 l 210 -27 l 201 -27 l 201 -11 l 211 -11 l 211 -5 q 214 26 211 26 m 457 26 l 458 26 l 468 23 q 467 -7 467 4 l 467 -11 q 477 -9 476 -9 l 478 -18 l 478 -25 q 467 -26 467 -26 q 471 -87 467 -42 q 459 -89 462 -89 l 459 -88 q 456 -27 456 -37 l 444 -27 l 444 -11 l 455 -11 q 457 26 455 12 m 370 24 q 378 15 376 24 l 378 14 q 372 3 378 7 l 368 3 q 362 15 362 7 q 370 24 363 24 m 412 -3 q 439 -29 429 -3 q 441 -41 441 -37 l 441 -47 q 414 -87 441 -74 q 406 -89 412 -89 q 384 -61 387 -89 l 384 -52 q 404 -5 384 -17 q 412 -3 411 -3 m 543 -3 l 546 -3 q 553 -5 553 -3 l 553 -7 q 566 -3 559 -3 q 589 -33 583 -3 q 589 -43 589 -41 q 568 -86 587 -78 l 563 -87 l 556 -87 l 557 -92 q 557 -119 557 -96 l 546 -119 q 543 -3 543 -30 m 621 -3 q 647 -27 636 -3 q 650 -43 650 -36 q 624 -87 650 -73 q 614 -89 618 -89 q 593 -71 600 -89 q 592 -55 592 -62 q 612 -5 592 -18 q 621 -3 620 -3 m 758 -3 q 784 -27 774 -3 q 787 -40 787 -33 l 787 -45 q 760 -87 787 -75 q 751 -89 758 -89 q 730 -61 732 -89 l 730 -52 q 750 -5 730 -17 q 758 -3 757 -3 m 821 -3 q 840 -43 833 -3 l 840 -43 q 859 -3 846 -3 l 859 -3 q 886 -83 876 -3 l 885 -83 q 876 -87 878 -87 l 876 -87 q 859 -20 863 -20 q 847 -76 852 -35 q 840 -83 845 -83 q 833 -73 835 -83 q 820 -21 824 -21 q 809 -84 809 -60 q 798 -87 802 -87 l 798 -86 l 789 -16 q 801 -12 798 -12 q 804 -33 802 -17 l 805 -33 q 821 -3 811 -3 m 175 -4 q 191 -18 191 -7 l 191 -19 q 183 -25 191 -20 l 181 -25 q 172 -20 181 -20 l 172 -20 q 158 -26 163 -20 l 158 -29 q 179 -33 158 -33 q 197 -59 197 -41 l 197 -62 q 182 -88 197 -81 q 176 -90 179 -90 l 170 -90 q 143 -73 154 -90 q 151 -62 143 -70 l 153 -62 q 173 -75 158 -75 q 185 -61 185 -75 q 171 -49 185 -51 q 149 -41 153 -49 q 146 -33 146 -35 l 146 -27 q 175 -4 146 -4 m 484 -5 q 494 -7 492 -7 q 493 -31 493 -23 l 493 -35 q 501 -64 493 -57 l 505 -64 q 519 -16 519 -52 l 519 -9 l 531 -9 l 531 -9 q 536 -79 536 -70 l 536 -86 q 517 -127 536 -116 q 507 -130 511 -130 q 487 -116 492 -130 q 486 -110 486 -113 l 486 -104 q 488 -94 486 -94 l 498 -98 l 497 -104 l 497 -106 q 505 -113 497 -112 l 507 -113 q 524 -91 521 -113 q 525 -83 525 -88 l 525 -69 l 524 -60 l 524 -60 q 504 -81 517 -81 l 503 -81 q 482 -47 487 -81 q 481 -33 481 -41 l 481 -27 q 484 -5 481 -5 m 701 -5 l 706 -5 q 716 -12 710 -5 q 724 -24 724 -20 q 715 -33 716 -33 l 715 -33 q 703 -22 708 -22 l 702 -22 q 690 -41 694 -26 l 687 -56 q 696 -72 687 -71 l 699 -72 q 722 -61 706 -72 l 722 -61 q 726 -76 726 -75 q 694 -88 709 -88 q 675 -57 679 -88 q 688 -14 675 -34 q 701 -5 696 -5 m 364 -7 l 372 -7 l 376 -7 q 376 -13 376 -9 q 378 -87 376 -58 l 366 -87 l 366 -81 q 364 -7 364 -35 m 237 -7 q 249 -12 249 -11 l 249 -25 q 257 -71 249 -71 l 260 -71 q 277 -33 272 -58 q 281 -7 280 -26 l 282 -7 q 292 -12 292 -9 q 290 -52 290 -40 l 290 -58 q 294 -72 290 -65 q 287 -84 294 -76 l 287 -84 q 279 -67 279 -76 l 278 -67 q 259 -87 271 -87 l 257 -87 q 237 -24 237 -87 l 237 -7 m 308 -45 q 328 -73 308 -68 l 330 -73 q 340 -55 338 -73 l 340 -53 q 326 -20 340 -28 l 322 -20 l 321 -20 q 308 -43 309 -20 l 308 -45 m 395 -56 q 406 -73 395 -71 l 408 -73 q 428 -53 418 -73 q 429 -47 429 -50 l 429 -41 q 413 -20 425 -20 l 412 -20 q 395 -56 397 -20 m 553 -25 q 555 -71 553 -27 l 560 -71 q 578 -43 575 -71 q 566 -20 576 -20 l 566 -20 q 553 -25 559 -20 m 604 -56 l 604 -59 q 614 -73 604 -71 l 615 -73 q 635 -55 626 -73 q 638 -43 638 -50 q 619 -20 634 -20 q 604 -56 606 -20 m 741 -56 q 752 -73 741 -73 l 754 -73 q 774 -52 764 -73 q 775 -45 775 -48 l 775 -41 q 758 -20 770 -20 l 758 -20 q 741 -56 744 -20 m 663 -65 q 671 -75 669 -65 l 671 -78 q 663 -87 669 -87 q 655 -77 656 -87 q 663 -65 656 -65 m 486 928 l 486 764 l 309 764 q 239 738 273 764 l 239 745 q 486 928 339 928 m 543 928 l 549 928 q 739 827 639 928 q 777 764 777 781 l 543 764 l 543 928 m 290 707 l 486 707 l 486 643 q 435 656 463 656 l 290 656 q 277 669 277 656 l 277 694 q 290 707 279 707 m 543 707 l 802 707 l 808 643 l 808 631 q 720 429 808 505 l 606 429 q 543 492 543 437 l 543 707 m 220 656 l 227 656 q 321 599 227 607 l 441 599 q 486 555 486 599 l 486 485 q 416 429 486 429 l 309 429 q 220 618 220 510 l 220 656 m 511 410 l 517 410 q 644 372 559 372 l 644 365 q 517 340 571 340 l 511 340 q 385 365 457 340 l 385 372 q 511 410 474 372 z "},"/":{"ha":766,"x_min":7,"x_max":759,"o":"m 759 1086 l 279 0 l 7 0 l 486 1086 l 759 1086 z "},":":{"ha":408,"x_min":54,"x_max":353,"o":"m 54 299 l 353 299 l 353 0 l 54 0 l 54 299 m 54 922 l 353 922 l 353 623 l 54 623 l 54 922 z "},";":{"ha":404,"x_min":9,"x_max":382,"o":"m 75 299 l 382 299 l 256 -136 l 9 -136 l 75 299 m 54 922 l 353 922 l 353 623 l 54 623 l 54 922 z "},"<":{"ha":854,"x_min":54,"x_max":800,"o":"m 800 34 l 54 379 l 54 602 l 800 947 l 800 654 l 448 490 l 800 327 l 800 34 z "},"=":{"ha":778,"x_min":41,"x_max":737,"o":"m 737 836 l 737 577 l 41 577 l 41 836 l 737 836 m 737 450 l 737 191 l 41 191 l 41 450 l 737 450 z "},">":{"ha":854,"x_min":54,"x_max":800,"o":"m 54 327 l 406 490 l 54 654 l 54 947 l 800 602 l 800 379 l 54 34 l 54 327 z "},"?":{"ha":1194,"x_min":54,"x_max":1139,"o":"m 659 413 q 625 397 642 413 q 602 336 602 373 l 602 314 l 302 314 l 302 336 q 400 566 302 469 q 659 671 506 671 l 783 671 q 817 687 800 671 q 840 749 840 711 q 817 811 840 787 q 783 827 800 827 l 54 827 l 54 1085 l 783 1085 q 1042 979 937 1085 q 1139 749 1139 882 q 1042 519 1139 616 q 783 413 937 413 l 659 413 m 304 224 l 603 224 l 603 0 l 304 0 l 304 224 z "},"@":{"ha":1453,"x_min":41,"x_max":1413,"o":"m 814 634 q 802 667 814 654 q 775 677 792 676 l 616 677 q 589 666 601 676 q 572 633 572 652 l 571 446 q 587 405 571 420 q 599 398 593 398 l 781 398 l 781 208 l 599 208 q 409 285 486 208 q 340 452 340 353 l 341 452 l 342 635 q 422 797 343 729 q 616 867 503 867 l 781 867 q 981 786 906 863 q 1046 629 1046 721 l 1045 628 l 1045 327 q 1057 288 1046 300 q 1068 283 1062 283 q 1135 331 1101 283 q 1181 504 1181 398 l 1181 504 l 1181 519 q 1050 840 1181 706 q 722 975 919 975 l 720 975 q 452 906 562 975 q 309 736 354 844 q 273 545 272 648 q 315 347 275 443 q 467 144 366 220 q 720 62 577 62 q 784 65 754 62 q 846 77 814 69 l 954 106 l 1027 -75 l 916 -104 q 819 -123 869 -117 q 720 -129 768 -129 q 326 -8 496 -129 q 96 286 171 102 q 43 543 45 409 q 91 798 41 680 q 312 1061 161 966 q 720 1166 479 1166 l 722 1166 q 1230 959 1029 1164 q 1413 519 1413 772 l 1413 504 l 1412 504 q 1334 237 1411 348 q 1068 94 1235 93 q 879 168 952 94 q 814 296 826 216 l 814 452 l 814 634 z "},"A":{"ha":1291,"x_min":7,"x_max":1284,"o":"m 754 252 l 884 0 l 7 0 l 547 1086 l 743 1086 l 1284 0 l 958 0 l 646 648 l 453 252 l 754 252 z "},"B":{"ha":1179,"x_min":68,"x_max":1173,"o":"m 512 672 l 763 672 q 796 688 780 672 q 820 750 820 712 q 796 812 820 787 q 763 827 780 827 l 367 827 l 367 0 l 68 0 l 68 1086 l 763 1086 q 987 1021 895 1086 q 1102 861 1072 960 q 1099 671 1131 766 q 1050 563 1066 573 q 1126 448 1078 551 q 1149 249 1173 353 q 1039 74 1126 141 q 804 0 945 0 l 381 0 l 512 258 l 804 258 q 838 274 821 258 q 861 336 861 298 q 838 398 861 374 q 804 414 821 414 l 383 414 l 512 672 z "},"C":{"ha":1193,"x_min":54,"x_max":1179,"o":"m 717 258 l 1179 258 l 1048 0 l 618 0 q 212 167 378 0 q 54 543 54 325 q 213 920 54 762 q 618 1086 379 1086 l 1173 1086 l 1066 827 l 717 827 l 618 827 q 438 751 515 827 q 353 543 353 666 q 438 336 353 420 q 618 258 515 258 l 717 258 z "},"D":{"ha":1208,"x_min":54,"x_max":1181,"o":"m 353 827 l 353 0 l 54 0 l 54 1086 l 618 1086 q 1023 919 857 1086 q 1181 543 1181 762 q 1023 167 1181 325 q 618 0 857 0 l 368 0 l 498 258 l 618 258 q 796 335 720 258 q 882 543 882 420 q 797 751 882 666 q 618 827 720 827 l 353 827 z "},"E":{"ha":1062,"x_min":54,"x_max":1048,"o":"m 353 827 l 353 0 l 54 0 l 54 1086 l 1048 1086 l 941 827 l 353 827 m 475 672 l 1048 672 l 941 414 l 374 414 l 475 672 m 1041 258 l 934 0 l 368 0 l 498 258 l 1041 258 z "},"F":{"ha":939,"x_min":54,"x_max":932,"o":"m 396 414 l 396 672 l 905 672 l 774 414 l 396 414 m 353 827 l 353 0 l 54 0 l 54 1086 l 932 1086 l 825 827 l 353 827 z "},"G":{"ha":1246,"x_min":34,"x_max":1192,"o":"m 696 258 l 893 258 l 893 591 l 1192 690 l 1192 0 l 597 0 q 193 167 359 0 q 34 543 34 325 q 193 920 34 762 q 597 1086 359 1086 l 1187 1086 l 1080 827 l 696 827 l 597 827 q 418 751 495 827 q 333 543 333 666 q 418 336 333 420 q 597 258 495 258 l 696 258 z "},"H":{"ha":1177,"x_min":54,"x_max":1123,"o":"m 353 0 l 54 0 l 54 1086 l 353 1086 l 353 0 m 366 414 l 494 672 l 824 672 l 824 1086 l 1123 1086 l 1123 0 l 824 0 l 824 414 l 366 414 z "},"I":{"ha":503,"x_min":102,"x_max":401,"o":"m 401 0 l 102 0 l 102 1086 l 401 1086 l 401 0 z "},"J":{"ha":813,"x_min":6,"x_max":745,"o":"m 389 272 q 422 288 406 272 q 446 350 446 312 l 446 1086 l 745 1086 l 745 336 q 648 106 745 203 q 389 0 543 0 l 6 0 l 131 272 l 389 272 z "},"K":{"ha":1140,"x_min":75,"x_max":1140,"o":"m 374 1084 l 376 1084 l 376 754 l 688 1086 l 1077 1086 l 595 593 l 1140 0 l 761 0 l 376 401 l 376 0 l 75 0 l 75 1086 l 374 1086 l 374 1084 z "},"L":{"ha":1054,"x_min":75,"x_max":1041,"o":"m 1041 258 l 934 0 l 388 0 l 519 258 l 1041 258 m 75 0 l 75 1086 l 374 1086 l 374 0 l 75 0 z "},"M":{"ha":1362,"x_min":75,"x_max":1288,"o":"m 999 468 l 682 -1 l 363 468 l 363 0 l 75 0 l 75 1086 l 296 1086 l 681 472 l 1066 1086 l 1288 1086 l 1288 0 l 999 0 l 999 468 z "},"N":{"ha":1187,"x_min":75,"x_max":1112,"o":"m 357 576 l 357 0 l 75 0 l 75 1086 l 292 1086 l 830 440 l 830 1086 l 1112 1086 l 1112 0 l 849 0 l 357 576 z "},"O":{"ha":1329,"x_min":34,"x_max":1295,"o":"m 665 -20 q 193 146 359 -20 q 35 496 35 304 l 34 496 q 193 947 34 789 q 665 1113 359 1113 q 1137 946 970 1113 q 1295 543 1295 789 q 1137 146 1295 304 q 665 -20 970 -20 m 665 238 q 911 315 833 238 q 996 543 996 399 q 911 779 996 693 q 665 854 834 854 q 418 778 495 854 q 333 543 333 693 q 418 315 333 400 q 665 238 495 238 z "},"P":{"ha":1185,"x_min":68,"x_max":1152,"o":"m 367 0 l 68 0 l 68 1086 l 766 1086 q 1045 971 931 1086 q 1152 699 1152 862 q 1045 428 1152 537 q 766 313 931 313 l 379 313 l 508 572 l 766 572 q 820 596 795 572 q 852 699 852 636 q 820 803 852 763 q 766 827 795 827 l 367 827 l 367 0 z "},"Q":{"ha":1329,"x_min":34,"x_max":1295,"o":"m 193 146 q 35 496 35 304 l 34 496 q 193 940 34 782 q 665 1106 359 1106 q 1137 939 970 1106 q 1295 543 1295 782 q 1137 146 1295 304 q 983 38 1053 62 l 1088 -199 l 803 -199 l 549 373 l 833 373 l 875 281 q 911 315 879 283 q 996 543 996 399 q 911 772 996 686 q 665 848 834 848 q 418 771 495 848 q 333 543 333 686 q 418 315 333 400 q 600 242 467 266 l 484 -2 q 193 146 297 41 z "},"R":{"ha":1256,"x_min":68,"x_max":1256,"o":"m 576 354 l 379 354 l 508 612 l 806 612 q 861 637 836 612 q 893 720 893 670 q 861 803 893 770 q 806 827 836 827 l 367 827 l 367 0 l 68 0 l 68 1086 l 806 1086 q 1086 971 972 1086 q 1192 720 1192 865 q 1086 469 1192 574 q 940 366 989 371 l 1256 0 l 883 0 l 576 354 z "},"S":{"ha":1054,"x_min":7,"x_max":1047,"o":"m 1042 1086 l 935 827 l 412 827 q 372 812 386 827 q 357 770 357 798 q 427 709 357 734 q 612 659 484 688 q 837 586 740 629 q 1044 290 1047 492 q 925 68 1041 150 q 691 0 827 0 l 7 0 l 114 258 l 691 258 q 734 269 721 258 q 745 293 745 275 q 698 357 746 336 q 487 416 639 384 q 239 496 335 449 q 59 770 60 581 q 170 1004 59 914 q 412 1086 270 1086 l 1042 1086 z "},"T":{"ha":1139,"x_min":7,"x_max":1132,"o":"m 719 828 l 719 0 l 420 0 l 420 828 l 7 828 l 114 1086 l 1132 1086 l 1025 828 l 719 828 z "},"U":{"ha":1108,"x_min":61,"x_max":1047,"o":"m 61 1086 l 360 1086 l 360 452 q 425 294 360 358 q 554 238 481 238 q 684 294 627 238 q 748 452 748 358 l 748 1086 l 1047 1086 l 1047 452 q 910 125 1047 263 q 554 -20 764 -20 q 198 125 345 -20 q 61 452 61 263 l 61 1086 z "},"V":{"ha":1132,"x_min":7,"x_max":1125,"o":"m 325 1086 l 566 510 l 807 1086 l 1125 1086 l 672 0 l 460 0 l 7 1086 l 325 1086 z "},"W":{"ha":1537,"x_min":7,"x_max":1530,"o":"m 800 308 l 938 705 l 1011 521 l 1213 1086 l 1530 1086 l 1120 0 l 906 0 l 800 308 m 998 1073 l 630 0 l 416 0 l 7 1086 l 323 1086 l 521 538 l 702 1073 l 998 1073 z "},"X":{"ha":1143,"x_min":7,"x_max":1136,"o":"m 784 1086 l 1136 1086 l 747 543 l 1136 0 l 784 0 l 571 297 l 359 0 l 7 0 l 395 543 l 7 1086 l 359 1086 l 571 789 l 784 1086 z "},"Y":{"ha":1078,"x_min":7,"x_max":1072,"o":"m 741 1086 l 1072 1086 l 689 381 l 689 0 l 389 0 l 389 381 l 7 1086 l 337 1086 l 539 713 l 741 1086 z "},"Z":{"ha":1054,"x_min":7,"x_max":1047,"o":"m 7 827 l 114 1086 l 927 1086 l 1028 929 l 471 258 l 1047 258 l 940 0 l 120 0 l 19 157 l 576 827 l 7 827 z "},"[":{"ha":629,"x_min":54,"x_max":575,"o":"m 353 827 l 353 258 l 575 258 l 575 0 l 54 0 l 54 1086 l 575 1086 l 575 827 l 353 827 z "},"\\":{"ha":690,"x_min":7,"x_max":683,"o":"m 277 1086 l 683 0 l 412 0 l 7 1086 l 277 1086 z "},"]":{"ha":629,"x_min":54,"x_max":575,"o":"m 54 827 l 54 1086 l 575 1086 l 575 0 l 54 0 l 54 258 l 276 258 l 276 827 l 54 827 z "},"^":{"ha":861,"x_min":7,"x_max":854,"o":"m 549 325 l 431 616 l 312 325 l 7 325 l 325 1086 l 536 1086 l 854 325 l 549 325 z "},"_":{"ha":1078,"x_min":-12,"x_max":1092,"o":"m 1092 -1 l 1092 -259 l -12 -259 l -12 -1 l 1092 -1 z "},"`":{"ha":425,"x_min":7,"x_max":418,"o":"m 418 862 l 201 862 l 7 1132 l 272 1132 l 418 862 z "},"a":{"ha":1291,"x_min":7,"x_max":1284,"o":"m 754 252 l 884 0 l 7 0 l 547 1086 l 743 1086 l 1284 0 l 958 0 l 646 648 l 453 252 l 754 252 z "},"b":{"ha":1179,"x_min":68,"x_max":1173,"o":"m 512 672 l 763 672 q 796 688 780 672 q 820 750 820 712 q 796 812 820 787 q 763 827 780 827 l 367 827 l 367 0 l 68 0 l 68 1086 l 763 1086 q 987 1021 895 1086 q 1102 861 1072 960 q 1099 671 1131 766 q 1050 563 1066 573 q 1126 448 1078 551 q 1149 249 1173 353 q 1039 74 1126 141 q 804 0 945 0 l 381 0 l 512 258 l 804 258 q 838 274 821 258 q 861 336 861 298 q 838 398 861 374 q 804 414 821 414 l 383 414 l 512 672 z "},"c":{"ha":1193,"x_min":54,"x_max":1179,"o":"m 717 258 l 1179 258 l 1048 0 l 618 0 q 212 167 378 0 q 54 543 54 325 q 213 920 54 762 q 618 1086 379 1086 l 1173 1086 l 1066 827 l 717 827 l 618 827 q 438 751 515 827 q 353 543 353 666 q 438 336 353 420 q 618 258 515 258 l 717 258 z "},"d":{"ha":1208,"x_min":54,"x_max":1181,"o":"m 353 827 l 353 0 l 54 0 l 54 1086 l 618 1086 q 1023 919 857 1086 q 1181 543 1181 762 q 1023 167 1181 325 q 618 0 857 0 l 368 0 l 498 258 l 618 258 q 796 335 720 258 q 882 543 882 420 q 797 751 882 666 q 618 827 720 827 l 353 827 z "},"e":{"ha":1062,"x_min":54,"x_max":1048,"o":"m 353 827 l 353 0 l 54 0 l 54 1086 l 1048 1086 l 941 827 l 353 827 m 475 672 l 1048 672 l 941 414 l 374 414 l 475 672 m 1041 258 l 934 0 l 368 0 l 498 258 l 1041 258 z "},"f":{"ha":939,"x_min":54,"x_max":932,"o":"m 396 414 l 396 672 l 905 672 l 774 414 l 396 414 m 353 827 l 353 0 l 54 0 l 54 1086 l 932 1086 l 825 827 l 353 827 z "},"g":{"ha":1246,"x_min":34,"x_max":1192,"o":"m 696 258 l 893 258 l 893 591 l 1192 690 l 1192 0 l 597 0 q 193 167 359 0 q 34 543 34 325 q 193 920 34 762 q 597 1086 359 1086 l 1187 1086 l 1080 827 l 696 827 l 597 827 q 418 751 495 827 q 333 543 333 666 q 418 336 333 420 q 597 258 495 258 l 696 258 z "},"h":{"ha":1177,"x_min":54,"x_max":1123,"o":"m 353 0 l 54 0 l 54 1086 l 353 1086 l 353 0 m 366 414 l 494 672 l 824 672 l 824 1086 l 1123 1086 l 1123 0 l 824 0 l 824 414 l 366 414 z "},"i":{"ha":503,"x_min":102,"x_max":401,"o":"m 401 0 l 102 0 l 102 1086 l 401 1086 l 401 0 z "},"j":{"ha":813,"x_min":6,"x_max":745,"o":"m 389 272 q 422 288 406 272 q 446 350 446 312 l 446 1086 l 745 1086 l 745 336 q 648 106 745 203 q 389 0 543 0 l 6 0 l 131 272 l 389 272 z "},"k":{"ha":1140,"x_min":75,"x_max":1140,"o":"m 374 1084 l 376 1084 l 376 754 l 688 1086 l 1077 1086 l 595 593 l 1140 0 l 761 0 l 376 401 l 376 0 l 75 0 l 75 1086 l 374 1086 l 374 1084 z "},"l":{"ha":1054,"x_min":75,"x_max":1041,"o":"m 1041 258 l 934 0 l 388 0 l 519 258 l 1041 258 m 75 0 l 75 1086 l 374 1086 l 374 0 l 75 0 z "},"m":{"ha":1362,"x_min":75,"x_max":1288,"o":"m 992 461 l 682 -7 l 370 461 l 370 0 l 75 0 l 75 1086 l 296 1086 l 681 506 l 1066 1086 l 1288 1086 l 1288 0 l 992 0 l 992 461 z "},"n":{"ha":1187,"x_min":75,"x_max":1112,"o":"m 370 549 l 370 0 l 75 0 l 75 1086 l 298 1086 l 817 467 l 817 1086 l 1112 1086 l 1112 0 l 842 0 l 370 549 z "},"o":{"ha":1329,"x_min":34,"x_max":1295,"o":"m 665 -20 q 193 146 359 -20 q 35 496 35 304 l 34 496 q 193 947 34 789 q 665 1113 359 1113 q 1137 946 970 1113 q 1295 543 1295 789 q 1137 146 1295 304 q 665 -20 970 -20 m 665 238 q 911 315 833 238 q 996 543 996 399 q 911 779 996 693 q 665 854 834 854 q 418 778 495 854 q 333 543 333 693 q 418 315 333 400 q 665 238 495 238 z "},"p":{"ha":1185,"x_min":68,"x_max":1152,"o":"m 367 0 l 68 0 l 68 1086 l 766 1086 q 1045 971 931 1086 q 1152 720 1152 865 q 1045 469 1152 574 q 766 354 931 354 l 379 354 l 508 612 l 766 612 q 820 637 795 612 q 852 720 852 670 q 820 803 852 770 q 766 827 795 827 l 367 827 l 367 0 z "},"q":{"ha":1329,"x_min":34,"x_max":1295,"o":"m 193 146 q 35 496 35 304 l 34 496 q 193 940 34 782 q 665 1106 359 1106 q 1137 939 970 1106 q 1295 543 1295 782 q 1137 146 1295 304 q 983 38 1053 62 l 1088 -199 l 803 -199 l 549 373 l 833 373 l 875 281 q 911 315 879 283 q 996 543 996 399 q 911 772 996 686 q 665 848 834 848 q 418 771 495 848 q 333 543 333 686 q 418 315 333 400 q 600 242 467 266 l 484 -2 q 193 146 297 41 z "},"r":{"ha":1256,"x_min":68,"x_max":1256,"o":"m 576 354 l 379 354 l 508 612 l 806 612 q 861 637 836 612 q 893 720 893 670 q 861 803 893 770 q 806 827 836 827 l 367 827 l 367 0 l 68 0 l 68 1086 l 806 1086 q 1086 971 972 1086 q 1192 720 1192 865 q 1086 469 1192 574 q 940 366 989 371 l 1256 0 l 883 0 l 576 354 z "},"s":{"ha":1054,"x_min":7,"x_max":1047,"o":"m 1042 1086 l 935 827 l 412 827 q 372 812 386 827 q 357 770 357 798 q 427 709 357 734 q 612 659 484 688 q 837 586 740 629 q 1044 290 1047 492 q 925 68 1041 150 q 691 0 827 0 l 7 0 l 114 258 l 691 258 q 734 269 721 258 q 745 293 745 275 q 698 357 746 336 q 487 416 639 384 q 239 496 335 449 q 59 770 60 581 q 170 1004 59 914 q 412 1086 270 1086 l 1042 1086 z "},"t":{"ha":1139,"x_min":7,"x_max":1132,"o":"m 719 828 l 719 0 l 420 0 l 420 828 l 7 828 l 114 1086 l 1132 1086 l 1025 828 l 719 828 z "},"u":{"ha":1108,"x_min":61,"x_max":1047,"o":"m 61 1086 l 360 1086 l 360 452 q 425 294 360 358 q 554 238 481 238 q 684 294 627 238 q 748 452 748 358 l 748 1086 l 1047 1086 l 1047 452 q 910 125 1047 263 q 554 -20 764 -20 q 198 125 345 -20 q 61 452 61 263 l 61 1086 z "},"v":{"ha":1132,"x_min":7,"x_max":1125,"o":"m 325 1086 l 566 510 l 807 1086 l 1125 1086 l 672 0 l 460 0 l 7 1086 l 325 1086 z "},"w":{"ha":1537,"x_min":7,"x_max":1530,"o":"m 800 308 l 938 705 l 1011 521 l 1213 1086 l 1530 1086 l 1120 0 l 906 0 l 800 308 m 998 1073 l 630 0 l 416 0 l 7 1086 l 323 1086 l 521 538 l 702 1073 l 998 1073 z "},"x":{"ha":1143,"x_min":7,"x_max":1136,"o":"m 784 1086 l 1136 1086 l 747 543 l 1136 0 l 784 0 l 571 297 l 359 0 l 7 0 l 395 543 l 7 1086 l 359 1086 l 571 789 l 784 1086 z "},"y":{"ha":1078,"x_min":7,"x_max":1072,"o":"m 741 1086 l 1072 1086 l 689 381 l 689 0 l 389 0 l 389 381 l 7 1086 l 337 1086 l 539 713 l 741 1086 z "},"z":{"ha":1054,"x_min":7,"x_max":1047,"o":"m 7 827 l 114 1086 l 927 1086 l 1028 929 l 471 258 l 1047 258 l 940 0 l 120 0 l 19 157 l 576 827 l 7 827 z "},"{":{"ha":546,"x_min":54,"x_max":519,"o":"m 394 861 q 384 858 387 861 q 372 827 372 846 q 376 740 372 793 q 378 689 378 716 q 374 641 378 661 q 323 543 366 586 q 374 445 366 499 q 378 390 378 425 q 376 332 378 362 q 372 258 372 292 q 384 228 372 239 q 394 224 387 224 l 519 224 l 519 -14 l 326 -14 q 164 51 229 -14 q 107 184 107 107 q 111 333 107 213 q 113 369 113 353 q 108 416 113 401 q 54 479 98 452 l 54 607 q 108 669 98 634 q 113 716 113 684 q 111 753 113 732 q 107 902 107 873 q 164 1034 107 978 q 326 1099 229 1099 l 519 1099 l 519 861 l 394 861 z "},"|":{"ha":353,"x_min":54,"x_max":353,"o":"m 54 1086 l 353 1086 l 353 0 l 54 0 l 54 1086 z "},"}":{"ha":546,"x_min":27,"x_max":492,"o":"m 27 861 l 27 1099 l 220 1099 q 382 1034 317 1099 q 439 902 439 978 q 435 753 439 873 q 433 716 433 732 q 438 669 433 684 q 492 607 448 634 l 492 479 q 438 416 448 452 q 433 369 433 401 q 435 333 433 353 q 439 184 439 213 q 382 51 439 107 q 220 -14 317 -14 l 27 -14 l 27 224 l 152 224 q 162 228 159 224 q 174 258 174 239 q 170 332 174 292 q 168 390 168 362 q 172 445 168 425 q 222 543 180 499 q 172 641 180 586 q 168 689 168 661 q 170 740 168 716 q 174 827 174 793 q 162 858 174 846 q 152 861 159 861 l 27 861 z "},"~":{"ha":823,"x_min":50,"x_max":758,"o":"m 758 375 q 528 275 637 275 l 511 275 q 317 345 432 279 q 219 386 245 386 l 216 386 q 50 272 175 384 l 50 570 q 219 659 133 659 q 391 599 284 659 q 520 548 477 549 l 524 548 q 758 673 596 548 l 758 375 z "},"¡":{"ha":272,"x_min":-27,"x_max":272,"o":"m 22 414 l 222 414 l 272 181 l 272 -259 l -27 -259 l -27 181 l 22 414 m 272 528 l -27 528 l -27 827 l 272 827 l 272 528 z "},"¢":{"ha":926,"x_min":54,"x_max":926,"o":"m 777 -12 l 777 -136 l 526 -136 l 526 -12 l 502 -12 q 179 121 311 -12 q 54 415 54 245 q 179 710 54 586 q 502 842 311 842 l 526 842 l 526 1010 l 777 1010 l 777 842 l 926 842 l 926 584 l 502 584 q 404 542 447 584 q 353 416 353 490 q 404 289 353 340 q 502 247 447 247 l 926 247 l 926 -12 l 777 -12 z "},"£":{"ha":979,"x_min":54,"x_max":966,"o":"m 918 850 l 694 779 l 650 869 q 638 889 644 882 l 637 889 q 623 905 631 897 q 589 924 607 918 q 550 930 573 930 q 467 902 500 930 l 467 902 q 439 867 448 886 q 427 826 429 849 q 435 745 427 792 q 457 650 442 702 l 696 650 l 696 456 l 505 456 q 509 402 509 427 q 440 203 504 291 q 545 188 487 200 l 565 182 q 686 153 642 153 q 794 172 726 151 l 907 208 l 966 34 l 883 -6 q 677 -41 768 -43 q 473 3 586 -37 q 330 -1 409 16 q 237 -19 275 -13 q 139 -4 184 -27 l 139 -4 q 85 48 102 16 q 75 106 71 76 q 104 164 79 139 q 149 210 121 182 q 267 408 264 325 q 263 456 268 427 l 54 456 l 54 650 l 211 650 q 196 719 201 686 q 187 832 186 781 q 216 942 190 892 q 293 1035 243 992 q 550 1123 398 1123 q 686 1101 622 1123 q 798 1036 749 1078 q 842 991 823 1016 l 842 991 q 874 940 861 965 l 918 850 z "},"¤":{"ha":972,"x_min":69,"x_max":932,"o":"m 500 677 q 335 609 404 677 q 267 444 267 541 q 335 279 267 347 q 500 210 404 210 q 666 279 597 210 q 734 444 734 347 q 666 609 734 541 q 500 677 597 677 m 160 640 l 135 664 l 69 726 l 225 831 l 286 773 q 500 836 380 836 q 715 773 621 836 l 777 831 l 932 726 l 842 640 q 893 444 893 553 q 842 248 893 336 l 932 162 l 777 57 l 715 115 q 500 52 621 52 q 286 115 380 52 l 225 57 l 69 162 l 160 248 q 109 444 109 336 q 160 640 109 553 z "},"¥":{"ha":880,"x_min":7,"x_max":873,"o":"m 7 944 l 188 1019 l 440 628 l 692 1019 l 873 944 l 595 511 l 712 511 l 712 348 l 543 348 l 543 293 l 712 293 l 712 130 l 543 130 l 543 0 l 338 0 l 338 130 l 168 130 l 168 293 l 338 293 l 338 348 l 168 348 l 168 511 l 286 511 l 54 871 l 7 944 z "},"¦":{"ha":313,"x_min":54,"x_max":258,"o":"m 54 997 l 258 997 l 258 513 l 54 513 l 54 997 m 54 351 l 258 351 l 258 -133 l 54 -133 l 54 351 z "},"§":{"ha":703,"x_min":54,"x_max":649,"o":"m 258 47 q 290 -24 258 5 q 352 -49 317 -49 q 413 -24 387 -49 l 414 -24 q 445 47 445 5 q 406 117 445 92 q 318 149 382 132 q 137 222 186 185 q 54 403 54 282 q 134 580 54 505 q 54 759 54 640 q 137 938 54 863 l 137 939 q 352 1018 224 1018 q 566 939 479 1018 l 566 938 q 649 759 649 863 l 445 759 q 414 831 445 802 l 413 831 q 352 854 387 854 q 290 831 317 854 q 258 759 258 802 q 298 691 258 715 q 384 659 321 677 q 566 587 516 623 q 649 403 649 526 q 571 227 649 302 q 649 47 649 167 q 566 -132 649 -56 l 566 -132 q 352 -212 479 -212 q 137 -132 224 -212 l 137 -132 q 54 47 54 -56 l 258 47 m 341 498 q 290 475 312 495 l 290 475 q 258 403 258 446 q 292 340 258 363 q 367 309 315 323 q 413 331 393 313 l 413 332 q 445 403 445 360 q 414 467 445 444 q 341 498 391 484 z "},"¨":{"ha":541,"x_min":20,"x_max":520,"o":"m 20 1084 l 210 1084 l 210 894 l 20 894 l 20 1084 m 330 1084 l 520 1084 l 520 894 l 330 894 l 330 1084 z "},"©":{"ha":1140,"x_min":54,"x_max":1086,"o":"m 570 1031 q 935 880 784 1031 q 1086 515 1086 730 q 935 151 1086 302 q 570 0 784 0 q 205 151 357 0 q 54 515 54 302 q 205 880 54 730 q 570 1031 357 1031 m 866 810 q 570 933 743 933 q 275 810 397 933 q 153 515 153 689 q 275 221 153 342 q 570 98 397 98 q 866 221 743 98 q 987 515 987 342 q 866 810 987 689 m 528 722 q 397 669 449 722 q 353 568 353 625 l 353 433 q 397 332 353 376 q 528 279 449 279 l 741 279 l 741 443 l 557 443 l 557 558 l 741 558 l 741 722 l 528 722 z "},"«":{"ha":846,"x_min":47,"x_max":815,"o":"m 491 680 l 254 414 l 492 164 l 267 164 l 47 414 l 283 680 l 491 680 m 814 680 l 578 414 l 815 164 l 590 164 l 370 414 l 606 680 l 814 680 z "},"¬":{"ha":749,"x_min":7,"x_max":742,"o":"m 742 677 l 742 264 l 538 264 l 538 513 l 7 513 l 7 677 l 742 677 z "},"®":{"ha":1140,"x_min":54,"x_max":1086,"o":"m 534 296 l 388 296 l 388 644 q 414 704 388 678 l 414 705 q 495 736 446 736 l 618 736 q 753 638 722 736 q 760 574 760 613 q 712 464 760 497 q 761 366 761 423 l 761 296 l 615 296 l 615 407 q 612 418 615 414 l 534 418 l 534 296 m 534 619 l 534 534 l 587 534 q 616 541 610 534 q 624 574 624 547 q 616 614 624 608 q 587 619 610 619 l 534 619 m 570 1031 q 205 880 357 1031 q 54 515 54 730 q 205 151 54 302 q 570 0 357 0 q 935 151 784 0 q 1086 515 1086 302 q 935 880 1086 730 q 570 1031 784 1031 m 866 810 q 987 515 987 689 q 866 221 987 342 q 570 98 743 98 q 275 221 397 98 q 153 515 153 342 q 275 810 153 689 q 570 933 397 933 q 866 810 743 933 z "},"¯":{"ha":551,"x_min":41,"x_max":507,"o":"m 507 1112 l 507 949 l 41 949 l 41 1112 l 507 1112 z "},"°":{"ha":600,"x_min":54,"x_max":545,"o":"m 300 1013 q 473 940 401 1013 l 473 941 q 545 767 545 869 q 473 593 545 665 q 300 522 401 522 q 126 593 198 522 q 54 767 54 665 q 126 941 54 869 q 300 1013 198 1013 m 370 838 q 300 867 341 867 q 229 838 258 867 q 200 767 200 808 q 229 696 200 725 q 300 667 258 667 q 370 696 341 667 l 370 696 q 399 767 399 725 q 370 838 399 808 z "},"±":{"ha":791,"x_min":41,"x_max":751,"o":"m 294 891 l 498 891 l 498 618 l 751 618 l 751 455 l 498 455 l 498 183 l 294 183 l 294 455 l 41 455 l 41 618 l 294 618 l 294 891 m 68 0 l 68 133 l 722 133 l 722 0 l 68 0 z "},"´":{"ha":432,"x_min":7,"x_max":425,"o":"m 153 1132 l 425 1132 l 231 862 l 7 862 l 153 1132 z "},"µ":{"ha":1021,"x_min":27,"x_max":994,"o":"m 306 694 q 366 511 306 586 q 511 437 450 437 q 655 511 572 437 q 715 694 715 586 l 715 1091 l 994 1091 l 994 0 l 715 0 l 715 292 q 511 213 614 213 q 306 292 407 213 l 306 -154 l 27 -154 l 27 1091 l 306 1091 l 306 694 z "},"¶":{"ha":1032,"x_min":54,"x_max":924,"o":"m 924 990 l 924 827 l 810 827 l 810 -214 l 646 -214 l 646 828 l 589 828 l 589 -214 l 418 -214 l 418 303 l 373 303 q 135 409 224 303 q 54 641 56 502 l 54 647 q 120 866 54 774 q 365 990 208 988 l 924 990 z "},"·":{"ha":284,"x_min":54,"x_max":228,"o":"m 54 583 l 228 583 l 228 409 l 54 409 l 54 583 z "},"¸":{"ha":444,"x_min":16,"x_max":435,"o":"m 163 -68 l 435 -68 l 241 -338 l 16 -338 l 163 -68 z "},"»":{"ha":835,"x_min":33,"x_max":802,"o":"m 242 680 l 478 414 l 258 164 l 33 164 l 271 414 l 34 680 l 242 680 m 566 680 l 802 414 l 582 164 l 357 164 l 594 414 l 357 680 l 566 680 z "},"¼":{"ha":1525,"x_min":34,"x_max":1442,"o":"m 925 991 l 623 0 l 467 0 l 769 991 l 925 991 m 34 868 l 34 991 l 394 991 l 394 245 l 241 245 l 241 868 l 34 868 m 1442 0 l 1289 0 l 1289 475 l 1006 123 l 1189 123 l 1189 0 l 777 0 l 777 64 l 1324 745 l 1442 745 l 1442 0 z "},"½":{"ha":1696,"x_min":34,"x_max":1662,"o":"m 925 991 l 623 0 l 467 0 l 769 991 l 925 991 m 1118 311 q 1068 288 1090 311 q 1040 217 1040 260 q 1068 145 1040 174 q 1118 123 1090 123 l 1631 123 l 1631 0 l 1118 0 q 949 68 1017 0 q 886 217 886 132 q 949 365 886 302 q 1118 434 1017 434 l 1430 434 q 1480 456 1457 434 q 1509 528 1509 485 q 1480 600 1509 571 q 1430 622 1457 622 l 943 622 l 943 745 l 1430 745 q 1599 676 1531 745 q 1662 528 1662 614 q 1599 380 1662 443 q 1430 311 1531 311 l 1118 311 m 34 868 l 34 991 l 394 991 l 394 245 l 241 245 l 241 868 l 34 868 z "},"¾":{"ha":1795,"x_min":34,"x_max":1761,"o":"m 1239 991 l 937 0 l 782 0 l 1084 991 l 1239 991 m 34 867 l 34 991 l 547 991 q 716 922 648 991 q 779 774 779 859 q 716 625 779 688 q 709 618 713 622 q 716 610 713 614 q 779 463 779 548 q 716 314 779 377 q 547 245 648 245 l 34 245 l 34 368 l 547 368 q 597 391 574 368 q 625 463 625 419 q 597 534 625 505 q 547 557 574 557 l 75 557 l 75 680 l 547 680 q 597 702 574 680 q 625 774 625 730 q 597 845 625 817 q 547 867 574 867 l 34 867 m 1761 0 l 1607 0 l 1607 475 l 1324 123 l 1508 123 l 1508 0 l 1095 0 l 1095 64 l 1643 745 l 1761 745 l 1761 0 z "},"¿":{"ha":1044,"x_min":-41,"x_max":1044,"o":"m 439 414 q 473 429 457 414 q 497 491 497 454 l 497 513 l 796 513 l 796 491 q 699 260 796 358 q 439 155 593 155 l 315 155 q 282 140 298 155 q 258 77 258 115 q 282 16 258 40 q 315 0 298 0 l 1044 0 l 1044 -258 l 315 -258 q 57 -153 162 -258 q -41 77 -41 -56 q 57 308 -41 211 q 315 414 162 414 l 439 414 m 795 602 l 496 602 l 496 827 l 795 827 l 795 602 z "},"À":{"ha":1291,"x_min":7,"x_max":1284,"o":"m 754 252 l 884 0 l 7 0 l 547 1086 l 743 1086 l 1284 0 l 958 0 l 646 648 l 453 252 l 754 252 m 796 1121 l 578 1121 l 385 1391 l 650 1391 l 796 1121 z "},"Á":{"ha":1291,"x_min":7,"x_max":1284,"o":"m 754 252 l 884 0 l 7 0 l 547 1086 l 743 1086 l 1284 0 l 958 0 l 646 648 l 453 252 l 754 252 m 641 1391 l 913 1391 l 719 1121 l 494 1121 l 641 1391 z "},"Â":{"ha":1291,"x_min":7,"x_max":1284,"o":"m 754 252 l 884 0 l 7 0 l 547 1086 l 743 1086 l 1284 0 l 958 0 l 646 648 l 453 252 l 754 252 m 743 1112 l 645 1251 l 548 1112 l 298 1112 l 502 1390 l 789 1390 l 993 1112 l 743 1112 z "},"Ã":{"ha":1291,"x_min":7,"x_max":1284,"o":"m 754 252 l 884 0 l 7 0 l 547 1086 l 743 1086 l 1284 0 l 958 0 l 646 648 l 453 252 l 754 252 m 349 1119 l 349 1165 q 399 1282 349 1236 q 540 1337 452 1337 q 660 1310 620 1337 q 714 1251 684 1295 q 745 1232 728 1232 q 763 1238 757 1232 q 775 1270 775 1250 l 775 1320 l 942 1320 l 942 1270 q 891 1154 942 1202 q 739 1099 836 1099 q 627 1126 669 1099 q 570 1185 602 1143 q 540 1203 558 1203 q 526 1199 531 1203 q 515 1165 515 1188 l 515 1119 l 349 1119 z "},"Ä":{"ha":1291,"x_min":7,"x_max":1284,"o":"m 754 252 l 884 0 l 7 0 l 547 1086 l 743 1086 l 1284 0 l 958 0 l 646 648 l 453 252 l 754 252 m 395 1343 l 585 1343 l 585 1153 l 395 1153 l 395 1343 m 705 1343 l 895 1343 l 895 1153 l 705 1153 l 705 1343 z "},"Å":{"ha":1291,"x_min":7,"x_max":1284,"o":"m 754 252 l 884 0 l 7 0 l 547 1086 l 743 1086 l 1284 0 l 958 0 l 646 648 l 453 252 l 754 252 m 646 1409 q 755 1364 709 1409 q 801 1254 801 1318 q 755 1143 801 1190 q 646 1098 709 1098 q 535 1143 581 1098 q 490 1254 490 1190 q 535 1364 490 1318 q 646 1409 581 1409 m 688 1296 q 646 1313 669 1313 q 602 1296 621 1313 q 586 1254 586 1278 q 603 1211 586 1229 q 646 1194 621 1194 q 687 1211 669 1194 q 705 1254 705 1229 q 688 1296 705 1278 z "},"Æ":{"ha":2035,"x_min":7,"x_max":2010,"o":"m 958 0 l 646 648 l 453 252 l 754 252 l 884 0 l 7 0 l 547 1086 l 743 1086 l 1016 538 l 1016 1086 l 2009 1086 l 1902 827 l 1315 827 l 1315 0 l 958 0 m 2003 258 l 1895 0 l 1329 0 l 1460 258 l 2003 258 m 1436 672 l 2010 672 l 1903 414 l 1336 414 l 1436 672 z "},"Ç":{"ha":1193,"x_min":54,"x_max":1179,"o":"m 717 258 l 1179 258 l 1048 0 l 618 0 q 212 167 378 0 q 54 543 54 325 q 213 920 54 762 q 618 1086 379 1086 l 1173 1086 l 1066 827 l 717 827 l 618 827 q 438 751 515 827 q 353 543 353 666 q 438 336 353 420 q 618 258 515 258 l 717 258 m 656 -68 l 928 -68 l 734 -338 l 509 -338 l 656 -68 z "},"È":{"ha":1062,"x_min":54,"x_max":1048,"o":"m 353 827 l 353 0 l 54 0 l 54 1086 l 1048 1086 l 941 827 l 353 827 m 475 672 l 1048 672 l 941 414 l 374 414 l 475 672 m 1041 258 l 934 0 l 368 0 l 498 258 l 1041 258 m 702 1121 l 484 1121 l 290 1391 l 555 1391 l 702 1121 z "},"É":{"ha":1062,"x_min":54,"x_max":1048,"o":"m 353 827 l 353 0 l 54 0 l 54 1086 l 1048 1086 l 941 827 l 353 827 m 475 672 l 1048 672 l 941 414 l 374 414 l 475 672 m 1041 258 l 934 0 l 368 0 l 498 258 l 1041 258 m 547 1391 l 819 1391 l 625 1121 l 401 1121 l 547 1391 z "},"Ê":{"ha":1062,"x_min":54,"x_max":1048,"o":"m 353 827 l 353 0 l 54 0 l 54 1086 l 1048 1086 l 941 827 l 353 827 m 475 672 l 1048 672 l 941 414 l 374 414 l 475 672 m 1041 258 l 934 0 l 368 0 l 498 258 l 1041 258 m 649 1112 l 551 1251 l 454 1112 l 204 1112 l 408 1390 l 695 1390 l 899 1112 l 649 1112 z "},"Ë":{"ha":1062,"x_min":54,"x_max":1048,"o":"m 353 827 l 353 0 l 54 0 l 54 1086 l 1048 1086 l 941 827 l 353 827 m 475 672 l 1048 672 l 941 414 l 374 414 l 475 672 m 1041 258 l 934 0 l 368 0 l 498 258 l 1041 258 m 302 1343 l 492 1343 l 492 1153 l 302 1153 l 302 1343 m 612 1343 l 802 1343 l 802 1153 l 612 1153 l 612 1343 z "},"Ì":{"ha":503,"x_min":-23,"x_max":401,"o":"m 401 0 l 102 0 l 102 1086 l 401 1086 l 401 0 m 389 1121 l 171 1121 l -23 1391 l 242 1391 l 389 1121 z "},"Í":{"ha":503,"x_min":102,"x_max":530,"o":"m 401 0 l 102 0 l 102 1086 l 401 1086 l 401 0 m 258 1391 l 530 1391 l 336 1121 l 112 1121 l 258 1391 z "},"Î":{"ha":503,"x_min":-96,"x_max":599,"o":"m 401 0 l 102 0 l 102 1086 l 401 1086 l 401 0 m 349 1112 l 251 1251 l 154 1112 l -96 1112 l 108 1390 l 395 1390 l 599 1112 l 349 1112 z "},"Ï":{"ha":503,"x_min":1,"x_max":501,"o":"m 401 0 l 102 0 l 102 1086 l 401 1086 l 401 0 m 1 1343 l 191 1343 l 191 1153 l 1 1153 l 1 1343 m 311 1343 l 501 1343 l 501 1153 l 311 1153 l 311 1343 z "},"Ð":{"ha":1253,"x_min":-41,"x_max":1223,"o":"m 669 677 l 669 418 l 396 418 l 396 0 l 97 0 l 97 418 l -41 418 l -41 677 l 97 677 l 97 1086 l 661 1086 q 1065 919 899 1086 q 1223 543 1223 762 q 1066 167 1223 325 q 661 0 899 0 l 397 0 l 528 258 l 661 258 q 839 335 763 258 q 924 543 924 420 q 840 751 924 666 q 661 827 763 827 l 396 827 l 396 677 l 669 677 z "},"Ñ":{"ha":1187,"x_min":75,"x_max":1112,"o":"m 357 576 l 357 0 l 75 0 l 75 1086 l 292 1086 l 830 440 l 830 1086 l 1112 1086 l 1112 0 l 849 0 l 357 576 m 333 1119 l 333 1165 q 382 1282 333 1236 q 524 1337 436 1337 q 644 1310 604 1337 q 698 1251 668 1295 q 728 1232 712 1232 q 747 1238 741 1232 q 759 1270 759 1250 l 759 1320 l 926 1320 l 926 1270 q 875 1154 926 1202 q 722 1099 819 1099 q 610 1126 652 1099 q 554 1185 586 1143 q 524 1203 542 1203 q 510 1199 515 1203 q 499 1165 499 1188 l 499 1119 l 333 1119 z "},"Ò":{"ha":1329,"x_min":34,"x_max":1295,"o":"m 665 -20 q 193 146 359 -20 q 35 496 35 304 l 34 496 q 193 947 34 789 q 665 1113 359 1113 q 1137 946 970 1113 q 1295 543 1295 789 q 1137 146 1295 304 q 665 -20 970 -20 m 665 238 q 911 315 833 238 q 996 543 996 399 q 911 779 996 693 q 665 854 834 854 q 418 778 495 854 q 333 543 333 693 q 418 315 333 400 q 665 238 495 238 m 802 1135 l 584 1135 l 390 1404 l 655 1404 l 802 1135 z "},"Ó":{"ha":1329,"x_min":34,"x_max":1295,"o":"m 665 -20 q 193 146 359 -20 q 35 496 35 304 l 34 496 q 193 947 34 789 q 665 1113 359 1113 q 1137 946 970 1113 q 1295 543 1295 789 q 1137 146 1295 304 q 665 -20 970 -20 m 665 238 q 911 315 833 238 q 996 543 996 399 q 911 779 996 693 q 665 854 834 854 q 418 778 495 854 q 333 543 333 693 q 418 315 333 400 q 665 238 495 238 m 671 1404 l 943 1404 l 749 1135 l 525 1135 l 671 1404 z "},"Ô":{"ha":1329,"x_min":34,"x_max":1295,"o":"m 665 -20 q 193 146 359 -20 q 35 496 35 304 l 34 496 q 193 947 34 789 q 665 1113 359 1113 q 1137 946 970 1113 q 1295 543 1295 789 q 1137 146 1295 304 q 665 -20 970 -20 m 665 238 q 911 315 833 238 q 996 543 996 399 q 911 779 996 693 q 665 854 834 854 q 418 778 495 854 q 333 543 333 693 q 418 315 333 400 q 665 238 495 238 m 762 1125 l 664 1264 l 567 1125 l 317 1125 l 521 1404 l 808 1404 l 1012 1125 l 762 1125 z "},"Õ":{"ha":1329,"x_min":34,"x_max":1295,"o":"m 665 -20 q 193 146 359 -20 q 35 496 35 304 l 34 496 q 193 947 34 789 q 665 1113 359 1113 q 1137 946 970 1113 q 1295 543 1295 789 q 1137 146 1295 304 q 665 -20 970 -20 m 665 238 q 911 315 833 238 q 996 543 996 399 q 911 779 996 693 q 665 854 834 854 q 418 778 495 854 q 333 543 333 693 q 418 315 333 400 q 665 238 495 238 m 368 1146 l 368 1192 q 418 1310 368 1263 q 559 1364 471 1364 q 679 1337 639 1364 q 733 1278 703 1322 q 764 1259 747 1259 q 782 1265 776 1259 q 794 1297 794 1277 l 794 1347 l 961 1347 l 961 1297 q 910 1181 961 1230 q 758 1126 854 1126 q 646 1153 688 1126 q 589 1213 621 1170 q 559 1230 577 1230 q 545 1226 550 1230 q 534 1192 534 1215 l 534 1146 l 368 1146 z "},"Ö":{"ha":1329,"x_min":34,"x_max":1295,"o":"m 665 -20 q 193 146 359 -20 q 35 496 35 304 l 34 496 q 193 947 34 789 q 665 1113 359 1113 q 1137 946 970 1113 q 1295 543 1295 789 q 1137 146 1295 304 q 665 -20 970 -20 m 665 238 q 911 315 833 238 q 996 543 996 399 q 911 779 996 693 q 665 854 834 854 q 418 778 495 854 q 333 543 333 693 q 418 315 333 400 q 665 238 495 238 m 414 1343 l 604 1343 l 604 1153 l 414 1153 l 414 1343 m 724 1343 l 914 1343 l 914 1153 l 724 1153 l 724 1343 z "},"×":{"ha":847,"x_min":34,"x_max":813,"o":"m 34 695 l 245 907 l 438 713 l 617 892 l 800 710 l 621 531 l 813 338 l 602 127 l 410 319 l 231 140 l 48 323 l 227 502 l 34 695 z "},"Ø":{"ha":1322,"x_min":7,"x_max":1267,"o":"m 744 1267 l 1006 1210 l 945 1034 q 1109 918 1020 1006 q 1267 542 1267 760 q 1110 165 1267 323 q 705 -1 943 -1 l 593 -1 l 531 -184 l 270 -127 l 329 49 q 165 165 254 76 q 7 494 7 323 l 7 494 q 165 918 7 760 q 570 1084 332 1084 l 682 1084 l 707 1160 l 744 1267 m 681 257 l 705 257 q 884 334 806 257 q 968 542 968 418 q 884 750 968 665 q 859 779 851 782 l 681 257 m 593 826 l 570 826 q 391 749 468 826 q 306 542 306 665 q 391 334 306 419 q 416 305 424 301 l 593 826 z "},"Ù":{"ha":1108,"x_min":61,"x_max":1047,"o":"m 61 1086 l 360 1086 l 360 452 q 425 294 360 358 q 554 238 481 238 q 684 294 627 238 q 748 452 748 358 l 748 1086 l 1047 1086 l 1047 452 q 910 125 1047 263 q 554 -20 764 -20 q 198 125 345 -20 q 61 452 61 263 l 61 1086 m 691 1121 l 473 1121 l 279 1391 l 545 1391 l 691 1121 z "},"Ú":{"ha":1108,"x_min":61,"x_max":1047,"o":"m 61 1086 l 360 1086 l 360 452 q 425 294 360 358 q 554 238 481 238 q 684 294 627 238 q 748 452 748 358 l 748 1086 l 1047 1086 l 1047 452 q 910 125 1047 263 q 554 -20 764 -20 q 198 125 345 -20 q 61 452 61 263 l 61 1086 m 561 1391 l 833 1391 l 639 1121 l 414 1121 l 561 1391 z "},"Û":{"ha":1108,"x_min":61,"x_max":1047,"o":"m 61 1086 l 360 1086 l 360 452 q 425 294 360 358 q 554 238 481 238 q 684 294 627 238 q 748 452 748 358 l 748 1086 l 1047 1086 l 1047 452 q 910 125 1047 263 q 554 -20 764 -20 q 198 125 345 -20 q 61 452 61 263 l 61 1086 m 652 1112 l 554 1251 l 457 1112 l 207 1112 l 411 1390 l 698 1390 l 902 1112 l 652 1112 z "},"Ü":{"ha":1108,"x_min":61,"x_max":1047,"o":"m 61 1086 l 360 1086 l 360 452 q 425 294 360 358 q 554 238 481 238 q 684 294 627 238 q 748 452 748 358 l 748 1086 l 1047 1086 l 1047 452 q 910 125 1047 263 q 554 -20 764 -20 q 198 125 345 -20 q 61 452 61 263 l 61 1086 m 304 1343 l 494 1343 l 494 1153 l 304 1153 l 304 1343 m 614 1343 l 804 1343 l 804 1153 l 614 1153 l 614 1343 z "},"Ý":{"ha":1078,"x_min":7,"x_max":1072,"o":"m 741 1086 l 1072 1086 l 689 381 l 689 0 l 389 0 l 389 381 l 7 1086 l 337 1086 l 539 713 l 741 1086 m 546 1391 l 818 1391 l 624 1121 l 399 1121 l 546 1391 z "},"Þ":{"ha":1013,"x_min":68,"x_max":979,"o":"m 367 878 l 633 878 q 842 817 753 878 q 957 665 920 760 q 979 538 979 604 q 957 411 979 471 q 842 258 920 315 q 633 197 753 197 l 367 197 l 367 0 l 68 0 l 68 1086 l 367 1086 l 367 878 m 367 455 l 633 455 q 672 491 659 455 q 680 538 680 513 q 672 584 680 563 q 633 620 659 620 l 367 620 l 367 455 z "},"ß":{"ha":1168,"x_min":68,"x_max":1135,"o":"m 907 608 q 915 602 912 604 q 1056 488 1013 539 q 1135 252 1135 394 q 1051 63 1135 137 q 783 -14 964 -14 q 510 43 596 -14 q 407 227 407 113 l 407 369 l 707 369 l 707 246 q 776 211 709 212 q 863 243 854 211 l 863 252 q 833 340 863 307 q 763 395 814 362 l 746 406 q 656 496 694 440 l 656 497 q 627 592 630 535 q 655 707 624 652 q 728 795 681 754 q 726 837 744 816 q 700 842 720 842 l 433 842 q 367 791 368 842 l 367 0 l 68 0 l 68 811 q 178 1022 68 939 q 426 1100 277 1096 l 674 1100 q 909 1021 817 1099 q 1005 810 1005 939 l 1005 807 q 982 703 1004 751 q 913 613 958 652 q 907 608 910 610 z "},"à":{"ha":1291,"x_min":7,"x_max":1284,"o":"m 754 252 l 884 0 l 7 0 l 547 1086 l 743 1086 l 1284 0 l 958 0 l 646 648 l 453 252 l 754 252 m 796 1121 l 578 1121 l 385 1391 l 650 1391 l 796 1121 z "},"á":{"ha":1291,"x_min":7,"x_max":1284,"o":"m 754 252 l 884 0 l 7 0 l 547 1086 l 743 1086 l 1284 0 l 958 0 l 646 648 l 453 252 l 754 252 m 641 1391 l 913 1391 l 719 1121 l 494 1121 l 641 1391 z "},"â":{"ha":1291,"x_min":7,"x_max":1284,"o":"m 754 252 l 884 0 l 7 0 l 547 1086 l 743 1086 l 1284 0 l 958 0 l 646 648 l 453 252 l 754 252 m 743 1112 l 645 1251 l 548 1112 l 298 1112 l 502 1390 l 789 1390 l 993 1112 l 743 1112 z "},"ã":{"ha":1291,"x_min":7,"x_max":1284,"o":"m 754 252 l 884 0 l 7 0 l 547 1086 l 743 1086 l 1284 0 l 958 0 l 646 648 l 453 252 l 754 252 m 349 1119 l 349 1165 q 398 1282 349 1236 q 539 1337 452 1337 q 660 1310 619 1337 q 714 1251 684 1295 q 744 1232 728 1232 q 763 1238 757 1232 q 775 1270 775 1250 l 775 1320 l 941 1320 l 941 1270 q 890 1154 941 1202 q 738 1099 836 1099 q 627 1126 669 1099 q 570 1185 602 1143 q 539 1203 558 1203 q 526 1199 531 1203 q 515 1165 515 1188 l 515 1119 l 349 1119 z "},"ä":{"ha":1291,"x_min":7,"x_max":1284,"o":"m 754 252 l 884 0 l 7 0 l 547 1086 l 743 1086 l 1284 0 l 958 0 l 646 648 l 453 252 l 754 252 m 395 1343 l 585 1343 l 585 1153 l 395 1153 l 395 1343 m 705 1343 l 895 1343 l 895 1153 l 705 1153 l 705 1343 z "},"å":{"ha":1291,"x_min":7,"x_max":1284,"o":"m 754 252 l 884 0 l 7 0 l 547 1086 l 743 1086 l 1284 0 l 958 0 l 646 648 l 453 252 l 754 252 m 646 1409 q 755 1364 709 1409 q 801 1254 801 1318 q 755 1143 801 1190 q 646 1098 709 1098 q 535 1143 581 1098 q 490 1254 490 1190 q 535 1364 490 1318 q 646 1409 581 1409 m 688 1296 q 646 1313 669 1313 q 602 1296 621 1313 q 586 1254 586 1278 q 603 1211 586 1229 q 646 1194 621 1194 q 687 1211 669 1194 q 705 1254 705 1229 q 688 1296 705 1278 z "},"æ":{"ha":2035,"x_min":7,"x_max":2010,"o":"m 958 0 l 646 648 l 453 252 l 754 252 l 884 0 l 7 0 l 547 1086 l 743 1086 l 1016 538 l 1016 1086 l 2009 1086 l 1902 827 l 1315 827 l 1315 0 l 958 0 m 2003 258 l 1895 0 l 1329 0 l 1460 258 l 2003 258 m 1436 672 l 2010 672 l 1903 414 l 1336 414 l 1436 672 z "},"ç":{"ha":1193,"x_min":54,"x_max":1179,"o":"m 717 258 l 1179 258 l 1048 0 l 618 0 q 212 167 378 0 q 54 543 54 325 q 213 920 54 762 q 618 1086 379 1086 l 1173 1086 l 1066 827 l 717 827 l 618 827 q 438 751 515 827 q 353 543 353 666 q 438 336 353 420 q 618 258 515 258 l 717 258 m 656 -68 l 928 -68 l 734 -338 l 509 -338 l 656 -68 z "},"è":{"ha":1062,"x_min":54,"x_max":1048,"o":"m 353 827 l 353 0 l 54 0 l 54 1086 l 1048 1086 l 941 827 l 353 827 m 475 672 l 1048 672 l 941 414 l 374 414 l 475 672 m 1041 258 l 934 0 l 368 0 l 498 258 l 1041 258 m 702 1121 l 484 1121 l 290 1391 l 555 1391 l 702 1121 z "},"é":{"ha":1062,"x_min":54,"x_max":1048,"o":"m 353 827 l 353 0 l 54 0 l 54 1086 l 1048 1086 l 941 827 l 353 827 m 475 672 l 1048 672 l 941 414 l 374 414 l 475 672 m 1041 258 l 934 0 l 368 0 l 498 258 l 1041 258 m 547 1391 l 819 1391 l 625 1121 l 401 1121 l 547 1391 z "},"ê":{"ha":1062,"x_min":54,"x_max":1048,"o":"m 353 827 l 353 0 l 54 0 l 54 1086 l 1048 1086 l 941 827 l 353 827 m 475 672 l 1048 672 l 941 414 l 374 414 l 475 672 m 1041 258 l 934 0 l 368 0 l 498 258 l 1041 258 m 649 1112 l 551 1251 l 454 1112 l 204 1112 l 408 1390 l 695 1390 l 899 1112 l 649 1112 z "},"ë":{"ha":1062,"x_min":54,"x_max":1048,"o":"m 353 827 l 353 0 l 54 0 l 54 1086 l 1048 1086 l 941 827 l 353 827 m 475 672 l 1048 672 l 941 414 l 374 414 l 475 672 m 1041 258 l 934 0 l 368 0 l 498 258 l 1041 258 m 302 1343 l 492 1343 l 492 1153 l 302 1153 l 302 1343 m 612 1343 l 802 1343 l 802 1153 l 612 1153 l 612 1343 z "},"ì":{"ha":503,"x_min":-24,"x_max":400,"o":"m 400 0 l 101 0 l 101 1086 l 400 1086 l 400 0 m 388 1121 l 170 1121 l -24 1391 l 241 1391 l 388 1121 z "},"í":{"ha":503,"x_min":102,"x_max":530,"o":"m 401 0 l 102 0 l 102 1086 l 401 1086 l 401 0 m 258 1391 l 530 1391 l 336 1121 l 112 1121 l 258 1391 z "},"î":{"ha":503,"x_min":-95,"x_max":600,"o":"m 402 0 l 103 0 l 103 1086 l 402 1086 l 402 0 m 350 1112 l 252 1251 l 155 1112 l -95 1112 l 109 1390 l 396 1390 l 600 1112 l 350 1112 z "},"ï":{"ha":503,"x_min":1,"x_max":501,"o":"m 401 0 l 102 0 l 102 1086 l 401 1086 l 401 0 m 1 1343 l 191 1343 l 191 1153 l 1 1153 l 1 1343 m 311 1343 l 501 1343 l 501 1153 l 311 1153 l 311 1343 z "},"ð":{"ha":1253,"x_min":-41,"x_max":1223,"o":"m 669 677 l 669 418 l 396 418 l 396 0 l 97 0 l 97 418 l -41 418 l -41 677 l 97 677 l 97 1086 l 661 1086 q 1065 919 899 1086 q 1223 543 1223 762 q 1066 167 1223 325 q 661 0 899 0 l 397 0 l 528 258 l 661 258 q 839 335 763 258 q 924 543 924 420 q 840 751 924 666 q 661 827 763 827 l 396 827 l 396 677 l 669 677 z "},"ñ":{"ha":1187,"x_min":75,"x_max":1112,"o":"m 370 549 l 370 0 l 75 0 l 75 1086 l 298 1086 l 817 467 l 817 1086 l 1112 1086 l 1112 0 l 842 0 l 370 549 m 333 1119 l 333 1165 q 382 1282 333 1236 q 523 1337 436 1337 q 643 1310 603 1337 q 698 1251 668 1295 q 728 1232 711 1232 q 746 1238 740 1232 q 759 1270 759 1250 l 759 1320 l 925 1320 l 925 1270 q 874 1154 925 1202 q 722 1099 819 1099 q 610 1126 652 1099 q 554 1185 585 1143 q 523 1203 541 1203 q 510 1199 515 1203 q 499 1165 499 1188 l 499 1119 l 333 1119 z "},"ò":{"ha":1329,"x_min":34,"x_max":1295,"o":"m 665 -20 q 193 146 359 -20 q 35 496 35 304 l 34 496 q 193 947 34 789 q 665 1113 359 1113 q 1137 946 970 1113 q 1295 543 1295 789 q 1137 146 1295 304 q 665 -20 970 -20 m 665 238 q 911 315 833 238 q 996 543 996 399 q 911 779 996 693 q 665 854 834 854 q 418 778 495 854 q 333 543 333 693 q 418 315 333 400 q 665 238 495 238 m 802 1135 l 584 1135 l 390 1404 l 655 1404 l 802 1135 z "},"ó":{"ha":1329,"x_min":34,"x_max":1295,"o":"m 665 -20 q 193 146 359 -20 q 35 496 35 304 l 34 496 q 193 947 34 789 q 665 1113 359 1113 q 1137 946 970 1113 q 1295 543 1295 789 q 1137 146 1295 304 q 665 -20 970 -20 m 665 238 q 911 315 833 238 q 996 543 996 399 q 911 779 996 693 q 665 854 834 854 q 418 778 495 854 q 333 543 333 693 q 418 315 333 400 q 665 238 495 238 m 671 1404 l 943 1404 l 749 1135 l 525 1135 l 671 1404 z "},"ô":{"ha":1329,"x_min":34,"x_max":1295,"o":"m 665 -20 q 193 146 359 -20 q 35 496 35 304 l 34 496 q 193 947 34 789 q 665 1113 359 1113 q 1137 946 970 1113 q 1295 543 1295 789 q 1137 146 1295 304 q 665 -20 970 -20 m 665 238 q 911 315 833 238 q 996 543 996 399 q 911 779 996 693 q 665 854 834 854 q 418 778 495 854 q 333 543 333 693 q 418 315 333 400 q 665 238 495 238 m 762 1125 l 664 1264 l 567 1125 l 317 1125 l 521 1404 l 808 1404 l 1012 1125 l 762 1125 z "},"õ":{"ha":1329,"x_min":34,"x_max":1295,"o":"m 665 -20 q 193 146 359 -20 q 35 496 35 304 l 34 496 q 193 947 34 789 q 665 1113 359 1113 q 1137 946 970 1113 q 1295 543 1295 789 q 1137 146 1295 304 q 665 -20 970 -20 m 665 238 q 911 315 833 238 q 996 543 996 399 q 911 779 996 693 q 665 854 834 854 q 418 778 495 854 q 333 543 333 693 q 418 315 333 400 q 665 238 495 238 m 368 1146 l 368 1192 q 417 1310 368 1263 q 558 1364 471 1364 q 679 1337 638 1364 q 733 1278 703 1322 q 763 1259 747 1259 q 782 1265 776 1259 q 794 1297 794 1277 l 794 1347 l 960 1347 l 960 1297 q 909 1181 960 1230 q 757 1126 854 1126 q 646 1153 688 1126 q 589 1213 621 1170 q 558 1230 577 1230 q 545 1226 550 1230 q 534 1192 534 1215 l 534 1146 l 368 1146 z "},"ö":{"ha":1329,"x_min":34,"x_max":1295,"o":"m 665 -20 q 193 146 359 -20 q 35 496 35 304 l 34 496 q 193 947 34 789 q 665 1113 359 1113 q 1137 946 970 1113 q 1295 543 1295 789 q 1137 146 1295 304 q 665 -20 970 -20 m 665 238 q 911 315 833 238 q 996 543 996 399 q 911 779 996 693 q 665 854 834 854 q 418 778 495 854 q 333 543 333 693 q 418 315 333 400 q 665 238 495 238 m 414 1343 l 604 1343 l 604 1153 l 414 1153 l 414 1343 m 724 1343 l 914 1343 l 914 1153 l 724 1153 l 724 1343 z "},"÷":{"ha":625,"x_min":14,"x_max":612,"o":"m 14 407 l 14 608 l 612 608 l 612 407 l 14 407 m 163 312 l 463 312 l 463 13 l 163 13 l 163 312 m 163 1002 l 463 1002 l 463 703 l 163 703 l 163 1002 z "},"ø":{"ha":1322,"x_min":7,"x_max":1267,"o":"m 744 1267 l 1006 1210 l 945 1034 q 1109 918 1020 1006 q 1267 542 1267 760 q 1110 165 1267 323 q 705 -1 943 -1 l 593 -1 l 531 -184 l 270 -127 l 329 49 q 165 165 254 76 q 7 494 7 323 l 7 494 q 165 918 7 760 q 570 1084 332 1084 l 682 1084 l 707 1160 l 744 1267 m 681 257 l 705 257 q 884 334 806 257 q 968 542 968 418 q 884 750 968 665 q 859 779 851 782 l 681 257 m 593 826 l 570 826 q 391 749 468 826 q 306 542 306 665 q 391 334 306 419 q 416 305 424 301 l 593 826 z "},"ù":{"ha":1108,"x_min":61,"x_max":1047,"o":"m 61 1086 l 360 1086 l 360 452 q 425 294 360 358 q 554 238 481 238 q 684 294 627 238 q 748 452 748 358 l 748 1086 l 1047 1086 l 1047 452 q 910 125 1047 263 q 554 -20 764 -20 q 198 125 345 -20 q 61 452 61 263 l 61 1086 m 691 1121 l 473 1121 l 279 1391 l 545 1391 l 691 1121 z "},"ú":{"ha":1108,"x_min":61,"x_max":1047,"o":"m 61 1086 l 360 1086 l 360 452 q 425 294 360 358 q 554 238 481 238 q 684 294 627 238 q 748 452 748 358 l 748 1086 l 1047 1086 l 1047 452 q 910 125 1047 263 q 554 -20 764 -20 q 198 125 345 -20 q 61 452 61 263 l 61 1086 m 561 1391 l 833 1391 l 639 1121 l 414 1121 l 561 1391 z "},"û":{"ha":1108,"x_min":61,"x_max":1047,"o":"m 61 1086 l 360 1086 l 360 452 q 425 294 360 358 q 554 238 481 238 q 684 294 627 238 q 748 452 748 358 l 748 1086 l 1047 1086 l 1047 452 q 910 125 1047 263 q 554 -20 764 -20 q 198 125 345 -20 q 61 452 61 263 l 61 1086 m 652 1112 l 554 1251 l 457 1112 l 207 1112 l 411 1390 l 698 1390 l 902 1112 l 652 1112 z "},"ü":{"ha":1108,"x_min":61,"x_max":1047,"o":"m 61 1086 l 360 1086 l 360 452 q 425 294 360 358 q 554 238 481 238 q 684 294 627 238 q 748 452 748 358 l 748 1086 l 1047 1086 l 1047 452 q 910 125 1047 263 q 554 -20 764 -20 q 198 125 345 -20 q 61 452 61 263 l 61 1086 m 304 1343 l 494 1343 l 494 1153 l 304 1153 l 304 1343 m 614 1343 l 804 1343 l 804 1153 l 614 1153 l 614 1343 z "},"ý":{"ha":1078,"x_min":7,"x_max":1072,"o":"m 741 1086 l 1072 1086 l 689 381 l 689 0 l 389 0 l 389 381 l 7 1086 l 337 1086 l 539 713 l 741 1086 m 546 1391 l 818 1391 l 624 1121 l 399 1121 l 546 1391 z "},"þ":{"ha":1013,"x_min":68,"x_max":979,"o":"m 367 878 l 633 878 q 842 817 753 878 q 957 665 920 760 q 979 538 979 604 q 957 411 979 471 q 842 258 920 315 q 633 197 753 197 l 367 197 l 367 0 l 68 0 l 68 1086 l 367 1086 l 367 878 m 367 455 l 633 455 q 672 491 659 455 q 680 538 680 513 q 672 584 680 563 q 633 620 659 620 l 367 620 l 367 455 z "},"ÿ":{"ha":1078,"x_min":7,"x_max":1072,"o":"m 741 1086 l 1072 1086 l 689 381 l 689 0 l 389 0 l 389 381 l 7 1086 l 337 1086 l 539 713 l 741 1086 m 290 1318 l 479 1318 l 479 1128 l 290 1128 l 290 1318 m 600 1318 l 789 1318 l 789 1128 l 600 1128 l 600 1318 z "},"ı":{"ha":503,"x_min":102,"x_max":401,"o":"m 401 0 l 102 0 l 102 1086 l 401 1086 l 401 0 z "},"ˆ":{"ha":709,"x_min":7,"x_max":702,"o":"m 452 852 l 354 991 l 257 852 l 7 852 l 211 1131 l 498 1131 l 702 852 l 452 852 z "},"ˇ":{"ha":709,"x_min":7,"x_max":702,"o":"m 702 1131 l 498 852 l 211 852 l 7 1131 l 257 1131 l 354 992 l 452 1131 l 702 1131 z "},"ˉ":{"ha":551,"x_min":41,"x_max":507,"o":"m 507 1051 l 507 888 l 41 888 l 41 1051 l 507 1051 z "},"˘":{"ha":656,"x_min":34,"x_max":622,"o":"m 622 1131 q 544 947 622 1025 q 332 861 458 861 l 332 860 l 323 860 q 112 947 199 860 q 34 1131 34 1025 l 227 1131 q 263 1042 227 1077 q 323 1015 289 1015 l 332 1015 q 393 1042 366 1015 q 429 1131 429 1077 l 622 1131 z "},"˙":{"ha":252,"x_min":34,"x_max":218,"o":"m 34 1078 l 218 1078 l 218 894 l 34 894 l 34 1078 z "},"˚":{"ha":379,"x_min":34,"x_max":345,"o":"m 190 1150 q 300 1105 254 1150 q 345 995 345 1059 q 300 884 345 930 q 190 839 254 839 q 79 884 125 839 q 34 995 34 930 q 79 1105 34 1059 q 190 1150 125 1150 m 232 1037 q 190 1054 214 1054 q 146 1037 165 1054 q 130 995 130 1019 q 147 952 130 970 q 190 935 165 935 q 231 952 214 935 q 249 995 249 970 q 232 1037 249 1019 z "},"˛":{"ha":535,"x_min":14,"x_max":522,"o":"m 224 96 l 360 1 l 301 -54 l 288 -65 l 288 -65 q 210 -192 220 -132 q 224 -258 202 -233 l 225 -258 l 225 -259 q 265 -275 241 -275 q 329 -246 296 -274 l 392 -194 l 522 -294 l 459 -346 q 272 -418 376 -416 q 83 -349 157 -422 l 83 -349 l 78 -342 q 31 -173 14 -272 q 149 26 48 -73 l 149 26 q 165 41 157 33 l 224 96 z "},"˜":{"ha":606,"x_min":7,"x_max":600,"o":"m 7 860 l 7 906 q 56 1023 7 977 q 197 1078 110 1078 q 317 1051 277 1078 q 372 992 342 1036 q 402 973 386 973 q 420 979 414 973 q 433 1010 433 991 l 433 1061 l 600 1061 l 600 1010 q 549 895 600 943 q 396 840 493 840 q 284 867 326 840 q 228 926 260 884 q 197 944 216 944 q 184 940 189 944 q 173 906 173 929 l 173 860 l 7 860 z "},"˝":{"ha":694,"x_min":-159,"x_max":543,"o":"m -12 1132 l 192 1132 l -2 862 l -159 862 l -12 1132 m 338 1132 l 543 1132 l 349 862 l 192 862 l 338 1132 z "},"–":{"ha":955,"x_min":34,"x_max":921,"o":"m 34 309 l 34 491 l 921 491 l 921 309 l 34 309 z "},"—":{"ha":1362,"x_min":34,"x_max":1328,"o":"m 34 309 l 34 491 l 1328 491 l 1328 309 l 34 309 z "},"‘":{"ha":331,"x_min":62,"x_max":263,"o":"m 263 955 l 177 955 l 62 740 l 62 740 l 62 558 l 243 558 l 243 740 l 182 740 l 263 955 z "},"’":{"ha":345,"x_min":62,"x_max":263,"o":"m 62 558 l 148 558 l 262 773 l 263 773 l 263 955 l 81 955 l 81 773 l 142 773 l 62 558 z "},"‚":{"ha":345,"x_min":62,"x_max":263,"o":"m 62 -215 l 148 -215 l 262 0 l 263 0 l 263 182 l 81 182 l 81 0 l 142 0 l 62 -215 z "},"“":{"ha":613,"x_min":62,"x_max":545,"o":"m 263 955 l 177 955 l 62 740 l 62 740 l 62 558 l 243 558 l 243 740 l 182 740 l 263 955 m 545 955 l 459 955 l 345 740 l 344 740 l 344 558 l 526 558 l 526 740 l 465 740 l 545 955 z "},"”":{"ha":627,"x_min":62,"x_max":545,"o":"m 62 558 l 148 558 l 262 773 l 263 773 l 263 955 l 81 955 l 81 773 l 142 773 l 62 558 m 344 558 l 430 558 l 545 773 l 545 773 l 545 955 l 363 955 l 363 773 l 425 773 l 344 558 z "},"„":{"ha":627,"x_min":62,"x_max":545,"o":"m 62 -198 l 148 -198 l 262 17 l 263 17 l 263 199 l 81 199 l 81 17 l 142 17 l 62 -198 m 344 -198 l 430 -198 l 545 17 l 545 17 l 545 199 l 363 199 l 363 17 l 425 17 l 344 -198 z "},"†":{"ha":753,"x_min":68,"x_max":686,"o":"m 324 735 l 324 1004 l 430 1004 l 430 735 l 686 735 l 686 629 l 430 629 l 430 -237 l 324 -237 l 324 629 l 68 629 l 68 735 l 324 735 z "},"‡":{"ha":753,"x_min":68,"x_max":686,"o":"m 324 735 l 324 1004 l 430 1004 l 430 735 l 686 735 l 686 629 l 430 629 l 430 193 l 686 193 l 686 87 l 430 87 l 430 -237 l 324 -237 l 324 87 l 68 87 l 68 193 l 324 193 l 324 629 l 68 629 l 68 735 l 324 735 z "},"•":{"ha":635,"x_min":57,"x_max":569,"o":"m 313 763 q 494 688 419 763 q 569 507 569 613 q 494 326 569 401 q 313 251 419 251 q 132 326 207 251 q 57 507 57 401 q 132 688 57 613 q 313 763 207 763 z "},"…":{"ha":1389,"x_min":54,"x_max":1185,"o":"m 54 204 l 258 204 l 258 0 l 54 0 l 54 204 m 517 204 l 722 204 l 722 0 l 517 0 l 517 204 m 981 204 l 1185 204 l 1185 0 l 981 0 l 981 204 z "},"‹":{"ha":519,"x_min":47,"x_max":492,"o":"m 491 680 l 254 414 l 492 164 l 267 164 l 47 414 l 283 680 l 491 680 z "},"›":{"ha":519,"x_min":33,"x_max":478,"o":"m 242 680 l 478 414 l 258 164 l 33 164 l 271 414 l 34 680 l 242 680 z "},"⁄":{"ha":302,"x_min":-68,"x_max":390,"o":"m 390 991 l 87 0 l -68 0 l 234 991 l 390 991 z "},"₣":{"ha":766,"x_min":14,"x_max":734,"o":"m 122 298 l 122 1031 l 734 1031 l 734 869 l 285 869 l 285 597 l 649 597 l 649 434 l 285 434 l 285 298 l 503 298 l 503 156 l 285 156 l 285 0 l 122 0 l 122 156 l 14 156 l 14 298 l 122 298 z "},"₤":{"ha":966,"x_min":54,"x_max":912,"o":"m 54 413 l 54 576 l 194 576 q 180 680 180 629 q 221 840 180 769 q 351 960 266 920 q 500 991 419 991 q 721 907 629 991 q 812 722 799 834 l 821 642 l 618 627 l 609 708 q 567 800 602 767 q 500 828 537 828 q 454 819 473 828 q 407 773 425 805 q 385 680 385 734 q 404 576 385 629 l 664 576 l 664 413 l 444 413 q 418 278 443 347 q 389 213 406 245 q 513 189 448 210 q 638 166 595 165 q 711 190 671 168 l 795 237 l 912 104 l 829 57 q 648 3 740 7 q 441 37 563 0 q 349 51 389 53 q 221 14 292 48 l 92 137 q 222 323 186 222 q 240 413 239 370 l 54 413 z "},"₧":{"ha":1636,"x_min":81,"x_max":1593,"o":"m 228 855 l 228 481 l 363 481 q 481 536 433 481 q 531 668 531 591 q 481 800 531 745 q 363 855 433 855 l 228 855 m 626 475 q 585 421 608 447 q 363 319 493 319 l 228 319 l 228 -14 l 81 -14 l 81 1018 l 363 1018 q 585 916 493 1018 q 677 668 677 812 q 677 638 677 653 l 793 638 l 793 1018 l 956 1018 l 956 638 l 1202 638 q 1329 664 1259 664 q 1457 637 1397 664 q 1558 555 1522 608 l 1425 463 q 1391 488 1415 477 q 1329 501 1363 501 q 1247 477 1279 501 q 1227 448 1227 463 q 1263 412 1227 425 q 1342 394 1284 404 q 1514 342 1468 372 q 1593 180 1593 294 q 1498 19 1593 83 q 1314 -36 1417 -36 q 1151 5 1226 -36 q 1043 129 1065 52 l 1199 174 q 1229 148 1202 163 q 1314 127 1267 127 q 1407 153 1369 127 q 1430 180 1430 169 q 1394 216 1430 202 q 1315 234 1373 224 q 1142 285 1190 256 q 1064 448 1064 334 q 1066 475 1064 463 l 956 475 l 956 -14 l 793 -14 l 793 475 l 626 475 z "},"€":{"ha":909,"x_min":54,"x_max":873,"o":"m 54 332 l 54 471 l 168 471 l 168 491 q 169 538 168 514 l 54 538 l 54 677 l 195 677 q 212 723 202 701 q 358 914 262 846 q 595 987 460 987 q 763 964 684 987 q 873 917 823 947 l 751 787 q 694 811 726 802 q 595 824 650 824 q 494 792 538 824 q 408 677 440 754 l 722 677 l 722 538 l 374 538 q 372 491 372 514 q 372 471 372 481 l 695 471 l 695 332 l 397 332 q 438 252 414 286 q 573 164 489 180 q 739 195 659 149 l 857 62 q 528 5 702 -27 q 261 171 357 37 q 188 332 212 239 l 54 332 z "},"№":{"ha":1832,"x_min":75,"x_max":1784,"o":"m 370 549 l 370 0 l 75 0 l 75 1086 l 298 1086 l 817 467 l 817 1086 l 1112 1086 l 1112 0 l 842 0 l 370 549 m 1505 789 q 1678 716 1606 789 l 1678 717 q 1750 543 1750 645 q 1678 370 1750 441 q 1505 298 1606 298 q 1331 370 1403 298 q 1259 543 1259 441 q 1331 717 1259 645 q 1505 789 1403 789 m 1554 592 q 1505 612 1534 612 q 1456 592 1476 612 q 1436 543 1436 572 q 1456 494 1436 513 q 1505 473 1476 473 q 1554 493 1534 473 l 1554 494 q 1575 543 1575 513 q 1554 592 1575 572 m 1226 0 l 1226 228 l 1784 228 l 1784 0 l 1226 0 z "},"™":{"ha":1434,"x_min":7,"x_max":1360,"o":"m 399 956 l 399 542 l 234 542 l 234 956 l 7 956 l 66 1085 l 626 1085 l 567 956 l 399 956 m 1200 780 l 1026 546 l 851 780 l 851 546 l 692 546 l 692 1089 l 814 1089 l 1026 782 l 1237 1089 l 1359 1089 l 1359 546 l 1200 546 l 1200 780 z "},"∂":{"ha":724,"x_min":54,"x_max":669,"o":"m 293 680 l 167 739 l 196 802 q 262 900 219 850 q 447 998 347 998 q 617 902 557 998 q 669 686 669 819 l 669 663 l 669 670 l 669 659 q 617 290 669 431 q 363 20 543 87 q 262 0 311 0 q 235 1 248 0 q 117 58 165 9 q 54 236 54 123 q 57 288 54 260 q 219 562 77 466 q 530 652 338 642 l 530 677 q 529 671 529 677 l 529 686 q 499 827 529 780 q 447 857 480 857 q 322 743 377 857 l 293 680 m 486 338 q 524 511 513 412 q 297 446 380 502 q 196 272 209 387 q 194 235 194 252 q 217 156 194 180 q 252 140 230 143 q 264 140 258 140 q 314 150 287 140 q 486 338 434 195 z "},"∆":{"ha":1025,"x_min":54,"x_max":970,"o":"m 793 140 l 515 760 l 237 140 l 793 140 m 130 0 q 101 6 115 0 q 64 45 75 18 q 66 98 54 72 l 451 959 q 486 994 462 983 q 540 996 513 1006 q 578 959 567 985 l 962 104 q 970 70 970 88 q 949 20 970 41 q 900 0 929 0 l 130 0 z "},"∏":{"ha":987,"x_min":54,"x_max":932,"o":"m 194 -282 l 54 -282 l 54 921 q 75 970 54 950 q 124 991 95 991 l 863 991 q 912 970 892 991 q 932 921 932 950 l 932 -282 l 793 -282 l 793 851 l 194 851 l 194 -282 z "},"∑":{"ha":999,"x_min":54,"x_max":945,"o":"m 945 990 l 945 850 l 271 850 l 612 418 q 627 374 627 398 q 612 330 627 349 l 271 -101 l 945 -101 l 945 -241 l 127 -241 l 127 -241 q 83 -226 102 -241 q 58 -180 61 -208 q 72 -128 54 -151 l 469 374 l 76 871 q 57 920 57 892 q 77 969 57 949 q 127 990 98 990 l 945 990 z "},"−":{"ha":571,"x_min":54,"x_max":517,"o":"m 54 407 l 54 540 l 517 540 l 517 407 l 54 407 z "},"√":{"ha":790,"x_min":7,"x_max":777,"o":"m 60 398 l 7 527 l 71 554 l 220 615 q 272 616 246 626 q 309 581 298 606 l 310 581 l 488 216 l 628 1083 l 639 1152 l 777 1130 l 766 1061 l 591 -19 q 553 -75 588 -58 q 499 -79 526 -88 q 459 -43 472 -69 l 213 461 l 124 425 l 60 398 z "},"∞":{"ha":893,"x_min":54,"x_max":839,"o":"m 236 648 q 417 562 340 648 q 631 680 508 680 q 795 616 743 680 q 839 452 839 562 q 785 285 839 343 q 626 224 729 224 q 416 337 507 224 q 235 259 340 259 q 76 349 121 259 q 54 456 54 393 q 79 562 54 517 q 229 648 124 642 l 236 648 m 336 449 q 236 522 281 521 q 204 505 212 521 q 194 456 194 488 q 203 401 194 419 q 235 385 212 385 q 336 449 284 385 m 502 448 q 626 350 572 350 q 677 365 664 350 q 699 452 699 388 q 682 542 699 522 q 631 554 673 554 q 502 448 575 554 z "},"∫":{"ha":488,"x_min":-14,"x_max":507,"o":"m 507 1092 l 456 962 l 391 988 q 333 1008 355 1005 q 317 467 313 970 q 284 -106 320 -37 q 145 -172 247 -178 q 52 -151 96 -169 l -14 -125 l 38 4 l 102 -22 q 161 -41 143 -41 q 177 500 180 -4 q 210 1073 174 1004 q 349 1139 247 1145 q 443 1118 397 1135 l 507 1092 z "},"≈":{"ha":678,"x_min":50,"x_max":637,"o":"m 637 531 q 446 448 538 448 l 433 448 q 272 507 368 451 q 191 540 212 540 l 188 540 q 50 446 154 538 l 50 614 q 191 688 119 688 q 333 638 244 688 q 441 595 405 597 l 444 595 q 637 700 503 595 l 637 531 m 637 258 q 446 175 538 175 l 433 175 q 272 233 368 178 q 191 267 212 267 l 188 267 q 50 172 154 265 l 50 341 q 191 415 119 414 q 333 365 244 415 q 441 322 405 324 l 444 322 q 637 427 503 322 l 637 258 z "},"≤":{"ha":761,"x_min":54,"x_max":707,"o":"m 707 815 l 707 663 l 305 494 l 707 326 l 707 174 l 98 430 q 60 467 71 441 q 54 495 54 481 q 60 521 54 508 q 98 559 71 548 l 656 793 l 707 815 m 75 0 l 75 127 l 707 127 l 707 0 l 75 0 z "},"≥":{"ha":761,"x_min":54,"x_max":707,"o":"m 105 793 l 663 559 q 701 521 690 548 q 707 495 707 508 q 701 467 707 481 q 663 430 690 441 l 54 174 l 54 326 l 456 494 l 54 663 l 54 815 l 105 793 m 54 0 l 54 127 l 686 127 l 686 0 l 54 0 z "},"○":{"ha":1333,"x_min":39,"x_max":1295,"o":"m 667 1034 q 1048 876 890 1034 q 1206 494 1206 718 q 1048 113 1206 271 q 667 -45 890 -45 q 285 113 443 -45 q 127 494 127 271 q 285 876 127 718 q 667 1034 443 1034 m 667 1122 q 223 939 407 1122 q 39 494 39 755 q 223 51 39 234 q 667 -133 407 -133 q 1111 51 927 -133 q 1295 494 1295 234 q 1111 939 1295 755 q 667 1122 927 1122 z "},"●":{"ha":1159,"x_min":68,"x_max":1091,"o":"m 580 1013 q 218 863 368 1013 q 68 501 68 713 q 218 140 68 290 q 580 -10 368 -10 q 941 140 791 -10 q 1091 501 1091 290 q 941 863 1091 713 q 580 1013 791 1013 z "},"₺":{"ha":878,"x_min":54,"x_max":824,"o":"m 286 667 l 286 724 l 88 675 l 54 810 l 286 869 l 286 1090 l 426 1090 l 426 904 l 629 956 l 663 820 l 426 760 l 426 703 l 629 753 l 663 618 l 426 558 l 426 147 q 585 223 522 164 q 685 465 677 308 l 824 458 q 604 62 809 176 q 359 1 490 0 l 356 1 q 307 22 327 1 q 286 72 286 43 l 286 523 l 88 473 l 54 608 l 286 667 z "},"Ā":{"ha":1291,"x_min":7,"x_max":1284,"o":"m 754 252 l 884 0 l 7 0 l 547 1086 l 743 1086 l 1284 0 l 958 0 l 646 648 l 453 252 l 754 252 m 878 1310 l 878 1147 l 412 1147 l 412 1310 l 878 1310 z "},"ā":{"ha":1291,"x_min":7,"x_max":1284,"o":"m 754 252 l 884 0 l 7 0 l 547 1086 l 743 1086 l 1284 0 l 958 0 l 646 648 l 453 252 l 754 252 m 878 1310 l 878 1147 l 412 1147 l 412 1310 l 878 1310 z "},"Ă":{"ha":1291,"x_min":7,"x_max":1284,"o":"m 754 252 l 884 0 l 7 0 l 547 1086 l 743 1086 l 1284 0 l 958 0 l 646 648 l 453 252 l 754 252 m 939 1390 q 861 1206 939 1284 q 650 1120 775 1120 l 650 1119 l 641 1119 q 429 1206 516 1119 q 351 1390 351 1284 l 545 1390 q 581 1301 545 1336 q 641 1274 606 1274 l 650 1274 q 710 1301 683 1274 q 746 1390 746 1336 l 939 1390 z "},"ă":{"ha":1291,"x_min":7,"x_max":1284,"o":"m 754 252 l 884 0 l 7 0 l 547 1086 l 743 1086 l 1284 0 l 958 0 l 646 648 l 453 252 l 754 252 m 939 1390 q 861 1206 939 1284 q 650 1120 775 1120 l 650 1119 l 641 1119 q 429 1206 516 1119 q 351 1390 351 1284 l 545 1390 q 581 1301 545 1336 q 641 1274 607 1274 l 650 1274 q 710 1301 683 1274 q 746 1390 746 1336 l 939 1390 z "},"Ą":{"ha":1291,"x_min":7,"x_max":1328,"o":"m 943 31 l 646 648 l 453 252 l 754 252 l 884 0 l 7 0 l 547 1086 l 743 1086 l 1284 0 l 1146 0 l 1107 -36 l 1095 -47 q 1016 -174 1026 -115 q 1030 -240 1008 -216 l 1032 -241 l 1032 -241 q 1072 -257 1048 -258 q 1135 -229 1103 -256 l 1198 -176 l 1328 -276 l 1265 -328 q 1078 -401 1183 -398 q 890 -331 963 -405 l 885 -325 q 837 -155 820 -254 q 943 31 853 -61 z "},"ą":{"ha":1291,"x_min":7,"x_max":1328,"o":"m 943 31 l 646 648 l 453 252 l 754 252 l 884 0 l 7 0 l 547 1086 l 743 1086 l 1284 0 l 1146 0 l 1107 -36 l 1095 -47 q 1016 -174 1026 -115 q 1030 -240 1008 -216 l 1032 -241 l 1032 -241 q 1072 -257 1048 -258 q 1135 -229 1103 -256 l 1198 -176 l 1328 -276 l 1265 -328 q 1078 -401 1183 -398 q 890 -331 963 -405 l 885 -325 q 837 -155 820 -254 q 943 31 853 -61 z "},"Ć":{"ha":1193,"x_min":54,"x_max":1179,"o":"m 717 258 l 1179 258 l 1048 0 l 618 0 q 212 167 378 0 q 54 543 54 325 q 213 920 54 762 q 618 1086 379 1086 l 1173 1086 l 1066 827 l 717 827 l 618 827 q 438 751 515 827 q 353 543 353 666 q 438 336 353 420 q 618 258 515 258 l 717 258 m 827 1391 l 1099 1391 l 905 1121 l 681 1121 l 827 1391 z "},"ć":{"ha":1193,"x_min":54,"x_max":1179,"o":"m 717 258 l 1179 258 l 1048 0 l 618 0 q 212 167 378 0 q 54 543 54 325 q 213 920 54 762 q 618 1086 379 1086 l 1173 1086 l 1066 827 l 717 827 l 618 827 q 438 751 515 827 q 353 543 353 666 q 438 336 353 420 q 618 258 515 258 l 717 258 m 827 1391 l 1099 1391 l 905 1121 l 681 1121 l 827 1391 z "},"Ĉ":{"ha":1193,"x_min":54,"x_max":1179,"o":"m 717 258 l 1179 258 l 1048 0 l 618 0 q 212 167 378 0 q 54 543 54 325 q 213 920 54 762 q 618 1086 379 1086 l 1173 1086 l 1066 827 l 717 827 l 618 827 q 438 751 515 827 q 353 543 353 666 q 438 336 353 420 q 618 258 515 258 l 717 258 m 877 1112 l 779 1251 l 682 1112 l 432 1112 l 636 1390 l 923 1390 l 1127 1112 l 877 1112 z "},"ĉ":{"ha":1193,"x_min":54,"x_max":1179,"o":"m 717 258 l 1179 258 l 1048 0 l 618 0 q 212 167 378 0 q 54 543 54 325 q 213 920 54 762 q 618 1086 379 1086 l 1173 1086 l 1066 827 l 717 827 l 618 827 q 438 751 515 827 q 353 543 353 666 q 438 336 353 420 q 618 258 515 258 l 717 258 m 877 1112 l 779 1251 l 682 1112 l 432 1112 l 636 1390 l 923 1390 l 1127 1112 l 877 1112 z "},"Ċ":{"ha":1193,"x_min":54,"x_max":1179,"o":"m 717 258 l 1179 258 l 1048 0 l 618 0 q 212 167 378 0 q 54 543 54 325 q 213 920 54 762 q 618 1086 379 1086 l 1173 1086 l 1066 827 l 717 827 l 618 827 q 438 751 515 827 q 353 543 353 666 q 438 336 353 420 q 618 258 515 258 l 717 258 m 735 1337 l 919 1337 l 919 1153 l 735 1153 l 735 1337 z "},"ċ":{"ha":1193,"x_min":54,"x_max":1179,"o":"m 717 258 l 1179 258 l 1048 0 l 618 0 q 212 167 378 0 q 54 543 54 325 q 213 920 54 762 q 618 1086 379 1086 l 1173 1086 l 1066 827 l 717 827 l 618 827 q 438 751 515 827 q 353 543 353 666 q 438 336 353 420 q 618 258 515 258 l 717 258 m 735 1337 l 919 1337 l 919 1153 l 735 1153 l 735 1337 z "},"Č":{"ha":1193,"x_min":54,"x_max":1179,"o":"m 717 258 l 1179 258 l 1048 0 l 618 0 q 212 167 378 0 q 54 543 54 325 q 213 920 54 762 q 618 1086 379 1086 l 1173 1086 l 1066 827 l 717 827 l 618 827 q 438 751 515 827 q 353 543 353 666 q 438 336 353 420 q 618 258 515 258 l 717 258 m 1141 1390 l 937 1112 l 650 1112 l 446 1390 l 696 1390 l 793 1251 l 890 1390 l 1141 1390 z "},"č":{"ha":1193,"x_min":54,"x_max":1179,"o":"m 717 258 l 1179 258 l 1048 0 l 618 0 q 212 167 378 0 q 54 543 54 325 q 213 920 54 762 q 618 1086 379 1086 l 1173 1086 l 1066 827 l 717 827 l 618 827 q 438 751 515 827 q 353 543 353 666 q 438 336 353 420 q 618 258 515 258 l 717 258 m 1141 1390 l 937 1112 l 650 1112 l 446 1390 l 696 1390 l 793 1251 l 890 1390 l 1141 1390 z "},"Ď":{"ha":1208,"x_min":54,"x_max":1181,"o":"m 353 827 l 353 0 l 54 0 l 54 1086 l 618 1086 q 1023 919 857 1086 q 1181 543 1181 762 q 1023 167 1181 325 q 618 0 857 0 l 368 0 l 498 258 l 618 258 q 796 335 720 258 q 882 543 882 420 q 797 751 882 666 q 618 827 720 827 l 353 827 m 897 1390 l 693 1112 l 406 1112 l 202 1390 l 452 1390 l 549 1251 l 647 1390 l 897 1390 z "},"ď":{"ha":1208,"x_min":54,"x_max":1181,"o":"m 353 827 l 353 0 l 54 0 l 54 1086 l 618 1086 q 1023 919 857 1086 q 1181 543 1181 762 q 1023 167 1181 325 q 618 0 857 0 l 368 0 l 498 258 l 618 258 q 796 335 720 258 q 882 543 882 420 q 797 751 882 666 q 618 827 720 827 l 353 827 m 897 1390 l 693 1112 l 406 1112 l 202 1390 l 452 1390 l 549 1251 l 647 1390 l 897 1390 z "},"Đ":{"ha":1205,"x_min":-41,"x_max":1223,"o":"m 669 677 l 669 418 l 396 418 l 396 0 l 97 0 l 97 418 l -41 418 l -41 677 l 97 677 l 97 1086 l 661 1086 q 1065 919 899 1086 q 1223 543 1223 762 q 1066 167 1223 325 q 661 0 899 0 l 397 0 l 528 258 l 661 258 q 839 335 763 258 q 924 543 924 420 q 840 751 924 666 q 661 827 763 827 l 396 827 l 396 677 l 669 677 z "},"đ":{"ha":1205,"x_min":-41,"x_max":1223,"o":"m 669 677 l 669 418 l 396 418 l 396 0 l 97 0 l 97 418 l -41 418 l -41 677 l 97 677 l 97 1086 l 661 1086 q 1065 919 899 1086 q 1223 543 1223 762 q 1066 167 1223 325 q 661 0 899 0 l 397 0 l 528 258 l 661 258 q 839 335 763 258 q 924 543 924 420 q 840 751 924 666 q 661 827 763 827 l 396 827 l 396 677 l 669 677 z "},"Ē":{"ha":1062,"x_min":54,"x_max":1048,"o":"m 353 827 l 353 0 l 54 0 l 54 1086 l 1048 1086 l 941 827 l 353 827 m 475 672 l 1048 672 l 941 414 l 374 414 l 475 672 m 1041 258 l 934 0 l 368 0 l 498 258 l 1041 258 m 785 1310 l 785 1147 l 319 1147 l 319 1310 l 785 1310 z "},"ē":{"ha":1062,"x_min":54,"x_max":1048,"o":"m 353 827 l 353 0 l 54 0 l 54 1086 l 1048 1086 l 941 827 l 353 827 m 475 672 l 1048 672 l 941 414 l 374 414 l 475 672 m 1041 258 l 934 0 l 368 0 l 498 258 l 1041 258 m 785 1310 l 785 1147 l 319 1147 l 319 1310 l 785 1310 z "},"Ĕ":{"ha":1062,"x_min":54,"x_max":1048,"o":"m 353 827 l 353 0 l 54 0 l 54 1086 l 1048 1086 l 941 827 l 353 827 m 475 672 l 1048 672 l 941 414 l 374 414 l 475 672 m 1041 258 l 934 0 l 368 0 l 498 258 l 1041 258 m 846 1390 q 768 1206 846 1284 q 556 1120 682 1120 l 556 1119 l 547 1119 q 336 1206 422 1119 q 258 1390 258 1284 l 451 1390 q 487 1301 451 1336 q 547 1274 513 1274 l 556 1274 q 616 1301 589 1274 q 652 1390 652 1336 l 846 1390 z "},"ĕ":{"ha":1062,"x_min":54,"x_max":1048,"o":"m 353 827 l 353 0 l 54 0 l 54 1086 l 1048 1086 l 941 827 l 353 827 m 475 672 l 1048 672 l 941 414 l 374 414 l 475 672 m 1041 258 l 934 0 l 368 0 l 498 258 l 1041 258 m 845 1390 q 767 1206 845 1284 q 556 1120 682 1120 l 556 1119 l 547 1119 q 336 1206 422 1119 q 258 1390 258 1284 l 451 1390 q 486 1301 451 1336 q 547 1274 513 1274 l 556 1274 q 616 1301 589 1274 q 652 1390 652 1336 l 845 1390 z "},"Ė":{"ha":1062,"x_min":54,"x_max":1048,"o":"m 353 827 l 353 0 l 54 0 l 54 1086 l 1048 1086 l 941 827 l 353 827 m 475 672 l 1048 672 l 941 414 l 374 414 l 475 672 m 1041 258 l 934 0 l 368 0 l 498 258 l 1041 258 m 460 1337 l 644 1337 l 644 1153 l 460 1153 l 460 1337 z "},"ė":{"ha":1062,"x_min":54,"x_max":1048,"o":"m 353 827 l 353 0 l 54 0 l 54 1086 l 1048 1086 l 941 827 l 353 827 m 475 672 l 1048 672 l 941 414 l 374 414 l 475 672 m 1041 258 l 934 0 l 368 0 l 498 258 l 1041 258 m 460 1337 l 644 1337 l 644 1153 l 460 1153 l 460 1337 z "},"Ę":{"ha":1059,"x_min":7,"x_max":1034,"o":"m 306 827 l 306 0 l 7 0 l 7 1086 l 977 1086 l 977 827 l 306 827 m 448 672 l 1001 672 l 894 414 l 347 414 l 448 672 m 625 0 l 313 0 l 444 258 l 1034 258 l 927 0 l 859 0 l 808 -47 l 795 -58 q 717 -185 727 -125 q 731 -251 709 -227 l 732 -252 l 732 -252 q 772 -268 749 -269 q 836 -239 804 -267 l 899 -187 l 1029 -287 l 966 -339 q 779 -412 883 -409 q 591 -342 664 -416 l 585 -336 q 538 -166 521 -265 q 625 0 553 -83 z "},"ę":{"ha":1059,"x_min":7,"x_max":1034,"o":"m 306 827 l 306 0 l 7 0 l 7 1086 l 977 1086 l 977 827 l 306 827 m 448 672 l 1001 672 l 894 414 l 347 414 l 448 672 m 625 0 l 313 0 l 444 258 l 1034 258 l 927 0 l 859 0 l 808 -47 l 795 -58 q 717 -185 727 -125 q 731 -251 709 -227 l 732 -252 l 732 -252 q 772 -268 749 -269 q 836 -239 804 -267 l 899 -187 l 1029 -287 l 966 -339 q 779 -412 883 -409 q 591 -342 664 -416 l 585 -336 q 538 -166 521 -265 q 625 0 553 -83 z "},"Ě":{"ha":1062,"x_min":54,"x_max":1048,"o":"m 353 827 l 353 0 l 54 0 l 54 1086 l 1048 1086 l 941 827 l 353 827 m 475 672 l 1048 672 l 941 414 l 374 414 l 475 672 m 1041 258 l 934 0 l 368 0 l 498 258 l 1041 258 m 899 1390 l 695 1112 l 408 1112 l 204 1390 l 454 1390 l 551 1251 l 649 1390 l 899 1390 z "},"ě":{"ha":1062,"x_min":54,"x_max":1048,"o":"m 353 827 l 353 0 l 54 0 l 54 1086 l 1048 1086 l 941 827 l 353 827 m 475 672 l 1048 672 l 941 414 l 374 414 l 475 672 m 1041 258 l 934 0 l 368 0 l 498 258 l 1041 258 m 899 1390 l 695 1112 l 408 1112 l 204 1390 l 454 1390 l 551 1251 l 649 1390 l 899 1390 z "},"Ĝ":{"ha":1246,"x_min":34,"x_max":1192,"o":"m 696 258 l 893 258 l 893 591 l 1192 690 l 1192 0 l 597 0 q 193 167 359 0 q 34 543 34 325 q 193 920 34 762 q 597 1086 359 1086 l 1187 1086 l 1080 827 l 696 827 l 597 827 q 418 751 495 827 q 333 543 333 666 q 418 336 333 420 q 597 258 495 258 l 696 258 m 846 1112 l 749 1251 l 652 1112 l 401 1112 l 606 1390 l 892 1390 l 1097 1112 l 846 1112 z "},"ĝ":{"ha":1246,"x_min":34,"x_max":1192,"o":"m 696 258 l 893 258 l 893 591 l 1192 690 l 1192 0 l 597 0 q 193 167 359 0 q 34 543 34 325 q 193 920 34 762 q 597 1086 359 1086 l 1187 1086 l 1080 827 l 696 827 l 597 827 q 418 751 495 827 q 333 543 333 666 q 418 336 333 420 q 597 258 495 258 l 696 258 m 846 1112 l 749 1251 l 652 1112 l 401 1112 l 606 1390 l 892 1390 l 1097 1112 l 846 1112 z "},"Ğ":{"ha":1246,"x_min":34,"x_max":1192,"o":"m 696 258 l 893 258 l 893 591 l 1192 690 l 1192 0 l 597 0 q 193 167 359 0 q 34 543 34 325 q 193 920 34 762 q 597 1086 359 1086 l 1187 1086 l 1080 827 l 696 827 l 597 827 q 418 751 495 827 q 333 543 333 666 q 418 336 333 420 q 597 258 495 258 l 696 258 m 1063 1390 q 985 1206 1063 1284 q 774 1120 899 1120 l 774 1119 l 765 1119 q 553 1206 640 1119 q 475 1390 475 1284 l 669 1390 q 705 1301 669 1336 q 765 1274 730 1274 l 774 1274 q 834 1301 807 1274 q 870 1390 870 1336 l 1063 1390 z "},"ğ":{"ha":1246,"x_min":34,"x_max":1192,"o":"m 696 258 l 893 258 l 893 591 l 1192 690 l 1192 0 l 597 0 q 193 167 359 0 q 34 543 34 325 q 193 920 34 762 q 597 1086 359 1086 l 1187 1086 l 1080 827 l 696 827 l 597 827 q 418 751 495 827 q 333 543 333 666 q 418 336 333 420 q 597 258 495 258 l 696 258 m 1063 1390 q 985 1206 1063 1284 q 774 1120 899 1120 l 774 1119 l 764 1119 q 553 1206 640 1119 q 475 1390 475 1284 l 669 1390 q 704 1301 669 1336 q 764 1274 730 1274 l 774 1274 q 834 1301 807 1274 q 869 1390 869 1336 l 1063 1390 z "},"Ġ":{"ha":1246,"x_min":34,"x_max":1192,"o":"m 696 258 l 893 258 l 893 591 l 1192 690 l 1192 0 l 597 0 q 193 167 359 0 q 34 543 34 325 q 193 920 34 762 q 597 1086 359 1086 l 1187 1086 l 1080 827 l 696 827 l 597 827 q 418 751 495 827 q 333 543 333 666 q 418 336 333 420 q 597 258 495 258 l 696 258 m 725 1337 l 909 1337 l 909 1153 l 725 1153 l 725 1337 z "},"ġ":{"ha":1246,"x_min":34,"x_max":1192,"o":"m 696 258 l 893 258 l 893 591 l 1192 690 l 1192 0 l 597 0 q 193 167 359 0 q 34 543 34 325 q 193 920 34 762 q 597 1086 359 1086 l 1187 1086 l 1080 827 l 696 827 l 597 827 q 418 751 495 827 q 333 543 333 666 q 418 336 333 420 q 597 258 495 258 l 696 258 m 725 1337 l 909 1337 l 909 1153 l 725 1153 l 725 1337 z "},"Ģ":{"ha":1246,"x_min":34,"x_max":1192,"o":"m 696 258 l 893 258 l 893 591 l 1192 690 l 1192 0 l 597 0 q 193 167 359 0 q 34 543 34 325 q 193 920 34 762 q 597 1086 359 1086 l 1187 1086 l 1080 827 l 696 827 l 597 827 q 418 751 495 827 q 333 543 333 666 q 418 336 333 420 q 597 258 495 258 l 696 258 m 655 -460 l 782 -460 l 876 -245 l 877 -245 l 877 -64 l 648 -64 l 648 -245 l 709 -245 l 655 -460 z "},"ģ":{"ha":1246,"x_min":34,"x_max":1192,"o":"m 696 258 l 893 258 l 893 591 l 1192 690 l 1192 0 l 597 0 q 193 167 359 0 q 34 543 34 325 q 193 920 34 762 q 597 1086 359 1086 l 1187 1086 l 1080 827 l 696 827 l 597 827 q 418 751 495 827 q 333 543 333 666 q 418 336 333 420 q 597 258 495 258 l 696 258 m 655 -460 l 782 -460 l 876 -245 l 877 -245 l 877 -64 l 648 -64 l 648 -245 l 709 -245 l 655 -460 z "},"Ĥ":{"ha":1177,"x_min":54,"x_max":1123,"o":"m 353 0 l 54 0 l 54 1086 l 353 1086 l 353 0 m 366 414 l 494 672 l 824 672 l 824 1086 l 1123 1086 l 1123 0 l 824 0 l 824 414 l 366 414 m 686 1112 l 589 1251 l 492 1112 l 241 1112 l 446 1390 l 732 1390 l 937 1112 l 686 1112 z "},"ĥ":{"ha":1177,"x_min":54,"x_max":1123,"o":"m 353 0 l 54 0 l 54 1086 l 353 1086 l 353 0 m 366 414 l 494 672 l 824 672 l 824 1086 l 1123 1086 l 1123 0 l 824 0 l 824 414 l 366 414 m 686 1112 l 589 1251 l 492 1112 l 241 1112 l 446 1390 l 732 1390 l 937 1112 l 686 1112 z "},"Ħ":{"ha":1284,"x_min":7,"x_max":1278,"o":"m 407 746 l 407 0 l 108 0 l 108 746 l 7 746 l 7 957 l 108 957 l 108 1086 l 407 1086 l 407 957 l 878 957 l 878 1086 l 1177 1086 l 1177 957 l 1278 957 l 1278 746 l 1177 746 l 1177 0 l 878 0 l 878 387 l 408 387 l 537 645 l 878 645 l 878 746 l 407 746 z "},"ħ":{"ha":1284,"x_min":7,"x_max":1278,"o":"m 407 746 l 407 0 l 108 0 l 108 746 l 7 746 l 7 957 l 108 957 l 108 1086 l 407 1086 l 407 957 l 878 957 l 878 1086 l 1177 1086 l 1177 957 l 1278 957 l 1278 746 l 1177 746 l 1177 0 l 878 0 l 878 387 l 408 387 l 537 645 l 878 645 l 878 746 l 407 746 z "},"Ĩ":{"ha":503,"x_min":-45,"x_max":547,"o":"m 401 0 l 102 0 l 102 1086 l 401 1086 l 401 0 m -45 1119 l -45 1165 q 5 1282 -45 1236 q 146 1337 58 1337 q 266 1310 226 1337 q 320 1251 290 1295 q 351 1232 334 1232 q 369 1238 363 1232 q 381 1270 381 1250 l 381 1320 l 548 1320 l 548 1270 q 497 1154 548 1202 q 345 1099 441 1099 q 233 1126 275 1099 q 176 1185 208 1143 q 146 1203 164 1203 q 132 1199 137 1203 q 121 1165 121 1188 l 121 1119 l -45 1119 z "},"ĩ":{"ha":503,"x_min":-41,"x_max":551,"o":"m 405 0 l 106 0 l 106 1086 l 405 1086 l 405 0 m -41 1119 l -41 1165 q 8 1282 -41 1236 q 149 1337 62 1337 q 270 1310 229 1337 q 324 1251 294 1295 q 354 1232 338 1232 q 373 1238 367 1232 q 385 1270 385 1250 l 385 1320 l 551 1320 l 551 1270 q 500 1154 551 1202 q 348 1099 446 1099 q 237 1126 279 1099 q 180 1185 212 1143 q 149 1203 168 1203 q 136 1199 141 1203 q 125 1165 125 1188 l 125 1119 l -41 1119 z "},"Ī":{"ha":503,"x_min":18,"x_max":484,"o":"m 401 0 l 102 0 l 102 1086 l 401 1086 l 401 0 m 484 1310 l 484 1147 l 18 1147 l 18 1310 l 484 1310 z "},"ī":{"ha":503,"x_min":17,"x_max":483,"o":"m 399 0 l 100 0 l 100 1086 l 399 1086 l 399 0 m 483 1310 l 483 1147 l 17 1147 l 17 1310 l 483 1310 z "},"Ĭ":{"ha":503,"x_min":-43,"x_max":545,"o":"m 401 0 l 102 0 l 102 1086 l 401 1086 l 401 0 m 545 1390 q 467 1206 545 1284 q 256 1120 381 1120 l 256 1119 l 247 1119 q 35 1206 122 1119 q -43 1390 -43 1284 l 151 1390 q 186 1301 151 1336 q 247 1274 212 1274 l 256 1274 q 316 1301 289 1274 q 352 1390 352 1336 l 545 1390 z "},"ĭ":{"ha":503,"x_min":-47,"x_max":541,"o":"m 396 0 l 97 0 l 97 1086 l 396 1086 l 396 0 m 541 1390 q 463 1206 541 1284 q 251 1120 376 1120 l 251 1119 l 242 1119 q 31 1206 117 1119 q -47 1390 -47 1284 l 146 1390 q 182 1301 146 1336 q 242 1274 208 1274 l 251 1274 q 311 1301 284 1274 q 347 1390 347 1336 l 541 1390 z "},"Į":{"ha":503,"x_min":37,"x_max":545,"o":"m 367 0 l 324 -40 l 311 -52 q 233 -178 243 -119 q 247 -244 225 -220 l 248 -245 l 248 -245 q 288 -261 264 -262 q 352 -232 319 -260 l 415 -180 l 545 -280 l 482 -332 q 295 -405 399 -402 q 106 -335 180 -409 l 101 -329 q 54 -159 37 -258 q 135 0 68 -79 l 107 0 l 107 1086 l 406 1086 l 406 0 l 367 0 z "},"į":{"ha":503,"x_min":37,"x_max":545,"o":"m 367 0 l 324 -40 l 311 -52 q 233 -178 243 -119 q 247 -244 225 -220 l 248 -245 l 248 -245 q 288 -261 264 -262 q 352 -232 319 -260 l 415 -180 l 545 -280 l 482 -332 q 295 -405 399 -402 q 106 -335 180 -409 l 101 -329 q 54 -159 37 -258 q 135 0 68 -79 l 107 0 l 107 1086 l 406 1086 l 406 0 l 367 0 z "},"İ":{"ha":503,"x_min":102,"x_max":401,"o":"m 401 0 l 102 0 l 102 1086 l 401 1086 l 401 0 m 159 1337 l 343 1337 l 343 1153 l 159 1153 l 159 1337 z "},"Ĳ":{"ha":1235,"x_min":102,"x_max":1146,"o":"m 401 0 l 102 0 l 102 1086 l 401 1086 l 401 0 m 790 272 q 823 288 807 272 q 847 350 847 312 l 847 1086 l 1146 1086 l 1146 336 q 1048 106 1146 203 q 790 0 943 0 l 407 0 l 532 272 l 790 272 z "},"ĳ":{"ha":1235,"x_min":102,"x_max":1146,"o":"m 401 0 l 102 0 l 102 1086 l 401 1086 l 401 0 m 790 272 q 823 288 807 272 q 847 350 847 312 l 847 1086 l 1146 1086 l 1146 336 q 1048 106 1146 203 q 790 0 943 0 l 407 0 l 532 272 l 790 272 z "},"Ĵ":{"ha":813,"x_min":6,"x_max":945,"o":"m 389 272 q 422 288 406 272 q 446 350 446 312 l 446 1086 l 745 1086 l 745 336 q 648 106 745 203 q 389 0 543 0 l 6 0 l 131 272 l 389 272 m 695 1112 l 597 1251 l 500 1112 l 250 1112 l 454 1390 l 741 1390 l 945 1112 l 695 1112 z "},"ĵ":{"ha":813,"x_min":6,"x_max":945,"o":"m 389 272 q 422 288 406 272 q 446 350 446 312 l 446 1086 l 745 1086 l 745 336 q 648 106 745 203 q 389 0 543 0 l 6 0 l 131 272 l 389 272 m 695 1112 l 597 1251 l 500 1112 l 250 1112 l 454 1390 l 741 1390 l 945 1112 l 695 1112 z "},"Ķ":{"ha":1140,"x_min":75,"x_max":1140,"o":"m 374 1084 l 376 1084 l 376 754 l 688 1086 l 1077 1086 l 595 593 l 1140 0 l 761 0 l 376 401 l 376 0 l 75 0 l 75 1086 l 374 1086 l 374 1084 m 500 -460 l 627 -460 l 722 -245 l 722 -245 l 722 -64 l 493 -64 l 493 -245 l 554 -245 l 500 -460 z "},"ķ":{"ha":1140,"x_min":75,"x_max":1140,"o":"m 374 1084 l 376 1084 l 376 754 l 688 1086 l 1077 1086 l 595 593 l 1140 0 l 761 0 l 376 401 l 376 0 l 75 0 l 75 1086 l 374 1086 l 374 1084 m 500 -460 l 627 -460 l 722 -245 l 722 -245 l 722 -64 l 493 -64 l 493 -245 l 554 -245 l 500 -460 z "},"ĸ":{"ha":1140,"x_min":75,"x_max":1140,"o":"m 374 1084 l 376 1084 l 376 754 l 688 1086 l 1077 1086 l 595 593 l 1140 0 l 761 0 l 376 401 l 376 0 l 75 0 l 75 1086 l 374 1086 l 374 1084 z "},"Ĺ":{"ha":1054,"x_min":75,"x_max":1041,"o":"m 1041 258 l 934 0 l 388 0 l 519 258 l 1041 258 m 75 0 l 75 1086 l 374 1086 l 374 0 l 75 0 m 357 1387 l 629 1387 l 435 1117 l 211 1117 l 357 1387 z "},"ĺ":{"ha":1054,"x_min":75,"x_max":1041,"o":"m 1041 258 l 934 0 l 388 0 l 519 258 l 1041 258 m 75 0 l 75 1086 l 374 1086 l 374 0 l 75 0 m 357 1387 l 629 1387 l 435 1117 l 211 1117 l 357 1387 z "},"Ļ":{"ha":1041,"x_min":68,"x_max":1034,"o":"m 1034 258 l 927 0 l 381 0 l 512 258 l 1034 258 m 68 0 l 68 1086 l 367 1086 l 367 0 l 68 0 m 420 -460 l 547 -460 l 641 -245 l 642 -245 l 642 -64 l 412 -64 l 412 -245 l 473 -245 l 420 -460 z "},"ļ":{"ha":1041,"x_min":68,"x_max":1034,"o":"m 1034 258 l 927 0 l 381 0 l 512 258 l 1034 258 m 68 0 l 68 1086 l 367 1086 l 367 0 l 68 0 m 420 -460 l 547 -460 l 641 -245 l 642 -245 l 642 -64 l 412 -64 l 412 -245 l 473 -245 l 420 -460 z "},"Ľ":{"ha":1054,"x_min":75,"x_max":1041,"o":"m 1041 258 l 934 0 l 388 0 l 519 258 l 1041 258 m 75 0 l 75 1086 l 374 1086 l 374 0 l 75 0 m 647 691 l 774 691 l 868 906 l 869 906 l 869 1088 l 640 1088 l 640 906 l 701 906 l 647 691 z "},"ľ":{"ha":1054,"x_min":75,"x_max":1041,"o":"m 1041 258 l 934 0 l 388 0 l 519 258 l 1041 258 m 75 0 l 75 1086 l 374 1086 l 374 0 l 75 0 m 647 691 l 774 691 l 868 906 l 869 906 l 869 1088 l 640 1088 l 640 906 l 701 906 l 647 691 z "},"Ŀ":{"ha":1041,"x_min":68,"x_max":1034,"o":"m 1034 258 l 927 0 l 381 0 l 512 258 l 1034 258 m 68 0 l 68 1086 l 367 1086 l 367 0 l 68 0 m 606 659 l 780 659 l 780 486 l 606 486 l 606 659 z "},"ŀ":{"ha":1041,"x_min":68,"x_max":1034,"o":"m 1034 258 l 927 0 l 381 0 l 512 258 l 1034 258 m 68 0 l 68 1086 l 367 1086 l 367 0 l 68 0 m 606 659 l 780 659 l 780 486 l 606 486 l 606 659 z "},"Ł":{"ha":972,"x_min":-34,"x_max":951,"o":"m 505 614 l 348 490 l 348 258 l 951 258 l 951 0 l 48 0 l 48 255 l -34 191 l -34 473 l 48 537 l 48 1086 l 348 1086 l 348 772 l 505 896 l 505 614 z "},"ł":{"ha":972,"x_min":-34,"x_max":951,"o":"m 505 614 l 348 490 l 348 258 l 951 258 l 951 0 l 48 0 l 48 255 l -34 191 l -34 473 l 48 537 l 48 1086 l 348 1086 l 348 772 l 505 896 l 505 614 z "},"Ń":{"ha":1187,"x_min":75,"x_max":1112,"o":"m 357 576 l 357 0 l 75 0 l 75 1086 l 292 1086 l 830 440 l 830 1086 l 1112 1086 l 1112 0 l 849 0 l 357 576 m 600 1391 l 872 1391 l 678 1121 l 454 1121 l 600 1391 z "},"ń":{"ha":1187,"x_min":75,"x_max":1112,"o":"m 370 549 l 370 0 l 75 0 l 75 1086 l 298 1086 l 817 467 l 817 1086 l 1112 1086 l 1112 0 l 842 0 l 370 549 m 600 1391 l 872 1391 l 678 1121 l 454 1121 l 600 1391 z "},"Ņ":{"ha":1187,"x_min":75,"x_max":1112,"o":"m 357 576 l 357 0 l 75 0 l 75 1086 l 292 1086 l 830 440 l 830 1086 l 1112 1086 l 1112 0 l 849 0 l 357 576 m 486 -460 l 613 -460 l 707 -245 l 708 -245 l 708 -64 l 479 -64 l 479 -245 l 540 -245 l 486 -460 z "},"ņ":{"ha":1187,"x_min":75,"x_max":1112,"o":"m 370 549 l 370 0 l 75 0 l 75 1086 l 298 1086 l 817 467 l 817 1086 l 1112 1086 l 1112 0 l 842 0 l 370 549 m 486 -460 l 613 -460 l 707 -245 l 708 -245 l 708 -64 l 479 -64 l 479 -245 l 540 -245 l 486 -460 z "},"Ň":{"ha":1187,"x_min":75,"x_max":1112,"o":"m 357 576 l 357 0 l 75 0 l 75 1086 l 292 1086 l 830 440 l 830 1086 l 1112 1086 l 1112 0 l 849 0 l 357 576 m 941 1390 l 737 1112 l 450 1112 l 246 1390 l 496 1390 l 593 1251 l 691 1390 l 941 1390 z "},"ň":{"ha":1187,"x_min":75,"x_max":1112,"o":"m 370 549 l 370 0 l 75 0 l 75 1086 l 298 1086 l 817 467 l 817 1086 l 1112 1086 l 1112 0 l 842 0 l 370 549 m 941 1390 l 737 1112 l 450 1112 l 246 1390 l 496 1390 l 593 1251 l 691 1390 l 941 1390 z "},"ŉ":{"ha":1419,"x_min":22,"x_max":1336,"o":"m 594 549 l 594 0 l 298 0 l 298 1086 l 522 1086 l 1040 467 l 1040 1086 l 1336 1086 l 1336 0 l 1066 0 l 594 549 m 29 691 l 156 691 l 250 906 l 251 906 l 251 1088 l 22 1088 l 22 906 l 83 906 l 29 691 z "},"Ŋ":{"ha":1081,"x_min":7,"x_max":1027,"o":"m 306 1016 q 517 1088 352 1088 q 884 975 746 1088 q 1027 665 1027 859 l 1027 372 q 920 77 1027 181 q 439 -7 761 -77 l 382 5 l 465 254 l 513 242 q 695 248 657 211 q 728 372 728 280 l 728 665 q 678 789 728 748 q 517 830 627 830 q 355 789 407 830 q 306 665 306 748 l 306 1 l 7 1 l 7 1088 l 306 1088 l 306 1016 z "},"ŋ":{"ha":1081,"x_min":7,"x_max":1027,"o":"m 306 1016 q 517 1088 352 1088 q 884 975 746 1088 q 1027 665 1027 859 l 1027 372 q 920 77 1027 181 q 439 -7 761 -77 l 382 5 l 465 254 l 513 242 q 695 248 657 211 q 728 372 728 280 l 728 665 q 678 789 728 748 q 517 830 627 830 q 355 789 407 830 q 306 665 306 748 l 306 1 l 7 1 l 7 1088 l 306 1088 l 306 1016 z "},"Ō":{"ha":1329,"x_min":34,"x_max":1295,"o":"m 665 -20 q 193 146 359 -20 q 35 496 35 304 l 34 496 q 193 947 34 789 q 665 1113 359 1113 q 1137 946 970 1113 q 1295 543 1295 789 q 1137 146 1295 304 q 665 -20 970 -20 m 665 238 q 911 315 833 238 q 996 543 996 399 q 911 779 996 693 q 665 854 834 854 q 418 778 495 854 q 333 543 333 693 q 418 315 333 400 q 665 238 495 238 m 897 1310 l 897 1147 l 431 1147 l 431 1310 l 897 1310 z "},"ō":{"ha":1329,"x_min":34,"x_max":1295,"o":"m 665 -20 q 193 146 359 -20 q 35 496 35 304 l 34 496 q 193 947 34 789 q 665 1113 359 1113 q 1137 946 970 1113 q 1295 543 1295 789 q 1137 146 1295 304 q 665 -20 970 -20 m 665 238 q 911 315 833 238 q 996 543 996 399 q 911 779 996 693 q 665 854 834 854 q 418 778 495 854 q 333 543 333 693 q 418 315 333 400 q 665 238 495 238 m 897 1310 l 897 1147 l 431 1147 l 431 1310 l 897 1310 z "},"Ŏ":{"ha":1329,"x_min":34,"x_max":1295,"o":"m 665 -20 q 193 146 359 -20 q 35 496 35 304 l 34 496 q 193 947 34 789 q 665 1113 359 1113 q 1137 946 970 1113 q 1295 543 1295 789 q 1137 146 1295 304 q 665 -20 970 -20 m 665 238 q 911 315 833 238 q 996 543 996 399 q 911 779 996 693 q 665 854 834 854 q 418 778 495 854 q 333 543 333 693 q 418 315 333 400 q 665 238 495 238 m 958 1390 q 880 1206 958 1284 q 669 1120 794 1120 l 669 1119 l 660 1119 q 448 1206 535 1119 q 370 1390 370 1284 l 564 1390 q 600 1301 564 1336 q 660 1274 625 1274 l 669 1274 q 729 1301 702 1274 q 765 1390 765 1336 l 958 1390 z "},"ŏ":{"ha":1329,"x_min":34,"x_max":1295,"o":"m 665 -20 q 193 146 359 -20 q 35 496 35 304 l 34 496 q 193 947 34 789 q 665 1113 359 1113 q 1137 946 970 1113 q 1295 543 1295 789 q 1137 146 1295 304 q 665 -20 970 -20 m 665 238 q 911 315 833 238 q 996 543 996 399 q 911 779 996 693 q 665 854 834 854 q 418 778 495 854 q 333 543 333 693 q 418 315 333 400 q 665 238 495 238 m 958 1390 q 880 1206 958 1284 q 669 1120 794 1120 l 669 1119 l 660 1119 q 448 1206 535 1119 q 370 1390 370 1284 l 564 1390 q 600 1301 564 1336 q 660 1274 626 1274 l 669 1274 q 729 1301 702 1274 q 765 1390 765 1336 l 958 1390 z "},"Ő":{"ha":1329,"x_min":34,"x_max":1295,"o":"m 665 -20 q 193 146 359 -20 q 35 496 35 304 l 34 496 q 193 947 34 789 q 665 1113 359 1113 q 1137 946 970 1113 q 1295 543 1295 789 q 1137 146 1295 304 q 665 -20 970 -20 m 665 238 q 911 315 833 238 q 996 543 996 399 q 911 779 996 693 q 665 854 834 854 q 418 778 495 854 q 333 543 333 693 q 418 315 333 400 q 665 238 495 238 m 460 1391 l 665 1391 l 471 1121 l 314 1121 l 460 1391 m 811 1391 l 1015 1391 l 821 1121 l 665 1121 l 811 1391 z "},"ő":{"ha":1329,"x_min":34,"x_max":1295,"o":"m 665 -20 q 193 146 359 -20 q 35 496 35 304 l 34 496 q 193 947 34 789 q 665 1113 359 1113 q 1137 946 970 1113 q 1295 543 1295 789 q 1137 146 1295 304 q 665 -20 970 -20 m 665 238 q 911 315 833 238 q 996 543 996 399 q 911 779 996 693 q 665 854 834 854 q 418 778 495 854 q 333 543 333 693 q 418 315 333 400 q 665 238 495 238 m 460 1391 l 665 1391 l 471 1121 l 314 1121 l 460 1391 m 811 1391 l 1015 1391 l 821 1121 l 665 1121 l 811 1391 z "},"Œ":{"ha":2054,"x_min":41,"x_max":2029,"o":"m 1002 570 q 918 779 995 701 q 671 854 841 854 q 425 778 502 854 q 340 543 340 693 q 425 315 340 400 q 671 238 502 238 q 918 315 840 238 q 1002 518 995 393 l 1002 570 m 1436 672 l 1996 672 l 1889 414 l 1336 414 l 1436 672 m 1002 37 q 671 -20 920 -20 q 199 146 366 -20 q 41 496 41 304 l 41 496 q 199 947 41 789 q 671 1113 366 1113 q 1002 1055 920 1113 l 1002 1086 l 1971 1086 l 1971 827 l 1301 827 l 1301 0 l 1002 0 l 1002 37 m 2029 258 l 1922 0 l 1302 0 l 1433 258 l 2029 258 z "},"œ":{"ha":2054,"x_min":41,"x_max":2029,"o":"m 1002 570 q 918 779 995 701 q 671 854 841 854 q 425 778 502 854 q 340 543 340 693 q 425 315 340 400 q 671 238 502 238 q 918 315 840 238 q 1002 518 995 393 l 1002 570 m 1436 672 l 1996 672 l 1889 414 l 1336 414 l 1436 672 m 1002 37 q 671 -20 920 -20 q 199 146 366 -20 q 41 496 41 304 l 41 496 q 199 947 41 789 q 671 1113 366 1113 q 1002 1055 920 1113 l 1002 1086 l 1971 1086 l 1971 827 l 1301 827 l 1301 0 l 1002 0 l 1002 37 m 2029 258 l 1922 0 l 1302 0 l 1433 258 l 2029 258 z "},"Ŕ":{"ha":1256,"x_min":68,"x_max":1256,"o":"m 576 354 l 379 354 l 508 612 l 806 612 q 861 637 836 612 q 893 720 893 670 q 861 803 893 770 q 806 827 836 827 l 367 827 l 367 0 l 68 0 l 68 1086 l 806 1086 q 1086 971 972 1086 q 1192 720 1192 865 q 1086 469 1192 574 q 940 366 989 371 l 1256 0 l 883 0 l 576 354 m 669 1391 l 941 1391 l 747 1121 l 522 1121 l 669 1391 z "},"ŕ":{"ha":1256,"x_min":68,"x_max":1256,"o":"m 576 354 l 379 354 l 508 612 l 806 612 q 861 637 836 612 q 893 720 893 670 q 861 803 893 770 q 806 827 836 827 l 367 827 l 367 0 l 68 0 l 68 1086 l 806 1086 q 1086 971 972 1086 q 1192 720 1192 865 q 1086 469 1192 574 q 940 366 989 371 l 1256 0 l 883 0 l 576 354 m 669 1391 l 941 1391 l 747 1121 l 522 1121 l 669 1391 z "},"Ŗ":{"ha":1256,"x_min":68,"x_max":1256,"o":"m 576 354 l 379 354 l 508 612 l 806 612 q 861 637 836 612 q 893 720 893 670 q 861 803 893 770 q 806 827 836 827 l 367 827 l 367 0 l 68 0 l 68 1086 l 806 1086 q 1086 971 972 1086 q 1192 720 1192 865 q 1086 469 1192 574 q 940 366 989 371 l 1256 0 l 883 0 l 576 354 m 508 -397 l 635 -397 l 729 -182 l 730 -182 l 730 0 l 500 0 l 500 -182 l 562 -182 l 508 -397 z "},"ŗ":{"ha":1256,"x_min":68,"x_max":1256,"o":"m 576 354 l 379 354 l 508 612 l 806 612 q 861 637 836 612 q 893 720 893 670 q 861 803 893 770 q 806 827 836 827 l 367 827 l 367 0 l 68 0 l 68 1086 l 806 1086 q 1086 971 972 1086 q 1192 720 1192 865 q 1086 469 1192 574 q 940 366 989 371 l 1256 0 l 883 0 l 576 354 m 508 -397 l 635 -397 l 729 -182 l 730 -182 l 730 0 l 500 0 l 500 -182 l 562 -182 l 508 -397 z "},"Ř":{"ha":1256,"x_min":68,"x_max":1256,"o":"m 576 354 l 379 354 l 508 612 l 806 612 q 861 637 836 612 q 893 720 893 670 q 861 803 893 770 q 806 827 836 827 l 367 827 l 367 0 l 68 0 l 68 1086 l 806 1086 q 1086 971 972 1086 q 1192 720 1192 865 q 1086 469 1192 574 q 940 366 989 371 l 1256 0 l 883 0 l 576 354 m 895 1390 l 690 1112 l 404 1112 l 199 1390 l 450 1390 l 547 1251 l 644 1390 l 895 1390 z "},"ř":{"ha":1256,"x_min":68,"x_max":1256,"o":"m 576 354 l 379 354 l 508 612 l 806 612 q 861 637 836 612 q 893 720 893 670 q 861 803 893 770 q 806 827 836 827 l 367 827 l 367 0 l 68 0 l 68 1086 l 806 1086 q 1086 971 972 1086 q 1192 720 1192 865 q 1086 469 1192 574 q 940 366 989 371 l 1256 0 l 883 0 l 576 354 m 895 1390 l 690 1112 l 404 1112 l 199 1390 l 450 1390 l 547 1251 l 644 1390 l 895 1390 z "},"Ś":{"ha":1054,"x_min":7,"x_max":1047,"o":"m 1042 1086 l 935 827 l 412 827 q 372 812 386 827 q 357 770 357 798 q 427 709 357 734 q 612 659 484 688 q 837 586 740 629 q 1044 290 1047 492 q 925 68 1041 150 q 691 0 827 0 l 7 0 l 114 258 l 691 258 q 734 269 721 258 q 745 293 745 275 q 698 357 746 336 q 487 416 639 384 q 239 496 335 449 q 59 770 60 581 q 170 1004 59 914 q 412 1086 270 1086 l 1042 1086 m 600 1391 l 872 1391 l 678 1121 l 454 1121 l 600 1391 z "},"ś":{"ha":1054,"x_min":7,"x_max":1047,"o":"m 1042 1086 l 935 827 l 412 827 q 372 812 386 827 q 357 770 357 798 q 427 709 357 734 q 612 659 484 688 q 837 586 740 629 q 1044 290 1047 492 q 925 68 1041 150 q 691 0 827 0 l 7 0 l 114 258 l 691 258 q 734 269 721 258 q 745 293 745 275 q 698 357 746 336 q 487 416 639 384 q 239 496 335 449 q 59 770 60 581 q 170 1004 59 914 q 412 1086 270 1086 l 1042 1086 m 600 1391 l 872 1391 l 678 1121 l 454 1121 l 600 1391 z "},"Ŝ":{"ha":1054,"x_min":7,"x_max":1047,"o":"m 1042 1086 l 935 827 l 412 827 q 372 812 386 827 q 357 770 357 798 q 427 709 357 734 q 612 659 484 688 q 837 586 740 629 q 1044 290 1047 492 q 925 68 1041 150 q 691 0 827 0 l 7 0 l 114 258 l 691 258 q 734 269 721 258 q 745 293 745 275 q 698 357 746 336 q 487 416 639 384 q 239 496 335 449 q 59 770 60 581 q 170 1004 59 914 q 412 1086 270 1086 l 1042 1086 m 690 1112 l 593 1251 l 496 1112 l 245 1112 l 450 1390 l 736 1390 l 941 1112 l 690 1112 z "},"ŝ":{"ha":1054,"x_min":7,"x_max":1047,"o":"m 1042 1086 l 935 827 l 412 827 q 372 812 386 827 q 357 770 357 798 q 427 709 357 734 q 612 659 484 688 q 837 586 740 629 q 1044 290 1047 492 q 925 68 1041 150 q 691 0 827 0 l 7 0 l 114 258 l 691 258 q 734 269 721 258 q 745 293 745 275 q 698 357 746 336 q 487 416 639 384 q 239 496 335 449 q 59 770 60 581 q 170 1004 59 914 q 412 1086 270 1086 l 1042 1086 m 690 1112 l 593 1251 l 496 1112 l 245 1112 l 450 1390 l 736 1390 l 941 1112 l 690 1112 z "},"Ş":{"ha":1054,"x_min":7,"x_max":1047,"o":"m 1042 1086 l 935 827 l 412 827 q 372 812 386 827 q 357 770 357 798 q 427 709 357 734 q 612 659 484 688 q 837 586 740 629 q 1044 290 1047 492 q 925 68 1041 150 q 691 0 827 0 l 7 0 l 114 258 l 691 258 q 734 269 721 258 q 745 293 745 275 q 698 357 746 336 q 487 416 639 384 q 239 496 335 449 q 59 770 60 581 q 170 1004 59 914 q 412 1086 270 1086 l 1042 1086 m 381 -62 l 653 -62 l 459 -332 l 235 -332 l 381 -62 z "},"ş":{"ha":1054,"x_min":7,"x_max":1047,"o":"m 1042 1086 l 935 827 l 412 827 q 372 812 386 827 q 357 770 357 798 q 427 709 357 734 q 612 659 484 688 q 837 586 740 629 q 1044 290 1047 492 q 925 68 1041 150 q 691 0 827 0 l 7 0 l 114 258 l 691 258 q 734 269 721 258 q 745 293 745 275 q 698 357 746 336 q 487 416 639 384 q 239 496 335 449 q 59 770 60 581 q 170 1004 59 914 q 412 1086 270 1086 l 1042 1086 m 381 -62 l 653 -62 l 459 -332 l 235 -332 l 381 -62 z "},"Š":{"ha":1054,"x_min":7,"x_max":1047,"o":"m 1042 1086 l 935 827 l 412 827 q 372 812 386 827 q 357 770 357 798 q 427 709 357 734 q 612 659 484 688 q 837 586 740 629 q 1044 290 1047 492 q 925 68 1041 150 q 691 0 827 0 l 7 0 l 114 258 l 691 258 q 734 269 721 258 q 745 293 745 275 q 698 357 746 336 q 487 416 639 384 q 239 496 335 449 q 59 770 60 581 q 170 1004 59 914 q 412 1086 270 1086 l 1042 1086 m 941 1390 l 736 1112 l 450 1112 l 245 1390 l 496 1390 l 593 1251 l 690 1390 l 941 1390 z "},"š":{"ha":1054,"x_min":7,"x_max":1047,"o":"m 1042 1086 l 935 827 l 412 827 q 372 812 386 827 q 357 770 357 798 q 427 709 357 734 q 612 659 484 688 q 837 586 740 629 q 1044 290 1047 492 q 925 68 1041 150 q 691 0 827 0 l 7 0 l 114 258 l 691 258 q 734 269 721 258 q 745 293 745 275 q 698 357 746 336 q 487 416 639 384 q 239 496 335 449 q 59 770 60 581 q 170 1004 59 914 q 412 1086 270 1086 l 1042 1086 m 941 1390 l 736 1112 l 450 1112 l 245 1390 l 496 1390 l 593 1251 l 690 1390 l 941 1390 z "},"Ţ":{"ha":1139,"x_min":7,"x_max":1132,"o":"m 719 828 l 719 0 l 420 0 l 420 828 l 7 828 l 114 1086 l 1132 1086 l 1025 828 l 719 828 m 439 -55 l 711 -55 l 517 -325 l 292 -325 l 439 -55 z "},"ţ":{"ha":1139,"x_min":7,"x_max":1132,"o":"m 719 828 l 719 0 l 420 0 l 420 828 l 7 828 l 114 1086 l 1132 1086 l 1025 828 l 719 828 m 439 -55 l 711 -55 l 517 -325 l 292 -325 l 439 -55 z "},"Ť":{"ha":1139,"x_min":7,"x_max":1132,"o":"m 719 828 l 719 0 l 420 0 l 420 828 l 7 828 l 114 1086 l 1132 1086 l 1025 828 l 719 828 m 917 1390 l 713 1112 l 426 1112 l 222 1390 l 472 1390 l 569 1251 l 667 1390 l 917 1390 z "},"ť":{"ha":1139,"x_min":7,"x_max":1132,"o":"m 719 828 l 719 0 l 420 0 l 420 828 l 7 828 l 114 1086 l 1132 1086 l 1025 828 l 719 828 m 917 1390 l 713 1112 l 426 1112 l 222 1390 l 472 1390 l 569 1251 l 667 1390 l 917 1390 z "},"Ŧ":{"ha":1008,"x_min":7,"x_max":1002,"o":"m 130 420 l 130 679 l 355 679 l 355 828 l 7 828 l 7 1086 l 1002 1086 l 1002 828 l 654 828 l 654 679 l 878 679 l 878 420 l 654 420 l 654 0 l 355 0 l 355 420 l 130 420 z "},"ŧ":{"ha":1008,"x_min":7,"x_max":1002,"o":"m 130 420 l 130 679 l 355 679 l 355 828 l 7 828 l 7 1086 l 1002 1086 l 1002 828 l 654 828 l 654 679 l 878 679 l 878 420 l 654 420 l 654 0 l 355 0 l 355 420 l 130 420 z "},"Ũ":{"ha":1108,"x_min":61,"x_max":1047,"o":"m 61 1086 l 360 1086 l 360 452 q 425 294 360 358 q 554 238 481 238 q 684 294 627 238 q 748 452 748 358 l 748 1086 l 1047 1086 l 1047 452 q 910 125 1047 263 q 554 -20 764 -20 q 198 125 345 -20 q 61 452 61 263 l 61 1086 m 258 1119 l 258 1165 q 307 1282 258 1236 q 448 1337 361 1337 q 568 1310 528 1337 q 623 1251 593 1295 q 653 1232 637 1232 q 671 1238 665 1232 q 684 1270 684 1250 l 684 1320 l 850 1320 l 850 1270 q 800 1154 850 1202 q 647 1099 744 1099 q 535 1126 577 1099 q 479 1185 511 1143 q 448 1203 467 1203 q 435 1199 439 1203 q 424 1165 424 1188 l 424 1119 l 258 1119 z "},"ũ":{"ha":1108,"x_min":61,"x_max":1047,"o":"m 61 1086 l 360 1086 l 360 452 q 425 294 360 358 q 554 238 481 238 q 684 294 627 238 q 748 452 748 358 l 748 1086 l 1047 1086 l 1047 452 q 910 125 1047 263 q 554 -20 764 -20 q 198 125 345 -20 q 61 452 61 263 l 61 1086 m 258 1119 l 258 1165 q 307 1282 258 1236 q 448 1337 361 1337 q 568 1310 528 1337 q 623 1251 593 1295 q 653 1232 637 1232 q 671 1238 665 1232 q 684 1270 684 1250 l 684 1320 l 850 1320 l 850 1270 q 800 1154 850 1202 q 647 1099 744 1099 q 535 1126 578 1099 q 479 1185 511 1143 q 448 1203 467 1203 q 435 1199 439 1203 q 425 1165 425 1188 l 425 1119 l 258 1119 z "},"Ū":{"ha":1108,"x_min":61,"x_max":1047,"o":"m 61 1086 l 360 1086 l 360 452 q 425 294 360 358 q 554 238 481 238 q 684 294 627 238 q 748 452 748 358 l 748 1086 l 1047 1086 l 1047 452 q 910 125 1047 263 q 554 -20 764 -20 q 198 125 345 -20 q 61 452 61 263 l 61 1086 m 787 1310 l 787 1147 l 321 1147 l 321 1310 l 787 1310 z "},"ū":{"ha":1108,"x_min":61,"x_max":1047,"o":"m 61 1086 l 360 1086 l 360 452 q 425 294 360 358 q 554 238 481 238 q 684 294 627 238 q 748 452 748 358 l 748 1086 l 1047 1086 l 1047 452 q 910 125 1047 263 q 554 -20 764 -20 q 198 125 345 -20 q 61 452 61 263 l 61 1086 m 787 1310 l 787 1147 l 321 1147 l 321 1310 l 787 1310 z "},"Ŭ":{"ha":1108,"x_min":61,"x_max":1047,"o":"m 61 1086 l 360 1086 l 360 452 q 425 294 360 358 q 554 238 481 238 q 684 294 627 238 q 748 452 748 358 l 748 1086 l 1047 1086 l 1047 452 q 910 125 1047 263 q 554 -20 764 -20 q 198 125 345 -20 q 61 452 61 263 l 61 1086 m 848 1390 q 770 1206 848 1284 q 559 1120 684 1120 l 559 1119 l 550 1119 q 338 1206 425 1119 q 260 1390 260 1284 l 454 1390 q 490 1301 454 1336 q 550 1274 515 1274 l 559 1274 q 619 1301 592 1274 q 655 1390 655 1336 l 848 1390 z "},"ŭ":{"ha":1108,"x_min":61,"x_max":1047,"o":"m 61 1086 l 360 1086 l 360 452 q 425 294 360 358 q 554 238 481 238 q 684 294 627 238 q 748 452 748 358 l 748 1086 l 1047 1086 l 1047 452 q 910 125 1047 263 q 554 -20 764 -20 q 198 125 345 -20 q 61 452 61 263 l 61 1086 m 848 1390 q 770 1206 848 1284 q 559 1120 684 1120 l 559 1119 l 549 1119 q 338 1206 425 1119 q 260 1390 260 1284 l 454 1390 q 489 1301 454 1336 q 549 1274 515 1274 l 559 1274 q 619 1301 592 1274 q 654 1390 654 1336 l 848 1390 z "},"Ů":{"ha":1108,"x_min":61,"x_max":1047,"o":"m 61 1086 l 360 1086 l 360 452 q 425 294 360 358 q 554 238 481 238 q 684 294 627 238 q 748 452 748 358 l 748 1086 l 1047 1086 l 1047 452 q 910 125 1047 263 q 554 -20 764 -20 q 198 125 345 -20 q 61 452 61 263 l 61 1086 m 555 1409 q 665 1364 618 1409 q 710 1254 710 1318 q 665 1143 710 1190 q 555 1098 618 1098 q 444 1143 490 1098 q 399 1254 399 1190 q 444 1364 399 1318 q 555 1409 490 1409 m 597 1296 q 555 1313 578 1313 q 511 1296 530 1313 q 495 1254 495 1278 q 512 1211 495 1229 q 555 1194 530 1194 q 596 1211 578 1194 q 614 1254 614 1229 q 597 1296 614 1278 z "},"ů":{"ha":1108,"x_min":61,"x_max":1047,"o":"m 61 1086 l 360 1086 l 360 452 q 425 294 360 358 q 554 238 481 238 q 684 294 627 238 q 748 452 748 358 l 748 1086 l 1047 1086 l 1047 452 q 910 125 1047 263 q 554 -20 764 -20 q 198 125 345 -20 q 61 452 61 263 l 61 1086 m 555 1409 q 665 1364 618 1409 q 710 1254 710 1318 q 665 1143 710 1190 q 555 1098 618 1098 q 444 1143 490 1098 q 399 1254 399 1190 q 444 1364 399 1318 q 555 1409 490 1409 m 597 1296 q 555 1313 578 1313 q 511 1296 530 1313 q 495 1254 495 1278 q 512 1211 495 1229 q 555 1194 530 1194 q 596 1211 578 1194 q 614 1254 614 1229 q 597 1296 614 1278 z "},"Ű":{"ha":1108,"x_min":61,"x_max":1047,"o":"m 61 1086 l 360 1086 l 360 452 q 425 294 360 358 q 554 238 481 238 q 684 294 627 238 q 748 452 748 358 l 748 1086 l 1047 1086 l 1047 452 q 910 125 1047 263 q 554 -20 764 -20 q 198 125 345 -20 q 61 452 61 263 l 61 1086 m 350 1391 l 554 1391 l 360 1121 l 203 1121 l 350 1391 m 701 1391 l 905 1391 l 711 1121 l 554 1121 l 701 1391 z "},"ű":{"ha":1108,"x_min":61,"x_max":1047,"o":"m 61 1086 l 360 1086 l 360 452 q 425 294 360 358 q 554 238 481 238 q 684 294 627 238 q 748 452 748 358 l 748 1086 l 1047 1086 l 1047 452 q 910 125 1047 263 q 554 -20 764 -20 q 198 125 345 -20 q 61 452 61 263 l 61 1086 m 350 1391 l 554 1391 l 360 1121 l 203 1121 l 350 1391 m 701 1391 l 905 1391 l 711 1121 l 554 1121 l 701 1391 z "},"Ų":{"ha":1108,"x_min":61,"x_max":1047,"o":"m 535 -20 q 198 125 338 -14 q 61 452 61 263 l 61 1086 l 360 1086 l 360 452 q 425 294 360 358 q 554 238 481 238 q 684 294 627 238 q 748 452 748 358 l 748 1086 l 1047 1086 l 1047 452 q 910 125 1047 263 q 783 32 851 67 l 774 24 q 694 -103 705 -43 q 709 -168 687 -144 l 711 -170 l 711 -170 q 750 -185 727 -186 q 814 -157 781 -184 l 877 -104 l 1006 -205 l 945 -257 q 757 -329 861 -327 q 568 -259 642 -333 l 564 -254 q 515 -83 499 -183 q 535 -20 521 -52 z "},"ų":{"ha":1108,"x_min":61,"x_max":1047,"o":"m 535 -20 q 198 125 338 -14 q 61 452 61 263 l 61 1086 l 360 1086 l 360 452 q 425 294 360 358 q 554 238 481 238 q 684 294 627 238 q 748 452 748 358 l 748 1086 l 1047 1086 l 1047 452 q 910 125 1047 263 q 783 32 851 67 l 774 24 q 694 -103 705 -43 q 709 -168 687 -144 l 711 -170 l 711 -170 q 750 -185 727 -186 q 814 -157 781 -184 l 877 -104 l 1006 -205 l 945 -257 q 757 -329 861 -327 q 568 -259 642 -333 l 564 -254 q 515 -83 499 -183 q 535 -20 521 -52 z "},"Ŵ":{"ha":1537,"x_min":7,"x_max":1530,"o":"m 800 308 l 938 705 l 1011 521 l 1213 1086 l 1530 1086 l 1120 0 l 906 0 l 800 308 m 998 1073 l 630 0 l 416 0 l 7 1086 l 323 1086 l 521 538 l 702 1073 l 998 1073 m 866 1112 l 768 1251 l 671 1112 l 421 1112 l 625 1390 l 912 1390 l 1116 1112 l 866 1112 z "},"ŵ":{"ha":1537,"x_min":7,"x_max":1530,"o":"m 800 308 l 938 705 l 1011 521 l 1213 1086 l 1530 1086 l 1120 0 l 906 0 l 800 308 m 998 1073 l 630 0 l 416 0 l 7 1086 l 323 1086 l 521 538 l 702 1073 l 998 1073 m 866 1112 l 768 1251 l 671 1112 l 421 1112 l 625 1390 l 912 1390 l 1116 1112 l 866 1112 z "},"Ŷ":{"ha":1078,"x_min":7,"x_max":1072,"o":"m 741 1086 l 1072 1086 l 689 381 l 689 0 l 389 0 l 389 381 l 7 1086 l 337 1086 l 539 713 l 741 1086 m 637 1112 l 539 1251 l 442 1112 l 192 1112 l 396 1390 l 683 1390 l 887 1112 l 637 1112 z "},"ŷ":{"ha":1078,"x_min":7,"x_max":1072,"o":"m 741 1086 l 1072 1086 l 689 381 l 689 0 l 389 0 l 389 381 l 7 1086 l 337 1086 l 539 713 l 741 1086 m 637 1112 l 539 1251 l 442 1112 l 192 1112 l 396 1390 l 683 1390 l 887 1112 l 637 1112 z "},"Ÿ":{"ha":1078,"x_min":7,"x_max":1072,"o":"m 741 1086 l 1072 1086 l 689 381 l 689 0 l 389 0 l 389 381 l 7 1086 l 337 1086 l 539 713 l 741 1086 m 290 1343 l 479 1343 l 479 1153 l 290 1153 l 290 1343 m 600 1343 l 789 1343 l 789 1153 l 600 1153 l 600 1343 z "},"Ź":{"ha":1054,"x_min":7,"x_max":1047,"o":"m 7 827 l 114 1086 l 927 1086 l 1028 929 l 471 258 l 1047 258 l 940 0 l 120 0 l 19 157 l 576 827 l 7 827 m 534 1391 l 806 1391 l 612 1121 l 387 1121 l 534 1391 z "},"ź":{"ha":1054,"x_min":7,"x_max":1047,"o":"m 7 827 l 114 1086 l 927 1086 l 1028 929 l 471 258 l 1047 258 l 940 0 l 120 0 l 19 157 l 576 827 l 7 827 m 534 1391 l 806 1391 l 612 1121 l 387 1121 l 534 1391 z "},"Ż":{"ha":1054,"x_min":7,"x_max":1047,"o":"m 7 827 l 114 1086 l 927 1086 l 1028 929 l 471 258 l 1047 258 l 940 0 l 120 0 l 19 157 l 576 827 l 7 827 m 435 1337 l 619 1337 l 619 1153 l 435 1153 l 435 1337 z "},"ż":{"ha":1054,"x_min":7,"x_max":1047,"o":"m 7 827 l 114 1086 l 927 1086 l 1028 929 l 471 258 l 1047 258 l 940 0 l 120 0 l 19 157 l 576 827 l 7 827 m 435 1337 l 619 1337 l 619 1153 l 435 1153 l 435 1337 z "},"Ž":{"ha":1054,"x_min":7,"x_max":1047,"o":"m 7 827 l 114 1086 l 927 1086 l 1028 929 l 471 258 l 1047 258 l 940 0 l 120 0 l 19 157 l 576 827 l 7 827 m 875 1390 l 671 1112 l 384 1112 l 180 1390 l 430 1390 l 527 1251 l 625 1390 l 875 1390 z "},"ž":{"ha":1054,"x_min":7,"x_max":1047,"o":"m 7 827 l 114 1086 l 927 1086 l 1028 929 l 471 258 l 1047 258 l 940 0 l 120 0 l 19 157 l 576 827 l 7 827 m 875 1390 l 671 1112 l 384 1112 l 180 1390 l 430 1390 l 527 1251 l 625 1390 l 875 1390 z "},"ſ":{"ha":652,"x_min":7,"x_max":629,"o":"m 306 0 l 7 0 l 7 1086 l 629 1086 l 629 827 l 306 827 l 306 0 z "},"̓":{"ha":345,"x_min":56,"x_max":285,"o":"m 63 464 l 190 464 l 284 679 l 285 679 l 285 861 l 56 861 l 56 679 l 117 679 l 63 464 z "},"̕":{"ha":345,"x_min":56,"x_max":285,"o":"m 63 691 l 190 691 l 284 906 l 285 906 l 285 1088 l 56 1088 l 56 906 l 117 906 l 63 691 z "},"̛":{"ha":345,"x_min":56,"x_max":285,"o":"m 63 691 l 190 691 l 284 906 l 285 906 l 285 1088 l 56 1088 l 56 906 l 117 906 l 63 691 z "},"̦":{"ha":345,"x_min":56,"x_max":285,"o":"m 63 -460 l 190 -460 l 284 -245 l 285 -245 l 285 -64 l 56 -64 l 56 -245 l 117 -245 l 63 -460 z "},"‰":{"ha":2013,"x_min":34,"x_max":1968,"o":"m 307 1101 q 502 1029 421 1101 q 579 863 579 960 l 579 756 q 501 589 579 658 q 307 517 421 517 q 112 590 193 517 q 34 756 34 658 l 34 863 q 113 1030 34 960 q 307 1101 193 1101 m 1099 568 q 1294 496 1213 568 q 1372 330 1372 427 l 1372 223 q 1293 56 1372 125 q 1099 -16 1213 -16 q 904 56 985 -16 q 826 223 826 125 l 826 330 q 905 497 826 427 q 1099 568 985 568 m 307 877 q 274 865 287 877 q 266 850 266 859 l 266 762 q 274 747 266 753 q 307 735 287 735 q 338 746 326 735 q 347 762 347 753 l 347 850 q 338 865 347 858 q 307 877 326 877 m 1099 351 q 1066 339 1079 351 q 1058 323 1058 332 l 1058 230 q 1066 214 1058 221 q 1099 202 1080 202 q 1132 214 1119 202 q 1140 230 1140 220 l 1140 323 q 1132 339 1140 332 q 1099 351 1119 351 m 995 1086 l 663 0 l 395 0 l 726 1086 l 995 1086 m 1695 568 q 1890 496 1809 568 q 1968 330 1968 427 l 1968 223 q 1889 56 1968 125 q 1695 -16 1809 -16 q 1500 56 1581 -16 q 1422 223 1422 125 l 1422 330 q 1501 497 1422 427 q 1695 568 1581 568 m 1695 351 q 1662 339 1675 351 q 1654 323 1654 332 l 1654 230 q 1662 214 1654 221 q 1695 202 1676 202 q 1728 214 1715 202 q 1736 230 1736 220 l 1736 323 q 1728 339 1736 332 q 1695 351 1715 351 z "}}}
